<?xml version="1.0" encoding="UTF-8"?>
<svg width="97px" height="39px" viewBox="0 0 97 39" version="1.1" xmlns="http://www.w3.org/2000/svg" xmlns:xlink="http://www.w3.org/1999/xlink">
    <!-- Generator: Sketch 54.1 (76490) - https://sketchapp.com -->
    <title>eBay Logo</title>
    <desc>Created with Sketch.</desc>
    <defs>
        <polygon id="path-1" points="0 0.0348863669 24.5164175 0.0348863669 24.5164175 22.9486057 0 22.9486057"></polygon>
    </defs>
    <g id="Home-V2" stroke="none" stroke-width="1" fill="none" fill-rule="evenodd">
        <g id="Desktop-HD-V2.A" transform="translate(-981.000000, -807.000000)">
            <g id="ACTIVE-AUCTIONS" transform="translate(0.000000, 750.000000)">
                <g id="Ebay" transform="translate(981.000000, 57.000000)">
                    <g id="eBay-Logo">
                        <g id="Group-3" transform="translate(0.000000, 8.545386)">
                            <mask id="mask-2" fill="white">
                                <use xlink:href="#path-1"></use>
                            </mask>
                            <g id="Clip-2"></g>
                            <path d="M5.09560172,9.44046416 C5.09560172,9.44046416 5.44259779,3.26266143 12.4143365,3.26078982 C19.3606214,3.25891821 19.3606214,9.44046416 19.3606214,9.44046416 L5.09560172,9.44046416 Z M12.5341194,0.0348867677 C0.41321355,0.0326408385 -0.0576829497,9.46816395 0.00408010481,11.9177241 C0.00408010481,11.9177241 -0.589593861,22.9486057 12.2372824,22.9486057 C23.2588059,22.9486057 23.8015722,16.027026 23.8015722,16.027026 L18.7306382,16.037507 C18.7306382,16.037507 17.743178,19.8503462 12.2582444,19.7485308 C5.20677522,19.6171439 4.93314617,12.7857758 4.93314617,12.7857758 L24.4678645,12.7857758 C24.4678645,12.7857758 25.9501778,0.0375070185 12.5341194,0.0348867677 L12.5341194,0.0348867677 Z" id="Fill-1" fill="#EE3A3F" mask="url(#mask-2)"></path>
                        </g>
                        <path d="M36.9162268,28.2005615 C29.2198016,28.2971364 29.344825,20.0373573 29.344825,20.0373573 C29.344825,20.0373573 29.0644582,12.0871421 36.9038742,11.8827625 C44.742916,11.6783829 44.4876287,20.2072993 44.4876287,20.2072993 C44.4876287,20.2072993 44.6130264,28.1032379 36.9162268,28.2005615 M38.0354483,8.58012353 C31.9411192,8.54606027 29.3193711,12.1893318 29.3193711,12.1893318 L29.3193711,0.000299457234 L24.4337264,0.000299457234 L24.5164514,25.761108 C24.5164514,25.761108 24.48688,28.7620438 24.3019652,30.7451993 L29.0476137,30.7451993 L29.2508703,27.8509452 C29.2508703,27.8509452 31.4646079,31.4942167 37.9332585,31.4942167 C44.4026577,31.4942167 49.5102751,27.5103126 49.6465282,20.1223283 C49.7820326,12.7339697 44.1305259,8.61418679 38.0354483,8.58012353" id="Fill-4" fill="#0067B2"></path>
                        <path d="M59.4517312,28.3785514 C59.4517312,28.3785514 54.5548568,28.3845405 54.2673779,24.4717574 C53.9615572,20.296575 61.8009732,20.5477447 61.8009732,20.5477447 L67.3398091,20.5421299 C67.3398091,20.5421299 68.2366835,28.4938424 59.4517312,28.3785514 M72.219839,25.6594797 C72.2321917,22.3272693 72.3295153,19.3517874 72.219839,17.2529665 C72.0918211,14.8195022 72.3224031,8.94602283 61.8009732,8.51218417 C61.8009732,8.51218417 51.714505,7.59285046 50.6671533,15.1002433 L55.8256785,15.1002433 C55.8256785,15.1002433 56.2265768,11.6606027 61.4610893,11.7597979 C66.4148606,11.8533783 67.3173498,14.2830994 67.2915216,17.2709339 C67.2915216,17.2709339 63.0459667,17.2829122 61.6287853,17.2900243 C59.0755381,17.3027513 50.1393599,17.5857383 49.3053715,23.0287479 C48.3130451,29.5007674 54.0895751,31.5198578 58.6091334,31.4940296 C63.1290661,31.4685757 65.7077672,30.1154033 67.6231705,27.6894254 L67.8279244,30.7023395 L72.3224031,30.6768856 C72.3224031,30.6768856 72.2063635,28.9920644 72.219839,25.6594797" id="Fill-6" fill="#FAAC18"></path>
                        <polygon id="Fill-8" fill="#69B845" points="69.5471084 9.39726745 75.2158338 9.39726745 83.5063073 25.9276811 91.8143739 9.39726745 96.9388359 9.39726745 81.9397717 38.8653565 76.4589556 38.8653565 80.7999626 30.6766985"></polygon>
                    </g>
                </g>
            </g>
        </g>
    </g>
</svg>