<svg xmlns="http://www.w3.org/2000/svg" viewBox="0 0 381.8 67.9"><defs><style>.a{fill:#fff3d7;}</style></defs><title>lsb_inline_light-tan</title><path class="a" d="M40.78,28.7l-1.7,15.5H0V43h1.5a6.7,6.7,0,0,0,3.1-.7,2.62,2.62,0,0,0,1.3-1.6,14,14,0,0,0,.4-4.1V7.6a12,12,0,0,0-.4-4.2,3.62,3.62,0,0,0-1.5-1.5,4.92,4.92,0,0,0-2.9-.6H0V.1h23.5V1.3h-1.9a6.7,6.7,0,0,0-3.1.7,2.93,2.93,0,0,0-1.3,1.6,18.4,18.4,0,0,0-.4,4.1V35.8a12.58,12.58,0,0,0,.4,4.3,2.32,2.32,0,0,0,1.5,1.4,12.86,12.86,0,0,0,3.9.3h3.7a13.57,13.57,0,0,0,5.9-1.2,11.48,11.48,0,0,0,4-3.9,32,32,0,0,0,3.2-7.9Z"/><path class="a" d="M50.78,24.1l.3,13.9h-1.3a14.36,14.36,0,0,0-4.4-8.4,11.18,11.18,0,0,0-7.6-3.2,7.09,7.09,0,0,0-5,1.7A5,5,0,0,0,31,32a5.42,5.42,0,0,0,.6,2.5,11.42,11.42,0,0,0,2.9,2.9c2.2,1.3,4.4,2.5,6.7,3.6,4.9,2.4,8.2,4.7,9.9,6.8a11,11,0,0,1,2.5,7.3,11.92,11.92,0,0,1-4.1,9,14.73,14.73,0,0,1-10.4,3.8,15,15,0,0,1-3.7-.4A32.55,32.55,0,0,1,31,66a5.33,5.33,0,0,0-2.4-.6,2.72,2.72,0,0,0-1.7.6,4.89,4.89,0,0,0-1.4,1.8h-1.1V52.1h1.1a18.4,18.4,0,0,0,5.2,10.1A12.27,12.27,0,0,0,39,65.7a7.87,7.87,0,0,0,5.5-1.9,5.69,5.69,0,0,0,1.3-7.2,8.48,8.48,0,0,0-2.4-2.6,32,32,0,0,0-5.7-3.2,45.08,45.08,0,0,1-8.2-4.8,13.31,13.31,0,0,1-3.8-4.4,11.14,11.14,0,0,1-1.4-5.4A11.51,11.51,0,0,1,28,27.7a12.65,12.65,0,0,1,9.2-3.5,18.25,18.25,0,0,1,4,.5,15.06,15.06,0,0,1,3.5,1.4,7.71,7.71,0,0,0,2.9,1,1.35,1.35,0,0,0,1.2-.5,5,5,0,0,0,.9-2.4Z"/><path class="a" d="M72,20.8c4.2,1,7.1,2.2,8.8,3.5a9.57,9.57,0,0,1,3.7,7.7,9.82,9.82,0,0,1-4,8.2c-3.3,2.6-8,3.9-14.3,3.9H43.78V43a10.21,10.21,0,0,0,4.2-.6,2.76,2.76,0,0,0,1.5-1.5,11.49,11.49,0,0,0,.4-4.5V7.8a13.75,13.75,0,0,0-.4-4.5A3.12,3.12,0,0,0,48,1.8a9.52,9.52,0,0,0-4.1-.6V0h21.2c5.1,0,8.6.5,10.8,1.4a10.91,10.91,0,0,1,5,4,9.88,9.88,0,0,1,1.8,5.7,8.52,8.52,0,0,1-2.3,5.8C78.58,18.5,75.88,19.8,72,20.8Zm-11.8,1.6V38.2a3.14,3.14,0,0,0,2.7,3.5h.8a10.05,10.05,0,0,0,4.8-1.2,8.3,8.3,0,0,0,3.4-3.3A10.35,10.35,0,0,0,73,32.3a10.73,10.73,0,0,0-1.4-5.5,7.58,7.58,0,0,0-3.9-3.4A21.25,21.25,0,0,0,60.18,22.4Zm0-2.5a17.57,17.57,0,0,0,6.8-1,7.39,7.39,0,0,0,3.4-2.9,10.05,10.05,0,0,0,1.2-4.8,8.2,8.2,0,0,0-1.2-4.8,7.31,7.31,0,0,0-3.3-3,18.07,18.07,0,0,0-6.9-1Z"/><path class="a" d="M105.78,33.7c1.7.8,5.7.4,7.6-.7a11.56,11.56,0,0,0,2.8-2.6c.3-.4.7,0,.7.4a5.07,5.07,0,0,1-1.3,3.3c-1.2,1.2-3.7,1.4-5.6,1.3,0,0-4.8-.4-6.2-.4-1.8,0-3.3.2-3.6.2a.35.35,0,1,1,0-.7c2.2-.3,2-1.9,2-3.3V16.9c0-2.4-.4-2.9-3.3-3.3-.4,0-.4-.7,0-.7,1.3,0,3,.1,4.4.1,1.9,0,3.3-.1,3.6-.1s.4.6-.1.7c-2.2.3-2,1.9-2,3.3v13C105,31.1,104.78,33.2,105.78,33.7Z"/><path class="a" d="M131.08,22.3a8.13,8.13,0,0,1,1.9,7.3,7.62,7.62,0,0,1-4.9,5.4,8.72,8.72,0,0,1-7.7-1,7.43,7.43,0,0,1-3.1-6.6,8,8,0,0,1,3.9-6.5,8.57,8.57,0,0,1,4.1-1A7.85,7.85,0,0,1,131.08,22.3Zm-11,6.2c.4,2,1.4,4.5,3.6,5.6a6.08,6.08,0,0,0,4.4-.1,5.7,5.7,0,0,0,2.6-4.4c.2-2-.8-6-2.6-7.6a4.93,4.93,0,0,0-6.7.2c-1.6,1.7-1.6,4.7-1.3,6.3Z"/><path class="a" d="M141.78,20.9a4.1,4.1,0,0,0-3.6,1.3c-1.4,1.5-1.5,4.4-1.1,6.1.6,2.4,1.6,4.3,4.1,5.1a5.48,5.48,0,0,0,6-1.6c.3-.3.7,0,.5.4a7.27,7.27,0,0,1-6.9,3.2,6.77,6.77,0,0,1-5.5-4,9.49,9.49,0,0,1,.8-8.2,7.93,7.93,0,0,1,6.6-3.4c1.1,0,3.2.6,3.9,1.8a.91.91,0,0,1,0,1,3.11,3.11,0,0,1-.9.7c-.4.3-.9.7-1,.3A3.39,3.39,0,0,0,141.78,20.9Z"/><path class="a" d="M158.68,20.4c.6,0,1.6.1,3.3.1s2.2-.1,2.8-.1.4.7.1.7c-2.6.6-2,.3-4.8,2.6l-1.9,1.5c-.8.6-.8.8-.3,1.5l2,2.6c2.6,3.4,3.1,4.7,6.3,5.1.4,0,.4.7,0,.7h-2.9c-1.9,0-1.1,1-4.2-3l-2.7-3.5c-.7-.9-.9-1-1.3-.7l-.9.7c-.7.5-.7.5-.7,1.9V31c0,2.4.4,3,3.3,3.3.4,0,.4.7,0,.7-.7,0-2.6-.2-4.4-.2a33.35,33.35,0,0,0-3.4.2.35.35,0,1,1,0-.7c2.2-.3,2-1.9,2-3.3V16.9c0-2.1-1.4-1.9-2.9-2a.3.3,0,0,1,0-.6,13.82,13.82,0,0,0,2.7-.8,10.08,10.08,0,0,0,2.3-1.2c.5-.3.7-.1.6.3a15.53,15.53,0,0,0-.2,4.3v9.9c0,.9.1,1,.9.4l2.3-1.7c3.5-2.7,3.9-4.1,2.1-4.3C158.28,21.1,158.28,20.4,158.68,20.4Z"/><path class="a" d="M168.78,36a3.15,3.15,0,0,0-.9-1.7c-.5-.5-.7-.6-.6-1.2a4.07,4.07,0,0,1,1.3-1.9.91.91,0,0,1,1,0,4.71,4.71,0,0,1,1.4,3.3,6.7,6.7,0,0,1-.7,3.1,6.25,6.25,0,0,1-1.8,2.2c-.4.3-.8,0-.6-.4A6.65,6.65,0,0,0,168.78,36Z"/><path class="a" d="M180.18,28.3c1.3,3.2,2,5.1,5.3,5.9a6.07,6.07,0,0,0,5.2-1.2,4.49,4.49,0,0,0,1.3-3.8c-.4-2.1-2.2-2.8-4.4-3.7l-1.9-.8c-2.6-1-4.8-1.8-5.4-5a6.2,6.2,0,0,1,1.6-5.5,7.22,7.22,0,0,1,6.3-1.6c2.4.7,3.3,1.4,4,.3a.4.4,0,0,1,.4-.2.52.52,0,0,1,.2.4,19.27,19.27,0,0,0,.1,2.4c.1,1.1.3,2.5.4,3.1,0,.2-.2.3-.4.3a.27.27,0,0,1-.3-.3c-1.2-2.8-2.4-4.4-4.6-4.9a4.84,4.84,0,0,0-4.6,1,3.22,3.22,0,0,0-1.1,3.3c.4,2.2,2.5,3.1,4.6,3.9l1.5.6c3.2,1.2,5.3,2.2,5.7,5.7a6.55,6.55,0,0,1-2.5,5.5,10.45,10.45,0,0,1-10.4.5c-1.4-.8-1.6-1-1.6-1.3a13.8,13.8,0,0,0,0-2.1c-.1-1-.2-2.3-.2-2.6s.1-.4.3-.4S180.18,28.1,180.18,28.3Z"/><path class="a" d="M200.28,16.8V20c0,.6.1.8.8.8h1.7c1.6,0,1.6,0,2-.6.1-.2.6,0,.5.3-.8,1.5-.5,1.4-2.2,1.4h-1.9c-.8,0-.8.2-.8.7v8c0,2.3,1.3,3.5,2.9,3.5a4,4,0,0,0,2.5-1c.4-.3.8.1.5.5a5.39,5.39,0,0,1-3.8,1.9c-1.7,0-4.5-.7-4.5-5.5V22.6c0-.8-.1-.7-1.3-.7h-.8c-.4,0-.4-.4-.1-.6a7.47,7.47,0,0,0,2.8-2.5,9.41,9.41,0,0,0,1.2-2.2c.1-.2.2-.2.4-.2s.2.3.1.4Z"/><path class="a" d="M220.68,22.3a8.13,8.13,0,0,1,1.9,7.3,7.62,7.62,0,0,1-4.9,5.4,8.72,8.72,0,0,1-7.7-1,7.67,7.67,0,0,1-3.1-6.6,8,8,0,0,1,3.9-6.5,8.57,8.57,0,0,1,4.1-1A7.85,7.85,0,0,1,220.68,22.3Zm-11,6.2c.4,2,1.4,4.5,3.6,5.6a6.08,6.08,0,0,0,4.4-.1,5.7,5.7,0,0,0,2.6-4.4c.2-2-.8-6-2.6-7.6a4.93,4.93,0,0,0-6.7.2c-1.6,1.7-1.6,4.7-1.3,6.3Z"/><path class="a" d="M231.38,20.9a4.1,4.1,0,0,0-3.6,1.3c-1.4,1.5-1.5,4.4-1.1,6.1.6,2.4,1.6,4.3,4.1,5.1a5.45,5.45,0,0,0,5.9-1.6c.3-.3.7,0,.5.4a7.27,7.27,0,0,1-6.9,3.2,6.77,6.77,0,0,1-5.5-4,9.49,9.49,0,0,1,.8-8.2,7.93,7.93,0,0,1,6.6-3.4,5.28,5.28,0,0,1,3.9,1.8.91.91,0,0,1,0,1,5.5,5.5,0,0,1-.9.7c-.4.3-.8.7-1,.3A3.15,3.15,0,0,0,231.38,20.9Z"/><path class="a" d="M248.28,20.4c.6,0,1.6.1,3.3.1s2.2-.1,2.8-.1.4.7.1.7c-2.6.6-2,.3-4.8,2.6l-1.9,1.5c-.8.6-.8.8-.3,1.5l2,2.6c2.6,3.4,3.1,4.7,6.3,5.1.4,0,.4.7,0,.7h-2.9c-1.9,0-1.1,1-4.2-3L246,28.7c-.7-.9-.9-1-1.3-.7l-.9.7c-.7.5-.7.5-.7,1.9v.5c0,2.4.4,3,3.3,3.3.4,0,.4.7,0,.7-.7,0-2.6-.2-4.4-.2a33.35,33.35,0,0,0-3.4.2.35.35,0,1,1,0-.7c2.2-.3,2-1.9,2-3.3V16.9c0-2.1-1.4-1.9-2.9-2a.3.3,0,0,1,0-.6,13.82,13.82,0,0,0,2.7-.8,10.08,10.08,0,0,0,2.3-1.2c.5-.3.7-.1.6.3a15.53,15.53,0,0,0-.2,4.3v9.9c0,.9.1,1,.9.4l2.3-1.7c3.5-2.7,3.9-4.1,2.1-4.3C247.88,21.1,247.88,20.4,248.28,20.4Z"/><path class="a" d="M277.68,16a15.72,15.72,0,0,0,.4,2.3c0,.5-.5.5-.6.2-.8-1.5-1.6-3.8-3.8-4.6a3,3,0,0,0-2.6.1,2.59,2.59,0,0,0-1.3,1.9c-.3,2.4,1.9,4.2,4.4,6.9,3.3,3.6,7,7,7,7a5.56,5.56,0,0,0,1-4.5,2.67,2.67,0,0,0-2.6-2c-.5-.1-.5-.8,0-.8s1.7.1,3,.1c1.1,0,2.2-.1,2.6-.1.2,0,.3.2.3.4a.32.32,0,0,1-.3.3c-1,.1-1.7,1.7-1.7,3.1a6.68,6.68,0,0,1-1.3,4.1c2.2,2.2,4.2,4.4,8,3.4.3-.1.4.5.2.6a7.72,7.72,0,0,1-7.9-.1l-2.4-1.5a11.24,11.24,0,0,1-11.8,1.5,7.32,7.32,0,0,1-4.5-6.4,7.75,7.75,0,0,1,3.2-6.6,7.46,7.46,0,0,1,1.2-.7,5.69,5.69,0,0,1,0-5.9,4.71,4.71,0,0,1,4.4-1.9,18.92,18.92,0,0,1,2.3.5c1.1.4,1.3,1.1,2,.1.2-.2.5-.2.6.1C277.58,14.5,277.58,15.3,277.68,16Zm-10.9,7.5a5.64,5.64,0,0,0-.4,4.9,9.21,9.21,0,0,0,6.1,5.1c2.3.6,4.7.6,6.7-1.3,0,0-3.6-3.2-5.6-5.3-2.5-2.6-4.8-5.3-4.8-5.3a8.4,8.4,0,0,0-2,1.9Z"/><path class="a" d="M299.28,35.1a.35.35,0,1,1,0-.7c2.2-.3,2-1.9,2-3.3V16.9c0-2.4-.4-2.9-3.3-3.3-.4,0-.5-.7,0-.7,1.3,0,2.7.1,4.4.1,2,0,3.7-.1,5.2-.1,2,0,4.4.4,5.8,2a5.17,5.17,0,0,1,1.1,4.3,4.64,4.64,0,0,1-1.2,2.3,17.68,17.68,0,0,1-2.2,1.6c2.4.5,4.3,1.6,5.2,3.8a6.1,6.1,0,0,1-.7,5.4c-1.9,2.5-5.3,2.8-7.8,2.8-1.5,0-3.6-.2-5-.2C301,35,299.48,35.1,299.28,35.1Zm4.7-14c0,.9-.1,1.3.3,1.6a11.8,11.8,0,0,0,5.5-.3,4.39,4.39,0,0,0,2.3-3,4.61,4.61,0,0,0-1.4-4.3c-1.5-1.4-4.6-1.6-5.7-1.4s-1,.4-1,1.4Zm0,10c0,.9,0,2.3,1.1,2.9,1.4.6,5.2.4,6.6-.7a5.22,5.22,0,0,0,2.1-5,5.14,5.14,0,0,0-3.8-4.2c-1.4-.4-5.4-.4-5.8-.1s-.2,1-.2,1.4Z"/><path class="a" d="M327.08,33c-2.4,1.9-3.8,2.9-6.4,2.3a3.26,3.26,0,0,1-2.3-1.8,3.82,3.82,0,0,1,0-3.3c.9-1.8,2.9-2.4,4.3-2.8l3.1-.7c.8-.2,1-.3,1-1,0-2,.1-3-.6-3.9a4.14,4.14,0,0,0-3.2-1.2,2.48,2.48,0,0,0-2.2,1.3,2.66,2.66,0,0,0-.3,1.2,4.87,4.87,0,0,1,.1,1.2,5.07,5.07,0,0,1-1.6.9c-.4,0-.5.1-.8-.3a2.8,2.8,0,0,1,.2-2,4.4,4.4,0,0,1,3.4-2.8c1.4-.3,5-.3,6.3,1s1.1,5.3,1.1,5.6v4.2c0,3.2,1.4,3.4,2.5,2.9.4-.2.7.3.3.6C330,36,328.08,35.3,327.08,33Zm-6,0a2.38,2.38,0,0,0,2.6.8,4,4,0,0,0,3.1-2.3,15.28,15.28,0,0,0,.1-3.7c0-.5-.2-.7-1.3-.5s-3.9.7-4.7,2.7a3.14,3.14,0,0,0,.2,3Z"/><path class="a" d="M344.28,21c.5.6.4.8.2,1.2a8.34,8.34,0,0,1-.8,1.2c-.1.2-.4.2-.6,0-1.1-1.1-1.5-1.3-2.6-.7-2.4,1.3-2.2,3.8-2.2,5.6v2.8c0,2.4.4,3,3.3,3.3.4,0,.5.7,0,.7-.7,0-2.6-.2-4.4-.2a33.35,33.35,0,0,0-3.4.2.35.35,0,1,1,0-.7c2.2-.3,2-1.9,2-3.3V24.3c0-2.1-1.4-1.8-2.9-2a.3.3,0,1,1,0-.6,13.56,13.56,0,0,0,2.9-.6,7.71,7.71,0,0,0,2.1-1.4c.5-.3.7-.1.6.2a9.25,9.25,0,0,0-.2,2.9c0,.2.3.3.5.1.9-1.1,2.2-2.8,3.5-2.8A2.52,2.52,0,0,1,344.28,21Z"/><path class="a" d="M357.48,21c.5.6.4.8.2,1.2a8.34,8.34,0,0,1-.8,1.2c-.1.2-.4.2-.6,0-1.1-1.1-1.5-1.3-2.6-.7-2.4,1.3-2.2,3.8-2.2,5.6v2.8c0,2.4.4,3,3.3,3.3.4,0,.5.7,0,.7-.7,0-2.6-.2-4.4-.2a33.35,33.35,0,0,0-3.4.2.35.35,0,1,1,0-.7c2.2-.3,2-1.9,2-3.3V24.3c0-2.1-1.4-1.8-2.9-2a.3.3,0,1,1,0-.6,13.56,13.56,0,0,0,2.9-.6,7.71,7.71,0,0,0,2.1-1.4c.5-.3.7-.1.6.2a9.25,9.25,0,0,0-.2,2.9c0,.2.3.3.5.1.9-1.1,2.2-2.8,3.5-2.8A2.52,2.52,0,0,1,357.48,21Z"/><path class="a" d="M361.78,26.1c-.6,0-.7.1-.7.8,0,3.7,2.1,6.9,6,6.9a6.65,6.65,0,0,0,4.3-2,.28.28,0,0,1,.4.4,7.26,7.26,0,0,1-10,2.1,7,7,0,0,1-2.1-2.1,10.11,10.11,0,0,1-.3-8.5,6.65,6.65,0,0,1,5.1-3.8,6.31,6.31,0,0,1,5.5,2.2,5.78,5.78,0,0,1,1.4,3.4c0,.5-.2.6-.7.6Zm0-.9H368c.5,0,.6-.1.6-.8a3.83,3.83,0,0,0-3.6-3.8,4.12,4.12,0,0,0-3.9,3.9C361.08,25,361.18,25.2,361.78,25.2Z"/><path class="a" d="M381.48,34.4c.4,0,.5.7,0,.7-.7,0-2.6-.2-4.4-.2a33.35,33.35,0,0,0-3.4.2.35.35,0,1,1,0-.7c2.2-.3,2-1.9,2-3.3V16.9c0-2.1-1.4-1.9-2.9-2a.3.3,0,0,1,0-.6,13.82,13.82,0,0,0,2.7-.8,10.08,10.08,0,0,0,2.3-1.2c.5-.3.7-.1.6.3a15.53,15.53,0,0,0-.2,4.3V31.2C378.18,33.5,378.58,34.1,381.48,34.4Z"/><path class="a" d="M107.38,55a.2.2,0,0,1,0,.4c-.7,0-1.6-.1-2.3-.1-1,0-1.8.1-1.9.1s-.3-.3,0-.4c1.2-.2,1.1-1,1.1-1.8V45.5c0-1.3-.2-1.6-1.8-1.8-.2,0-.2-.4,0-.4.7,0,1.6.1,2.4.1,1,0,1.8-.1,1.9-.1s.2.3,0,.4c-1.2.2-1.1,1-1.1,1.8v7.7C105.58,54.5,105.78,54.8,107.38,55Z"/><path class="a" d="M133.18,43.8c-.2,0-.2-.4,0-.4h3.5c.3,0,.3.3,0,.4-1.2.2-1.3,1-1.3,1.8v9.9c0,.3-.2.4-.4.1l-8.3-9.3c-.2-.3-.3-.2-.3.1v6.8c0,1.3,0,1.6,1.6,1.8.2,0,.2.4,0,.4h-3.5c-.2,0-.2-.3,0-.4,1.2-.2,1.3-1,1.3-1.8V46c0-1.5-.4-2-2-2.2-.2,0-.2-.4,0-.4h2.7c.2,0,.2,0,.4.2l7.6,8.8c.2.2.4.2.4-.3V45.5C134.88,44.3,134.78,44,133.18,43.8Z"/><path class="a" d="M160.78,52.6l3.1-7c.5-1.1.2-1.6-1-1.8a.2.2,0,1,1,0-.4h3.2c.3,0,.1.3,0,.4-1,.4-1,.5-1.6,1.8l-4.3,9.5q-.3.6-.6,0l-4.4-9.5c-.6-1.3-.9-1.7-1.8-1.8-.2,0-.3-.4,0-.4.7,0,1.2.1,1.9.1,1,0,1.8-.1,2-.1s.2.3,0,.4c-1.1.2-.9.8-.4,1.8l3.2,7C160.38,53.1,160.58,53.1,160.78,52.6Z"/><path class="a" d="M190.48,47.6c0-.2.4-.2.4,0s-.1,1-.1,1.8.1,1.7.1,1.8a.2.2,0,1,1-.4,0c-.2-1.3-.6-1.3-1.7-1.5a8.6,8.6,0,0,0-1.6-.1c-.7,0-.8.1-.8.7v2.4c0,.6-.1,1.8.5,2a6.42,6.42,0,0,0,4.1-.4,4,4,0,0,0,1.5-1.4c.2-.2.3,0,.3.2a2.14,2.14,0,0,1-.9,1.8,3.47,3.47,0,0,1-2.8.6s-2.6-.2-3.3-.2c-1,0-1.8.1-1.9.1s-.3-.3,0-.4c1.2-.2,1.1-1,1.1-1.8V45.6c0-1.3-.2-1.6-1.8-1.8-.2,0-.2-.4,0-.4.7,0,1.6.1,2.4.1h4.3a16.18,16.18,0,0,0,1.8-.1v.2c0,.2-.1.5-.1.8s.1,1,.1,1.3-.3.3-.4,0c-.2-1.1-.5-1.8-2.3-1.8h-1.9c-.7,0-.8.1-.8.7v3.7c0,.5,0,.5.8.5h1.6C189.78,48.8,190.28,48.9,190.48,47.6Z"/><path class="a" d="M209.18,51.7c.7,1.7,1.1,2.7,2.9,3.2a3.47,3.47,0,0,0,2.8-.6,2.49,2.49,0,0,0,.7-2c-.2-1.1-1.2-1.5-2.3-2l-1.1-.4c-1.4-.5-2.6-1-2.9-2.7a3.33,3.33,0,0,1,.9-3,4.15,4.15,0,0,1,3.4-.9c1.3.4,1.8.7,2.1.2,0-.1.2-.1.2-.1s.1.1.1.2v1.3c0,.6.2,1.3.2,1.7,0,.1-.1.2-.2.1a.1.1,0,0,1-.1-.1c-.6-1.5-1.3-2.4-2.5-2.7a2.78,2.78,0,0,0-2.5.5,1.93,1.93,0,0,0-.6,1.8c.2,1.2,1.4,1.7,2.5,2.1l.8.3c1.7.7,2.9,1.2,3.1,3.1a3.4,3.4,0,0,1-1.3,3,5.61,5.61,0,0,1-5.6.3c-.8-.4-.9-.6-.9-.7V53.2c0-.5-.1-1.2-.1-1.4a.22.22,0,0,1,.2-.2c.2-.1.3,0,.2.1Z"/><path class="a" d="M241.68,43.5a2.77,2.77,0,0,0,.9-.1c.6,0,.6,0,.6.4a15.77,15.77,0,0,0,.1,1.9c0,.3-.4.2-.4,0-.1-.8-.4-1.5-1.8-1.5h-1.9c-.3,0-.4.2-.4.5v8.4c0,1.3.2,1.6,1.8,1.8.2,0,.2.4,0,.4-.7,0-1.6-.1-2.4-.1-1,0-1.8.1-1.9.1s-.2-.3,0-.4c1.2-.2,1.1-1,1.1-1.8V44.7c0-.4,0-.5-.4-.5h-1.9c-1.4,0-1.7.7-1.8,1.5,0,.2-.4.3-.4,0,0-.9.1-1.7.1-1.9s0-.4.6-.4c.3,0,.6.1.9.1Z"/><path class="a" d="M275,55c.2,0,.2.4,0,.4-.7,0-1.6-.1-2.4-.1-1,0-1.8.1-1.9.1s-.2-.3,0-.4c1.2-.2,1.1-1,1.1-1.8l-.2-6.6c0-.6-.2-.7-.4-.2l-3.8,8.5c-.2.4-.3.6-.6,0l-3.9-8.2c-.2-.4-.3-.3-.3.1l-.1,6.3c0,1.3,0,1.6,1.6,1.8.2,0,.2.4,0,.4h-3.5a.2.2,0,0,1,0-.4c1.2-.2,1.3-1,1.3-1.8l.2-7.3c0-1.5-.4-2-2-2.2-.2,0-.2-.4,0-.4h2.7c.4,0,.3,0,.4.2l4.2,8.7c.2.3.2.5.5-.1l3.7-8.2c.2-.5.2-.6.6-.6H274c.1,0,.3.3,0,.4-1.2.2-1,1-1,1.8l.3,7.7C273.18,54.5,273.38,54.8,275,55Z"/><path class="a" d="M298.68,47.6c0-.2.4-.2.4,0s-.1,1-.1,1.8.1,1.7.1,1.8a.2.2,0,1,1-.4,0c-.2-1.3-.6-1.3-1.7-1.5a8.6,8.6,0,0,0-1.6-.1c-.7,0-.8.1-.8.7v2.4c0,.6-.1,1.8.5,2a6.42,6.42,0,0,0,4.1-.4,4,4,0,0,0,1.5-1.4c.2-.2.3,0,.3.2a2.14,2.14,0,0,1-.9,1.8,3.47,3.47,0,0,1-2.8.6s-2.6-.2-3.3-.2c-1,0-1.8.1-1.9.1s-.3-.3,0-.4c1.2-.2,1.1-1,1.1-1.8V45.6c0-1.3-.2-1.6-1.8-1.8-.2,0-.2-.4,0-.4.7,0,1.6.1,2.4.1h4.3a16.18,16.18,0,0,0,1.8-.1v.2c0,.2-.1.5-.1.8s.1,1,.1,1.3-.3.3-.4,0c-.2-1.1-.5-1.8-2.3-1.8h-1.8c-.7,0-.8.1-.8.7v3.7c0,.5,0,.5.8.5h1.5C298,48.8,298.48,48.9,298.68,47.6Z"/><path class="a" d="M326.28,43.8c-.2,0-.2-.4,0-.4h3.6c.3,0,.3.3,0,.4-1.2.2-1.3,1-1.3,1.8v9.9c0,.3-.2.4-.4.1l-8.3-9.3c-.2-.3-.4-.2-.4.1v6.8c0,1.3,0,1.6,1.6,1.8.2,0,.2.4,0,.4h-3.5c-.2,0-.2-.3,0-.4,1.2-.2,1.3-1,1.3-1.8V46c0-1.5-.4-2-2-2.2-.2,0-.2-.4,0-.4h2.7c.4,0,.2,0,.4.2l7.6,8.8c.2.2.4.2.4-.3V45.5C327.88,44.3,327.88,44,326.28,43.8Z"/><path class="a" d="M355.28,43.5a2.77,2.77,0,0,0,.9-.1c.5,0,.6,0,.6.4a15.77,15.77,0,0,0,.1,1.9c0,.3-.4.2-.4,0-.1-.8-.4-1.5-1.8-1.5h-1.9c-.3,0-.4.2-.4.5v8.4c0,1.3.2,1.6,1.8,1.8.2,0,.2.4,0,.4-.7,0-1.6-.1-2.4-.1-1,0-1.8.1-1.9.1s-.2-.3,0-.4c1.2-.2,1.1-1,1.1-1.8V44.7c0-.4,0-.5-.4-.5h-1.9c-1.4,0-1.7.7-1.8,1.5,0,.2-.4.3-.4,0,0-.9.1-1.7.1-1.9s0-.4.6-.4c.3,0,.6.1.9.1Z"/><path class="a" d="M373.58,51.7c.7,1.7,1.1,2.7,2.9,3.2a3.47,3.47,0,0,0,2.8-.6,2.49,2.49,0,0,0,.7-2c-.2-1.1-1.2-1.5-2.3-2l-1-.4c-1.4-.5-2.6-1-2.9-2.7a3.33,3.33,0,0,1,.9-3,4.15,4.15,0,0,1,3.4-.9c1.3.4,1.8.7,2.1.2,0-.1.1-.1.2-.1s.1.1.1.2h0v1.3c0,.6.2,1.3.2,1.7,0,.1-.1.2-.2.1a.1.1,0,0,1-.1-.1c-.6-1.5-1.3-2.4-2.5-2.7a2.52,2.52,0,0,0-2.5.5,1.93,1.93,0,0,0-.6,1.8c.2,1.2,1.4,1.7,2.5,2.1l.8.3c1.7.7,2.9,1.2,3.1,3.1a3.4,3.4,0,0,1-1.3,3,5.61,5.61,0,0,1-5.6.3c-.8-.4-.9-.6-.9-.7V53.2c0-.5-.1-1.2-.1-1.4a.22.22,0,0,1,.2-.2C373.48,51.5,373.58,51.6,373.58,51.7Z"/></svg>