<?xml version="1.0" encoding="utf-8"?>
<!-- Generator: Adobe Illustrator 27.1.1, SVG Export Plug-In . SVG Version: 6.00 Build 0)  -->
<svg version="1.1" id="Layer_1" xmlns="http://www.w3.org/2000/svg" xmlns:xlink="http://www.w3.org/1999/xlink" x="0px" y="0px"
	 viewBox="0 0 60.1 47" style="enable-background:new 0 0 60.1 47;" xml:space="preserve">
<style type="text/css">
	.st0{fill:#FFBF00;}
	.st1{fill:#FFFFFF;}
	.st2{fill:#006400;}
</style>
<g>
	<path d="M42.6,11.4L42.6,11.4c0,0,0.1,0,0.2,0C42.7,11.4,42.6,11.4,42.6,11.4z"/>
	<path d="M43.1,11.4L43.1,11.4L43,11.5c0.2,0,0.5,0,0.7,0C43.6,11.4,43.2,11.5,43.1,11.4z"/>
	<path d="M44.2,11.7L44.2,11.7C44.3,11.7,44.3,11.7,44.2,11.7C44.3,11.6,44.4,11.6,44.2,11.7z"/>
	<path d="M44.2,11.7C44.2,11.7,44.3,11.7,44.2,11.7L44.2,11.7z"/>
	<path d="M44.5,11.6l0.2,0C44.7,11.5,44.7,11.5,44.5,11.6C44.7,11.5,44.6,11.6,44.5,11.6z"/>
	<path d="M44.4,11.5C44.2,11.5,44.2,11.6,44.4,11.5C44.4,11.5,44.3,11.5,44.4,11.5z"/>
	<path d="M43.8,11.4l-0.1,0l-0.1,0C43.6,11.4,43.8,11.4,43.8,11.4z"/>
	<path d="M45.5,11.7c0,0,0-0.1,0-0.1l-0.1,0C45.4,11.7,45.5,11.7,45.5,11.7z"/>
	<path d="M45.5,11.6l0.2,0C45.5,11.6,45.5,11.6,45.5,11.6z"/>
	<polygon points="44.8,11.4 44.5,11.5 44.9,11.4 	"/>
	<path d="M46,11.7L46,11.7l-0.1-0.1C45.9,11.6,46,11.7,46,11.7z"/>
	<path d="M46,11.6L46,11.6c0.1,0,0.1,0,0.1,0C46.1,11.6,46.1,11.6,46,11.6z"/>
	<path d="M45.3,11.3c-0.1,0,0,0.1-0.1,0.1C45.3,11.4,45.5,11.4,45.3,11.3z"/>
	<path d="M45.6,11.6l0.2,0L45.6,11.6C45.7,11.5,45.7,11.5,45.6,11.6z"/>
	<polygon points="45.9,11.5 45.8,11.5 45.9,11.5 	"/>
	<path d="M47.2,11.7L47.2,11.7L47.2,11.7C47.2,11.7,47.2,11.7,47.2,11.7L47.2,11.7C47.2,11.7,47.2,11.7,47.2,11.7
		C47.3,11.7,47.2,11.7,47.2,11.7L47.2,11.7L47.2,11.7l0.3,0C47.4,11.7,47.3,11.7,47.2,11.7c0.1-0.1,0.2-0.1,0.1-0.2
		c-0.2,0-0.1,0.1-0.3,0.1C47.4,11.6,47,11.6,47.2,11.7c0,0-0.1,0-0.2,0C47.1,11.7,47.1,11.7,47.2,11.7L47.2,11.7z"/>
	<path d="M45.5,11.2C45.5,11.2,45.5,11.2,45.5,11.2C45.6,11.2,45.6,11.2,45.5,11.2z"/>
	<path d="M45.5,11.3c0.1,0,0.3,0.1,0.3,0.1c0-0.1-0.1-0.1-0.2-0.2C45.6,11.3,45.6,11.3,45.5,11.3C45.5,11.2,45.5,11.2,45.5,11.3
		C45.5,11.2,45.4,11.3,45.5,11.3L45.5,11.3z"/>
	<path d="M46.6,11.4L46.6,11.4c-0.2,0-0.1,0.1-0.2,0.1c0.1,0,0.2,0,0.3,0L46.6,11.4z"/>
	<path d="M49.7,9.4C49.6,9.4,49.7,9.4,49.7,9.4L49.7,9.4z"/>
	<path d="M47.5,11.3C47.5,11.3,47.5,11.3,47.5,11.3L47.5,11.3C47.6,11.4,47.6,11.3,47.5,11.3z"/>
	<path d="M49.1,11.5c-0.1,0-0.1,0-0.2,0l0.1,0C49.1,11.5,49.1,11.5,49.1,11.5z"/>
	<path d="M51.1,11.4l0-0.1L51.1,11.4C51,11.4,51,11.4,51.1,11.4z"/>
	<path d="M51.6,11.2C51.6,11.2,51.4,11.3,51.6,11.2C51.6,11.3,51.9,11.2,51.6,11.2z"/>
	<path d="M48.5,11.6c0,0-0.1,0-0.1,0C48.4,11.6,48.4,11.6,48.5,11.6z"/>
	<polygon points="48.8,11.5 48.7,11.5 48.7,11.6 	"/>
	<path d="M49.4,11.4C49.4,11.4,49.4,11.4,49.4,11.4c0.1,0,0.2,0,0.2,0C49.6,11.4,49.5,11.4,49.4,11.4z"/>
	<path d="M51.6,11.5c0.1,0,0.1,0,0.2,0C51.8,11.5,51.8,11.5,51.6,11.5C51.6,11.5,51.6,11.5,51.6,11.5z"/>
	<path d="M18,15.1C18,15.1,18.1,15.1,18,15.1c0-0.1,0-0.1,0.1-0.1c0,0-0.1,0-0.1,0c0,0-0.2,0-0.3-0.1l0,0c0,0,0-0.1,0-0.1
		c0,0,0,0-0.1,0c0,0,0,0,0,0c0,0,0,0-0.1,0c0,0,0-0.1,0.1-0.1l0,0c-0.1,0-0.3,0.1-0.2,0.2c0,0-0.1,0-0.1,0c0,0-0.1,0-0.1,0.1
		c0.1,0,0.2,0.1,0.4,0.1C17.9,14.9,17.8,15,18,15.1C18,15.1,18,15.1,18,15.1z"/>
	<path d="M17.8,14.6c-0.1,0-0.2,0-0.2,0c0,0,0.1,0,0.1,0.1C17.7,14.7,17.7,14.7,17.8,14.6C17.8,14.6,17.8,14.6,17.8,14.6z"/>
	<path d="M17.7,14.8c0.1,0,0.1-0.1,0.1-0.1L17.7,14.8C17.7,14.7,17.7,14.7,17.7,14.8L17.7,14.8z"/>
	<path d="M18,14.8c0,0-0.1,0-0.1,0C17.9,14.9,17.9,14.9,18,14.8z"/>
	<path d="M18.1,15.2c0.1,0,0.1,0,0.1,0c0,0,0,0,0,0l0,0c0,0,0-0.1,0-0.1l-0.1-0.1c0,0,0,0,0,0C18.1,15,18.1,15.1,18.1,15.2
		C18.1,15.2,18.1,15.2,18.1,15.2z"/>
	<path d="M8.4,14.4C8.4,14.4,8.4,14.4,8.4,14.4C8.4,14.4,8.4,14.4,8.4,14.4C8.4,14.4,8.4,14.4,8.4,14.4C8.4,14.4,8.4,14.4,8.4,14.4
		L8.4,14.4L8.4,14.4C8.4,14.4,8.4,14.4,8.4,14.4z"/>
	<path d="M18.2,15C18.2,15,18.2,15,18.2,15C18.2,15,18.2,15,18.2,15C18.2,15,18.2,15,18.2,15L18.2,15C18.2,15,18.2,15,18.2,15
		L18.2,15C18.2,15.1,18.2,15,18.2,15z"/>
	<polygon points="18.3,15.1 18.3,15.1 18.2,15.1 18.2,15.1 	"/>
	<path d="M8.4,14.4L8.4,14.4C8.4,14.4,8.4,14.4,8.4,14.4C8.4,14.4,8.4,14.4,8.4,14.4z"/>
	<path d="M18,21.8C18,21.8,18,21.8,18,21.8L18,21.8z"/>
	<path d="M15.4,14.9C15.4,14.9,15.4,14.9,15.4,14.9C15.3,14.9,15.3,14.9,15.4,14.9C15.4,14.9,15.4,14.9,15.4,14.9
		C15.4,14.9,15.4,14.9,15.4,14.9C15.4,14.9,15.4,14.9,15.4,14.9C15.4,14.9,15.4,14.9,15.4,14.9z"/>
	<path d="M15.4,15c0,0,0.1,0.1,0.1,0.1c0,0,0,0,0.1,0c0,0-0.1,0-0.1-0.1C15.4,14.8,15.4,15,15.4,15z"/>
	<path d="M16.7,14.9C16.6,14.8,16.6,14.8,16.7,14.9c-0.1,0-0.1,0-0.1,0c0.1,0,0.1,0,0.2,0c0,0,0.1,0,0.1,0c0,0,0,0,0,0
		C16.8,14.9,16.7,14.9,16.7,14.9z"/>
	<path d="M15.4,14.8C15.4,14.8,15.4,14.8,15.4,14.8C15.4,14.8,15.4,14.8,15.4,14.8C15.4,14.8,15.4,14.8,15.4,14.8z"/>
	<path d="M15.4,14.9C15.4,14.9,15.4,14.9,15.4,14.9C15.4,14.8,15.4,14.8,15.4,14.9C15.4,14.8,15.4,14.9,15.4,14.9z"/>
	<path d="M22.7,11.1C22.7,11.1,22.7,11.1,22.7,11.1C22.7,11.2,22.6,11.3,22.7,11.1z"/>
	<path d="M22.7,11.1C22.7,11.1,22.7,11.1,22.7,11.1L22.7,11.1C22.7,11.1,22.7,11.1,22.7,11.1z"/>
	<polygon points="16.8,28.2 16.8,28.2 16.8,28.2 	"/>
	<path d="M21.8,8.7C21.9,8.7,21.9,8.7,21.8,8.7C21.9,8.7,21.9,8.7,21.8,8.7C21.8,8.7,21.8,8.7,21.8,8.7C21.8,8.7,21.8,8.7,21.8,8.7z
		"/>
	<path d="M26.2,8L26.2,8L26.2,8L26.2,8C26.2,8,26.2,8,26.2,8L26.2,8z"/>
	<polygon points="22.7,11.1 22.7,11.1 22.7,11.1 22.7,11.1 	"/>
	<path d="M26.2,8C26.2,8,26.2,8,26.2,8C26.2,8,26.2,8,26.2,8C26.2,8,26.2,8,26.2,8C26.2,8,26.2,8.1,26.2,8L26.2,8
		C26.3,8.1,26.3,8.1,26.2,8c0.1,0.1,0.1,0.1,0.1,0.1C26.2,8,26.2,8,26.2,8L26.2,8C26.2,8,26.2,8,26.2,8L26.2,8L26.2,8L26.2,8L26.2,8
		L26.2,8C26.2,8,26.2,8,26.2,8C26.2,8,26.2,8,26.2,8C26.2,8,26.2,8,26.2,8C26.2,8,26.2,8,26.2,8L26.2,8C26.2,8,26.2,8,26.2,8z"/>
	<path d="M26.1,7.9C26.1,7.9,26.1,8,26.1,7.9C26.2,8,26.2,7.9,26.1,7.9z"/>
	<path d="M16.9,28.2C16.8,28.2,16.8,28.2,16.9,28.2L16.9,28.2L16.9,28.2z"/>
	<path d="M18.3,15C18.3,15,18.3,15,18.3,15L18.3,15C18.2,15,18.2,15,18.3,15L18.3,15z"/>
	<path d="M18.1,14.8C18.1,14.8,18.1,14.8,18.1,14.8l0.1,0.1c0,0,0,0,0,0L18.1,14.8z"/>
	<path d="M18.3,15C18.2,15,18.2,15,18.3,15L18.3,15C18.3,15,18.3,15,18.3,15z"/>
	<polygon points="18.1,14.9 18.1,14.9 18.2,14.9 18.2,14.9 	"/>
	<path d="M16.9,28.2C16.9,28.2,16.9,28.2,16.9,28.2C16.9,28.2,16.9,28.3,16.9,28.2z"/>
	<path d="M21,22.3C21,22.3,21,22.2,21,22.3L21,22.3z"/>
	<path d="M18.9,18.4C18.9,18.4,18.9,18.4,18.9,18.4c0-0.1,0-0.2,0-0.2l-0.1,0C18.9,18.3,18.9,18.4,18.9,18.4z"/>
	<path d="M15.3,14.9C15.3,14.9,15.3,14.9,15.3,14.9L15.3,14.9C15.3,14.8,15.3,14.8,15.3,14.9C15.3,14.8,15.3,14.9,15.3,14.9z"/>
	<polygon points="27.5,22.5 27.5,22.5 27.5,22.5 	"/>
	<path d="M33.3,22.7C33.3,22.6,33.3,22.6,33.3,22.7L33.3,22.7z"/>
	<path d="M32.8,24.1C32.8,24.1,32.8,24.1,32.8,24.1C32.8,24.1,32.8,24.1,32.8,24.1C32.8,24.1,32.8,24.1,32.8,24.1z"/>
	<polygon points="32.8,24.2 32.8,24.2 32.8,24.2 	"/>
	<path d="M32.8,24.2C32.8,24.2,32.8,24.2,32.8,24.2L32.8,24.2L32.8,24.2z"/>
	<path d="M32.8,24.1C32.8,24.1,32.8,24.1,32.8,24.1C32.8,24.1,32.8,24.1,32.8,24.1z"/>
	<path d="M32.8,24.1L32.8,24.1C32.8,24.2,32.8,24.2,32.8,24.1z"/>
	<path d="M32,20.1C32.1,20.1,32.1,20.1,32,20.1c0.1-0.1,0.1-0.1,0.1-0.2L32,20C32.1,20,32.1,20.1,32,20.1z"/>
	<path d="M30.7,17.5c-0.1,0-0.1,0-0.1-0.1c0,0,0,0.1,0,0.1C30.6,17.6,30.7,17.6,30.7,17.5C30.7,17.6,30.7,17.5,30.7,17.5z"/>
	<path d="M29.7,24C29.7,24,29.6,24,29.7,24C29.7,24,29.7,24,29.7,24C29.7,24,29.7,24,29.7,24C29.7,24,29.7,24,29.7,24z"/>
	<path d="M30.6,17.7C30.7,17.6,30.7,17.6,30.6,17.7L30.6,17.7C30.7,17.6,30.6,17.6,30.6,17.7L30.6,17.7z"/>
	<path d="M29.1,24.1c0.1,0,0.1,0,0.3-0.1c0,0-0.1,0-0.1,0C29.2,24,29.2,24,29.1,24.1z"/>
	<path d="M29.5,24c0.1,0,0.1,0,0.1,0c0,0,0,0,0,0C29.6,24,29.5,24,29.5,24L29.5,24z"/>
	<path d="M32.8,24.1C32.8,24.1,32.8,24.1,32.8,24.1C32.8,24.1,32.8,24.1,32.8,24.1C32.8,24.1,32.8,24.1,32.8,24.1
		C32.8,24.1,32.8,24.1,32.8,24.1C32.8,24.1,32.8,24.1,32.8,24.1C32.8,24.1,32.8,24.1,32.8,24.1C32.8,24.1,32.8,24.1,32.8,24.1
		C32.8,24.1,32.8,24.1,32.8,24.1c0-0.1,0-0.1,0-0.1c0,0,0,0,0,0c0,0,0,0,0,0l0,0l0,0l0,0l0,0l0,0l0,0c0,0,0,0,0,0
		C32.7,24,32.7,24.1,32.8,24.1L32.8,24.1L32.8,24.1C32.7,24.1,32.7,24.1,32.8,24.1L32.8,24.1L32.8,24.1
		C32.7,24.1,32.7,24.1,32.8,24.1C32.7,24.1,32.7,24.1,32.8,24.1L32.8,24.1C32.7,24.1,32.7,24.1,32.8,24.1
		C32.7,24.1,32.8,24.1,32.8,24.1C32.8,24.1,32.8,24.1,32.8,24.1L32.8,24.1C32.8,24.1,32.8,24.1,32.8,24.1
		C32.8,24.1,32.8,24.1,32.8,24.1C32.8,24.1,32.8,24.1,32.8,24.1C32.8,24.1,32.8,24.1,32.8,24.1z"/>
	<path d="M32.8,24.1C32.8,24.1,32.8,24.1,32.8,24.1C32.8,24.1,32.8,24.1,32.8,24.1C32.8,24.1,32.8,24.1,32.8,24.1
		C32.8,24.1,32.8,24.1,32.8,24.1C32.8,24.1,32.8,24.1,32.8,24.1z"/>
	<path d="M32.8,24.1C32.8,24.1,32.8,24.1,32.8,24.1C32.8,24.1,32.8,24.1,32.8,24.1C32.8,24.1,32.8,24.1,32.8,24.1z"/>
	<polygon points="32.7,24 32.7,24 32.7,24 32.7,24 	"/>
	<path d="M22.6,24.1C22.6,24.1,22.6,24.1,22.6,24.1C22.6,24.1,22.6,24.1,22.6,24.1C22.6,24.1,22.6,24.1,22.6,24.1z"/>
	<path d="M32.8,24.1C32.8,24.1,32.8,24.1,32.8,24.1C32.8,24.1,32.8,24.1,32.8,24.1C32.8,24.1,32.8,24.1,32.8,24.1
		C32.8,24.1,32.8,24.1,32.8,24.1z"/>
	<polygon points="32.8,24.1 32.8,24.1 32.8,24.1 32.8,24.1 	"/>
	<path d="M22.6,24.1C22.6,24.1,22.6,24.1,22.6,24.1C22.6,24.1,22.6,24.1,22.6,24.1C22.6,24.1,22.5,24.1,22.6,24.1z"/>
	<path d="M32.8,24.1C32.8,24.1,32.8,24.1,32.8,24.1C32.8,24.1,32.8,24.1,32.8,24.1C32.8,24.1,32.8,24.1,32.8,24.1
		C32.8,24.1,32.8,24.1,32.8,24.1z"/>
	<polygon points="32.8,24.1 32.7,24.1 32.7,24.1 32.7,24.1 	"/>
	<polygon points="32.7,24.1 32.7,24.1 32.7,24.1 	"/>
	<path d="M22.6,24.2C22.6,24.2,22.6,24.2,22.6,24.2C22.5,24.2,22.5,24.2,22.6,24.2z"/>
	<polygon points="32.7,24 32.7,24 32.7,24 	"/>
	<rect x="32.7" y="24" transform="matrix(0.9567 -0.2912 0.2912 0.9567 -5.5659 10.5671)" width="0" height="0"/>
	<polygon points="32.7,24 32.7,24 32.7,24 32.7,24 32.7,24 	"/>
	<polygon points="28.9,24.1 28.9,24.1 28.9,24.1 	"/>
	<polygon points="52.9,14.7 52.9,14.7 52.9,14.7 52.9,14.7 52.9,14.7 52.9,14.7 52.9,14.7 52.9,14.7 	"/>
	<polygon points="52.9,14.7 52.9,14.7 52.9,14.7 	"/>
	<path d="M52.1,14.5C52.1,14.5,52.1,14.5,52.1,14.5L52.1,14.5L52.1,14.5L52.1,14.5L52.1,14.5C52.1,14.5,52.1,14.5,52.1,14.5
		L52.1,14.5z"/>
	<path d="M52.1,14.5C52.1,14.5,52.1,14.5,52.1,14.5C52.1,14.5,52.1,14.5,52.1,14.5C52.1,14.5,52.1,14.5,52.1,14.5
		C52.1,14.5,52.1,14.5,52.1,14.5z"/>
	<polygon points="52.9,14.7 52.9,14.7 52.9,14.7 	"/>
	<path d="M52.1,14.5C52.1,14.5,52.1,14.5,52.1,14.5C52.1,14.5,52.1,14.6,52.1,14.5C52.1,14.6,52.1,14.6,52.1,14.5
		C52.1,14.6,52.1,14.6,52.1,14.5L52.1,14.5L52.1,14.5C52.1,14.5,52.1,14.5,52.1,14.5z"/>
	<polygon points="52.1,14.6 52.1,14.6 52.1,14.6 	"/>
	<path d="M8.4,14.3L8.4,14.3C8.4,14.3,8.4,14.3,8.4,14.3L8.4,14.3L8.4,14.3L8.4,14.3L8.4,14.3C8.4,14.3,8.4,14.3,8.4,14.3z"/>
	<polygon points="52.9,14.7 52.9,14.7 52.9,14.7 	"/>
	<polygon points="52.9,14.7 52.9,14.7 52.9,14.7 52.9,14.7 52.9,14.7 52.9,14.7 52.9,14.7 52.9,14.7 	"/>
	<path d="M52.9,14.5C52.8,14.4,52.8,14.5,52.9,14.5C52.9,14.6,52.9,14.6,52.9,14.5C52.9,14.5,52.9,14.5,52.9,14.5z"/>
	<polygon points="52.9,14.7 52.9,14.7 52.9,14.7 	"/>
	<path d="M52.9,14.7C52.9,14.7,52.9,14.7,52.9,14.7C52.9,14.7,52.9,14.7,52.9,14.7C52.9,14.7,52.9,14.7,52.9,14.7
		C52.9,14.7,52.9,14.7,52.9,14.7z"/>
	<polygon points="52.9,14.7 52.9,14.7 52.9,14.7 52.9,14.7 	"/>
	<path d="M52.9,14.7C52.9,14.7,52.9,14.7,52.9,14.7L52.9,14.7C52.9,14.7,52.9,14.7,52.9,14.7L52.9,14.7z"/>
	<path d="M52.9,14.7C52.9,14.7,52.9,14.7,52.9,14.7C52.9,14.7,52.9,14.7,52.9,14.7L52.9,14.7C52.9,14.7,52.9,14.7,52.9,14.7z"/>
	<polygon points="52.9,14.7 52.9,14.7 52.9,14.7 52.9,14.7 52.9,14.7 	"/>
	<path d="M12.9,11.8c0,0,0.1,0,0.2-0.1c0,0,0,0,0,0c-0.2,0-0.2,0-0.3-0.1C12.8,11.8,12.9,11.8,12.9,11.8z"/>
	<path d="M53.8,14.5C53.8,14.5,53.8,14.5,53.8,14.5C53.8,14.5,53.8,14.6,53.8,14.5C53.8,14.6,53.8,14.6,53.8,14.5
		C53.8,14.6,53.8,14.6,53.8,14.5z"/>
	<path d="M32.3,27c-0.1,0,0,0-0.2,0c0,0,0,0,0,0c0.1,0.1,0.2,0.2,0.3,0.2c0,0,0.1,0,0.1,0C32.4,27.1,32.4,27.1,32.3,27
		C32.3,27,32.3,27,32.3,27z"/>
	<path d="M18.7,32.6c0,0,0.1,0,0.1-0.1C18.8,32.6,18.7,32.6,18.7,32.6C18.6,32.5,18.7,32.6,18.7,32.6z"/>
	<path d="M47.3,11.8c0,0-0.1,0-0.1,0C47.2,11.8,47.3,11.8,47.3,11.8C47.3,11.8,47.3,11.8,47.3,11.8C47.3,11.8,47.3,11.8,47.3,11.8
		c0.1,0.1,0.3,0.2,0.4,0.2c0.1,0,0.2-0.1,0.3-0.1c0,0,0.1,0,0.1,0c0,0,0.1,0,0.1,0c0,0,0,0,0,0c0,0,0,0,0-0.1c0,0,0,0-0.1,0
		c0,0,0,0,0,0l0,0l-0.1,0c0,0,0,0,0.1,0c0,0,0,0,0.1,0c0,0,0,0,0,0c0,0,0-0.1-0.1-0.1c0,0,0,0,0,0c-0.1,0-0.4-0.1-0.2-0.2
		c0.2,0,0.2,0,0.3,0.1c-0.1-0.1,0.3-0.1,0.3-0.2c-0.1,0-0.1,0-0.2,0c0,0,0.1,0,0-0.1c0,0.1-0.2,0.1-0.4,0c-0.1,0-0.1,0.2,0,0.3
		c-0.1,0-0.1,0.1-0.3,0.1l0,0c0,0,0,0,0,0C47.4,11.7,47.4,11.7,47.3,11.8z M47.9,11.8c-0.1,0-0.1,0.1-0.2,0.1
		C47.8,11.9,47.9,11.8,47.9,11.8L47.9,11.8z"/>
	<path d="M53.8,14.4C53.8,14.4,53.8,14.4,53.8,14.4C53.8,14.4,53.8,14.4,53.8,14.4C53.8,14.4,53.8,14.4,53.8,14.4c0-0.1,0-0.1,0-0.1
		c0,0-0.1,0-0.1,0C53.8,14.3,53.8,14.3,53.8,14.4C53.8,14.3,53.8,14.3,53.8,14.4L53.8,14.4l-0.1,0C53.7,14.4,53.7,14.4,53.8,14.4
		C53.8,14.4,53.8,14.4,53.8,14.4z"/>
	<path d="M53.7,14.3C53.7,14.3,53.7,14.3,53.7,14.3C53.7,14.3,53.7,14.3,53.7,14.3z"/>
	<path d="M7.5,11.8c0,0,0.1,0.1,0.4,0c0,0,0,0,0,0c-0.2,0-0.2-0.1-0.4-0.1c0,0-0.1,0-0.1,0C7.4,11.7,7.4,11.7,7.5,11.8
		C7.6,11.8,7.5,11.8,7.5,11.8z"/>
	<path d="M53.8,14.5L53.8,14.5C53.8,14.4,53.8,14.4,53.8,14.5C53.8,14.4,53.7,14.4,53.8,14.5L53.8,14.5
		C53.7,14.4,53.7,14.4,53.8,14.5C53.7,14.4,53.7,14.4,53.8,14.5C53.7,14.4,53.7,14.5,53.8,14.5C53.8,14.5,53.8,14.5,53.8,14.5z"/>
	<path d="M53.8,14.6C53.8,14.6,53.8,14.6,53.8,14.6c0,0,0-0.1,0-0.1C53.8,14.5,53.8,14.5,53.8,14.6C53.8,14.5,53.8,14.5,53.8,14.6
		C53.8,14.5,53.8,14.5,53.8,14.6C53.8,14.6,53.8,14.6,53.8,14.6z"/>
	<path d="M51.3,14.5C51.3,14.5,51.3,14.5,51.3,14.5c0-0.1-0.1-0.2-0.2-0.2l0,0C51.2,14.4,51.2,14.4,51.3,14.5z"/>
	<path d="M51.4,14.6C51.4,14.6,51.4,14.6,51.4,14.6C51.4,14.5,51.3,14.5,51.4,14.6c-0.1-0.1-0.1,0-0.1,0
		C51.3,14.6,51.3,14.6,51.4,14.6C51.3,14.7,51.3,14.7,51.4,14.6L51.4,14.6L51.4,14.6L51.4,14.6L51.4,14.6z"/>
	<path d="M50.3,14.9C50.2,14.9,50.3,14.8,50.3,14.9c-0.1,0-0.1,0.1-0.2,0.1c0,0,0,0-0.1,0.1c0.1,0,0.1,0.1,0.2,0.1
		c0.1,0,0.2-0.1,0.2-0.2c0,0-0.1,0-0.1,0C50.3,14.8,50.3,14.8,50.3,14.9z"/>
	<path d="M50.9,14.5c-0.1,0-0.2,0.2-0.3,0.2c0,0,0.1,0,0.1,0c0.1,0.1,0.1,0.2,0.3,0.2c0.1,0,0.2-0.1,0.3-0.2c0,0-0.1,0-0.1,0
		C51.1,14.7,51.1,14.5,50.9,14.5z"/>
	<path d="M52.1,14.6L52.1,14.6C52.1,14.6,52.1,14.5,52.1,14.6C52.1,14.5,52.1,14.5,52.1,14.6z"/>
	<polygon points="7.6,14.5 7.6,14.5 7.6,14.5 7.6,14.5 7.6,14.5 7.6,14.5 7.6,14.5 7.6,14.5 	"/>
	<polygon points="7.6,14.5 7.6,14.5 7.6,14.5 7.6,14.5 	"/>
	<polygon points="7.6,14.5 7.6,14.5 7.6,14.5 	"/>
	<polygon points="7.6,14.5 7.6,14.5 7.6,14.5 	"/>
	<polygon points="7.6,14.5 7.6,14.5 7.6,14.5 7.6,14.5 7.6,14.5 7.6,14.5 7.6,14.5 7.6,14.5 	"/>
	<path d="M7.6,14.4C7.6,14.4,7.5,14.4,7.6,14.4C7.5,14.4,7.6,14.4,7.6,14.4C7.6,14.4,7.6,14.4,7.6,14.4z"/>
	<path d="M7.5,14.4C7.6,14.4,7.6,14.4,7.5,14.4C7.6,14.4,7.6,14.4,7.5,14.4C7.6,14.4,7.5,14.4,7.5,14.4L7.5,14.4L7.5,14.4L7.5,14.4
		L7.5,14.4L7.5,14.4L7.5,14.4L7.5,14.4C7.6,14.5,7.6,14.5,7.5,14.4C7.5,14.4,7.5,14.4,7.5,14.4z"/>
	<path d="M52.9,14.6C52.9,14.6,53,14.6,52.9,14.6C52.9,14.6,52.9,14.6,52.9,14.6C52.9,14.6,52.9,14.6,52.9,14.6z"/>
	<polygon points="7.6,14.5 7.6,14.5 7.6,14.5 7.6,14.5 7.6,14.5 	"/>
	<polygon points="7.5,14.4 7.5,14.4 7.5,14.4 7.5,14.4 7.5,14.4 7.5,14.4 7.5,14.4 7.5,14.4 7.5,14.4 7.5,14.4 	"/>
	<path d="M7.6,14.4C7.6,14.4,7.6,14.4,7.6,14.4C7.6,14.3,7.7,14.3,7.6,14.4C7.6,14.3,7.6,14.3,7.6,14.4z"/>
	<path d="M7.6,14.5C7.6,14.5,7.6,14.5,7.6,14.5C7.6,14.5,7.6,14.5,7.6,14.5C7.6,14.5,7.6,14.5,7.6,14.5C7.6,14.5,7.6,14.5,7.6,14.5z
		"/>
	<polygon points="7.6,14.5 7.6,14.5 7.6,14.5 	"/>
	<path d="M7.6,14.5C7.6,14.5,7.6,14.5,7.6,14.5L7.6,14.5C7.6,14.5,7.6,14.5,7.6,14.5C7.6,14.5,7.6,14.5,7.6,14.5z"/>
	<polygon points="7.6,14.5 7.6,14.5 7.6,14.5 	"/>
	<path d="M7.6,14.5L7.6,14.5C7.6,14.5,7.6,14.5,7.6,14.5L7.6,14.5C7.6,14.5,7.6,14.5,7.6,14.5z"/>
	<path d="M6.7,14.4C6.7,14.4,6.7,14.4,6.7,14.4C6.7,14.4,6.7,14.4,6.7,14.4C6.7,14.4,6.7,14.4,6.7,14.4C6.7,14.4,6.7,14.4,6.7,14.4z
		"/>
	<polygon points="6.6,14.4 6.6,14.4 6.6,14.4 	"/>
	<polygon points="6.5,14.3 6.5,14.3 6.5,14.3 	"/>
	<path d="M6.5,14.4C6.5,14.4,6.6,14.4,6.5,14.4C6.6,14.4,6.5,14.4,6.5,14.4C6.5,14.4,6.5,14.4,6.5,14.4L6.5,14.4z"/>
	<path d="M6.5,14.3c0,0,0-0.1,0-0.1c0,0,0,0,0,0L6.5,14.3L6.5,14.3L6.5,14.3L6.5,14.3L6.5,14.3L6.5,14.3z"/>
	<path d="M53,14.6L53,14.6L53,14.6L53,14.6C52.9,14.6,52.9,14.6,53,14.6C52.9,14.6,52.9,14.6,53,14.6C52.9,14.6,52.9,14.6,53,14.6
		C53,14.6,53,14.6,53,14.6C52.9,14.6,52.9,14.6,53,14.6L53,14.6L53,14.6L53,14.6L53,14.6z"/>
	<polygon points="8.4,14.4 8.4,14.4 8.4,14.4 	"/>
	<polygon points="53,14.6 53,14.6 53,14.6 53,14.6 53,14.6 53,14.6 53,14.6 53,14.6 53,14.6 53,14.6 	"/>
	<path d="M6.8,14.1C6.8,14.1,6.8,14.1,6.8,14.1C6.8,14.1,6.8,14.1,6.8,14.1z"/>
	<path d="M6.7,14.2C6.7,14.1,6.7,14.1,6.7,14.2C6.7,14.1,6.7,14.1,6.7,14.2c-0.1-0.1-0.1,0-0.1,0c0,0,0,0.1,0,0.1
		C6.6,14.2,6.6,14.2,6.7,14.2C6.7,14.2,6.7,14.2,6.7,14.2C6.7,14.2,6.7,14.2,6.7,14.2C6.7,14.2,6.7,14.2,6.7,14.2
		C6.8,14.2,6.8,14.2,6.7,14.2L6.7,14.2L6.7,14.2z"/>
	<path d="M8.4,14.3C8.4,14.3,8.4,14.3,8.4,14.3C8.4,14.4,8.4,14.3,8.4,14.3C8.4,14.3,8.4,14.3,8.4,14.3C8.4,14.3,8.4,14.3,8.4,14.3z
		"/>
	<path d="M6.6,14.1C6.6,14.1,6.6,14.1,6.6,14.1C6.6,14.1,6.6,14.1,6.6,14.1c-0.1,0-0.1,0-0.1,0c0,0,0,0.1,0,0.1l0,0l0,0L6.6,14.1
		C6.6,14.2,6.6,14.2,6.6,14.1C6.6,14.2,6.6,14.2,6.6,14.1C6.6,14.2,6.6,14.2,6.6,14.1z"/>
	<path d="M6.6,14.2C6.6,14.2,6.6,14.2,6.6,14.2C6.6,14.2,6.6,14.2,6.6,14.2C6.6,14.2,6.6,14.2,6.6,14.2z"/>
	<path d="M6.5,14.3C6.5,14.3,6.5,14.3,6.5,14.3L6.5,14.3L6.5,14.3z"/>
	<path d="M6.8,14.2L6.8,14.2c0,0-0.1,0-0.1,0C6.7,14.2,6.7,14.3,6.8,14.2L6.8,14.2C6.7,14.3,6.7,14.3,6.8,14.2
		C6.8,14.3,6.8,14.3,6.8,14.2C6.8,14.3,6.8,14.3,6.8,14.2C6.8,14.2,6.8,14.2,6.8,14.2z"/>
	<path d="M40.7,31.9C40.6,31.9,40.6,31.9,40.7,31.9C40.6,31.9,40.6,31.9,40.7,31.9C40.6,31.9,40.6,31.9,40.7,31.9z"/>
	<polygon points="41.5,24.2 41.5,24.2 41.5,24.2 	"/>
	<path d="M41.5,24.2C41.4,24.2,41.4,24.2,41.5,24.2L41.5,24.2L41.5,24.2z"/>
	<path d="M41.4,24.2C41.4,24.2,41.4,24.2,41.4,24.2C41.5,24.2,41.5,24.1,41.4,24.2z"/>
	<path d="M38.8,31.8C38.8,31.8,38.8,31.8,38.8,31.8L38.8,31.8L38.8,31.8z"/>
	<path d="M38.8,31.8C38.8,31.8,38.8,31.8,38.8,31.8C38.8,31.8,38.9,31.8,38.8,31.8z"/>
	<path d="M23.5,10.3C23.5,10.3,23.5,10.3,23.5,10.3C23.5,10.3,23.5,10.3,23.5,10.3z"/>
	<path d="M53.9,11.9C53.9,11.9,53.8,11.9,53.9,11.9C53.9,11.8,53.8,11.8,53.9,11.9C53.8,11.8,53.8,11.8,53.9,11.9
		c-0.1-0.1-0.2-0.1-0.3-0.1c0,0,0,0,0-0.1c0,0-0.1,0-0.1,0l-0.1,0c0,0-0.1,0-0.1,0c-0.1,0-0.1,0,0,0c0,0,0.1,0,0.2,0c0,0,0,0,0,0
		c0.1,0,0.1,0,0,0c0,0-0.2,0,0,0c0,0,0.1,0,0.1,0c0,0,0,0,0-0.1c-0.1-0.2-0.3,0-0.5,0c-0.2,0-0.2-0.1-0.4-0.1
		c-0.2,0-0.2,0.2-0.4,0.2c-0.2,0-0.2-0.1-0.4-0.1c-0.2,0-0.2,0-0.4,0c-0.2,0-0.2,0.1-0.4,0.1c-0.2,0-0.2,0-0.4,0c-0.2,0-0.2,0-0.4,0
		c-0.1,0-0.2,0-0.2,0c0,0,0,0-0.1,0c0,0,0,0,0,0c0,0,0,0,0,0c-0.1,0-0.1,0-0.2,0c0,0,0,0,0,0c0,0,0,0,0,0c0,0-0.1,0-0.2,0
		c-0.2,0-0.2-0.2-0.4-0.2c-0.2,0-0.2,0-0.4,0c0,0-0.1,0-0.2-0.1c0,0,0,0,0,0c0,0,0,0.1,0.1,0.1c-0.1,0.1-0.1,0.2-0.3,0.2
		c0,0,0,0,0,0c0,0-0.1,0-0.1-0.1l0,0c0,0,0,0,0,0l0,0.1c0,0,0,0,0,0c0,0-0.1,0-0.1,0c0,0-0.1,0-0.1,0c0,0-0.2,0.1-0.3,0.1
		c-0.1,0-0.3-0.1-0.3-0.1c0,0-0.1-0.1-0.1,0c0,0,0,0,0,0c0,0,0,0,0,0c0,0,0,0-0.1,0c-0.2,0-0.2,0-0.3,0c0,0,0,0,0,0c0,0,0,0-0.1,0
		c0.1-0.1,0.2-0.1,0.3-0.1c0,0-0.1,0-0.1-0.1c0,0,0.1,0,0.1,0c-0.1,0-0.1,0-0.2,0c0,0-0.1,0-0.1,0c-0.2,0-0.2,0-0.4,0
		c-0.2,0-0.2,0.2-0.4,0.2c-0.2,0-0.2,0-0.4,0c0,0,0,0,0,0c-0.1,0-0.2,0.1-0.3,0.1c-0.1,0-0.1,0-0.2,0.1c0,0,0,0,0,0c0,0,0.1,0,0.2,0
		c0.1,0,0.2,0,0.2-0.1c-0.2,0-0.2-0.1-0.4-0.1c-0.2,0-0.2,0-0.4,0c0,0,0,0,0,0c0,0,0,0-0.1-0.1l-0.2,0c0,0,0.1,0,0.1,0
		c-0.1,0-0.1,0.1-0.3,0.1c-0.2,0-0.2-0.1-0.4-0.1c-0.2,0-0.2,0.2-0.4,0.2c-0.2,0-0.2-0.2-0.4-0.2c-0.2,0-0.2,0-0.4,0
		c-0.2,0-0.2,0-0.4,0c-0.2,0-0.2-0.1-0.4-0.1c-0.2,0-0.2-0.1-0.4-0.1c-0.2,0-0.2,0.1-0.3,0.1c0-0.1,0-0.2-0.1-0.3
		c-0.1-0.2-0.2-0.3-0.3-0.5c0,0,0,0,0,0c0-0.1-0.1-0.1-0.1-0.2c-0.1-0.2-0.3-0.2-0.3-0.4c-0.1-0.1-0.2-0.3-0.3-0.4
		c-0.1-0.1-0.2-0.3-0.3-0.5c-0.1-0.1-0.2-0.2-0.3-0.4c-0.1-0.1-0.2-0.2-0.3-0.3c0,0,0,0,0,0c0-0.1-0.1-0.2-0.1-0.3
		C39,8.3,39,8.2,39,8.2c-0.1-0.1-0.3,0-0.4-0.1c0,0,0,0,0,0c0-0.1-0.1-0.2-0.1-0.3c0-0.1-0.1-0.1-0.1-0.2c-0.1-0.1-0.3-0.1-0.4-0.2
		c-0.1-0.1-0.2-0.2-0.3-0.3c-0.1-0.1-0.3-0.1-0.4-0.1C37,6.8,37,6.5,36.8,6.4c-0.1-0.1-0.3,0-0.4-0.1C36.3,6.2,36.2,6,36.1,6
		c-0.1-0.1-0.2-0.2-0.4-0.2c-0.1-0.1-0.3,0-0.4,0c-0.1-0.1-0.3-0.1-0.4-0.1c-0.1-0.1-0.2-0.2-0.4-0.2c-0.1,0-0.3,0-0.4,0
		C34,5.3,33.9,5,33.7,5c-0.1,0-0.3,0-0.4-0.1C33.2,4.9,33,5,32.9,5c-0.1,0-0.3-0.1-0.4-0.2c-0.1,0-0.3,0-0.4,0
		c-0.1,0-0.3-0.3-0.4-0.3c-0.1,0-0.3,0.2-0.4,0.2c-0.1,0-0.3-0.3-0.4-0.4c-0.1,0-0.3,0.1-0.4,0.1c-0.1,0-0.3,0.1-0.4,0.1
		c-0.1,0-0.3,0-0.4,0c-0.1,0-0.3,0.1-0.4,0.1c-0.1,0-0.3-0.1-0.4,0c-0.1,0-0.3-0.1-0.4-0.1c-0.1,0-0.3,0-0.4,0.1
		c-0.1,0-0.3,0.2-0.4,0.2c-0.1,0-0.3-0.1-0.4-0.1c0,0-0.1,0-0.1,0.1C27,4.8,27,5,26.9,5c0,0,0,0,0,0c-0.1,0-0.3,0-0.4,0.1
		c-0.1,0-0.3,0.1-0.4,0.1c-0.1,0-0.3,0-0.4,0c0,0-0.1,0.1-0.1,0.1c0,0,0,0,0,0c-0.1,0-0.2,0.1-0.2,0.2c-0.1,0.1-0.3,0.1-0.4,0.1
		c-0.1,0.1-0.3,0-0.4,0.1c-0.1,0.1-0.2,0.1-0.3,0.2c0,0,0,0,0,0C24,6,23.8,6.1,23.7,6.2c0,0,0,0,0,0c0,0-0.1,0-0.1,0.1
		c-0.1,0.1-0.2,0.3-0.3,0.4c-0.1,0-0.1,0.1-0.2,0.1c0,0,0,0,0,0c-0.1,0-0.1,0.1-0.2,0.1c-0.1,0.1-0.2,0.2-0.3,0.3
		c-0.1,0-0.2,0.1-0.3,0.1c0,0-0.1,0.1-0.1,0.1c0,0-0.1,0-0.1,0.1c-0.1,0.1-0.2,0.2-0.4,0.3c-0.1,0.1-0.2,0.4-0.3,0.5
		c-0.1,0-0.1,0.1-0.2,0.1c0,0,0,0,0,0c-0.1,0-0.1,0.1-0.2,0.1c-0.1,0.1-0.2,0.2-0.3,0.3c-0.1,0.1-0.2,0.3-0.3,0.4
		c-0.1,0.1-0.2,0.2-0.3,0.4C20,9.7,19.9,9.8,19.8,10c-0.1,0.1-0.2,0.3-0.3,0.5c-0.1,0.2-0.1,0.4-0.2,0.6c-0.1,0.2-0.2,0.3-0.3,0.5
		c-0.1,0.1-0.1,0.3-0.2,0.4c-0.1,0-0.1,0-0.2,0c-0.2,0-0.2-0.1-0.4-0.1c-0.2,0-0.2-0.1-0.4-0.1c-0.2,0-0.2-0.1-0.4-0.1
		c-0.2,0-0.2,0-0.4,0c-0.1,0-0.1,0-0.1,0c0.1,0.1,0.2,0.2,0.3,0.3c-0.3,0.3-0.3,0.7-0.4-0.1c-0.1,0.7-0.1,0.4-0.4,0
		c0.1,0,0.1-0.1,0.1-0.1c-0.1,0-0.1,0.1-0.2,0.1c-0.2,0-0.2-0.1-0.4-0.1c-0.2,0-0.2-0.1-0.4-0.1c-0.2,0-0.2,0.1-0.4,0.1
		c-0.2,0-0.2-0.2-0.4-0.2c-0.2,0-0.2,0.1-0.4,0.1c-0.1,0-0.2-0.1-0.3-0.2c0,0,0,0.1,0.1,0.1c0.1,0.1,0.1,0.1,0.2,0
		c0.1,0.1,0.2,0.1,0.3,0.2c-0.1,0-0.2,0-0.3,0c-0.1,0.1-0.2-0.2-0.3-0.4c0,0,0,0,0,0c-0.2,0-0.2,0.2-0.4,0.2c-0.2,0-0.2,0-0.3,0
		C13.1,11.9,13,12,13,11.9c-0.1,0-0.2-0.1-0.2-0.2c0,0,0,0,0,0c0,0,0,0,0,0c-0.2,0-0.2,0-0.4,0c-0.2,0-0.2,0.1-0.4,0.1
		c-0.2,0-0.2,0-0.4,0c-0.2,0-0.2,0.1-0.4,0.1c-0.2,0-0.2-0.2-0.4-0.2c-0.2,0-0.2,0-0.4,0s-0.2,0-0.4,0c-0.1,0-0.2,0.1-0.2,0.2l0,0
		c0,0,0,0,0,0c0.1,0,0.2,0,0.2,0c0,0-0.1,0-0.2,0c0,0,0,0,0,0l0,0c0,0,0,0,0,0c0,0,0,0,0,0c0,0,0,0,0,0c0,0-0.1,0-0.1,0
		c0,0-0.1,0-0.1,0c0,0,0,0-0.1-0.1c-0.2,0-0.3,0-0.4,0l0.2,0c0.1,0,0.2,0,0.3,0c-0.1-0.1-0.1-0.2-0.2-0.2c-0.2,0-0.2,0-0.4,0
		c-0.2,0-0.2,0.1-0.4,0.1c-0.2,0-0.2,0-0.4,0c0,0-0.1,0.1-0.2,0.1c-0.1,0-0.1,0-0.2,0c-0.1,0-0.1-0.1-0.1-0.1
		c-0.1,0.1-0.1,0.1-0.2,0.1c0,0-0.1,0-0.1-0.1c0,0,0,0,0,0c0,0,0,0,0,0c0,0,0,0-0.1-0.1c0,0-0.1,0-0.1,0c-0.1,0-0.1,0-0.1,0
		c0,0,0,0,0.2,0c0,0,0,0,0,0c-0.1-0.1-0.2-0.2-0.2-0.1c0,0,0,0,0,0c0,0,0,0,0,0.1c0,0,0,0-0.1,0c-0.1,0.1,0,0.3,0,0.4c0,0,0,0,0,0
		c0,0.1,0,0.1,0,0.2c0,0,0,0-0.1-0.1c0,0.1,0,0.1,0,0.1c0,0,0,0,0,0c0,0,0,0,0,0c0,0,0,0,0,0c0,0,0,0,0,0c0-0.1,0-0.1,0-0.1l0,0
		c0,0,0-0.1,0-0.1c-0.2-0.1-0.3-0.4-0.4-0.2c-0.1,0.2,0.1,0.4,0.1,0.7c0,0.3,0.1,0.3,0.1,0.6c0,0.3-0.1,0.3-0.1,0.6
		c0,0.3-0.1,0.3-0.1,0.6c0,0.3,0,0.3,0.2,0.5c0.1,0.2,0.1,0,0.3,0c0.2,0,0.2,0.1,0.4,0.1c0.2,0,0.2-0.1,0.4-0.1c0.2,0,0.2,0,0.4,0
		c0.2,0,0.2,0,0.4,0c0.2,0,0.2,0,0.4,0c0.2,0,0.2,0,0.4,0c0.2,0,0.2,0.2,0.4,0.2c0.2,0,0.2-0.2,0.4-0.2s0.2-0.1,0.4,0
		c0,0,0,0.1,0.1,0.1c0,0,0,0,0,0l0,0l0,0c0.1,0.1,0,0.3,0.1,0.5c0.1,0.2,0.2,0.2,0.3,0.4c0.1,0.2,0.2,0.2,0.3,0.4
		c0.1,0.2,0,0.3,0.1,0.6c0.1,0.3,0,0.3,0.2,0.6c0.1,0.3,0.3,0.1,0.4,0.3c0.1,0.3,0,0.4,0.1,0.6c0.1,0.3,0.1,0.3,0.2,0.5
		c0.1,0.2,0.2,0.2,0.3,0.4c0.1,0.2,0.1,0.3,0.2,0.5c0.1,0.3,0.1,0.3,0.2,0.5c0.1,0.3,0.1,0.3,0.2,0.5c0.1,0.3,0.1,0.3,0.2,0.5
		c0.1,0.2,0.1,0.2,0.2,0.5c0.1,0.2,0.1,0.2,0.2,0.5c0.1,0.2,0.2,0.2,0.3,0.5c0.1,0.2,0.2,0.2,0.3,0.4c0.1,0.2,0,0.4,0.1,0.6
		c0.1,0.2,0.1,0.3,0.2,0.5c0.1,0.3,0.2,0.2,0.3,0.4c0.1,0.3,0.1,0.3,0.2,0.5c0.1,0.3,0.1,0.3,0.2,0.5c0.1,0.3,0.1,0.2,0.3,0.5
		c0.1,0.3,0.2,0.2,0.3,0.4c0.1,0.3,0.1,0.3,0.2,0.5c0.1,0.3,0.2,0.2,0.3,0.5c0.1,0.3,0.1,0.3,0.2,0.5c0.1,0.3,0.1,0.3,0.2,0.5
		c0.1,0.3,0,0.4,0.1,0.6c0.1,0.3,0.2,0.2,0.3,0.4c0.1,0.3,0,0.3,0.1,0.6c0.1,0.3,0.3,0.1,0.4,0.3c0.1,0.3,0,0.3,0.2,0.6
		c0.1,0.3,0.2,0.2,0.3,0.4c0.1,0.3-0.1,0.6,0.1,0.7c0.2,0.1,0.2,0,0.5,0c-0.1-0.1-0.2-0.2-0.5-0.4c0.2,0.1,1.1-0.5,1.1-0.1
		c-0.2-0.7-0.3,0,0.4-0.8c0,0.7-0.2,1-0.4,1.1c0.1,0.1,0.1,0.2,0.3,0.2c0.2,0,0.2-0.1,0.4-0.1c0.2,0,0.2-0.1,0.4-0.1
		c0.2,0,0.2,0.1,0.4,0.1c0.2,0,0.2-0.2,0.4-0.2c0.2,0,0.2,0.1,0.4,0.1c0.2,0,0.2-0.1,0.4-0.1c0.2,0,0.2,0.2,0.4,0.2s0.2,0,0.4-0.1
		c0.2-0.1,0.2-0.1,0.3-0.4c0.1-0.3,0.1-0.3,0.2-0.5c0.1-0.3,0.1-0.3,0.2-0.5c0.1-0.1,0.1-0.2,0.1-0.3c0-0.1,0-0.1,0.1-0.2
		c0-0.1,0.1-0.1,0.1-0.2c0.1-0.1,0.1-0.1,0.2-0.3c0.1-0.3,0.1-0.2,0.2-0.5c0.1-0.1,0.1-0.2,0.1-0.3c0,0,0.1-0.1,0.1-0.2
		c0-0.1,0.1-0.2,0.1-0.3c0.1-0.1,0.2,0,0.3-0.2c0.1-0.1,0-0.2,0-0.3c0,0,0.1-0.1,0.1-0.1c0.1-0.1,0-0.2,0-0.3c0.1-0.1,0.2,0,0.3-0.2
		c0.1-0.1,0.1-0.2,0-0.3c0,0,0.1-0.1,0.1-0.1c0.1-0.1,0-0.2,0-0.4c0.1-0.1,0.1-0.1,0.3-0.2c0.1,0,0.2,0.1,0.3,0.2
		c0.1,0,0.3,0.1,0.4,0.2c0.1,0,0.3-0.2,0.4-0.1c0.1,0,0.3,0.2,0.4,0.2c0.1,0,0.3,0,0.4,0c0.1,0,0.3,0,0.4,0c0.1,0,0.2,0.3,0.4,0.3
		c0.1,0,0.3-0.1,0.4-0.1c0.1,0,0.3,0,0.4,0.1c0.1,0,0.3,0.1,0.4,0.1c0.1,0,0.3-0.2,0.4-0.2c0.1,0,0.3,0.2,0.4,0.2
		c0.1,0,0.3-0.2,0.4-0.2c0.1,0,0.3,0,0.4,0c0.1,0,0.3-0.1,0.4-0.1c0.1,0,0.3,0,0.4,0c0,0,0,0,0,0c0,0,0.1,0,0.2,0
		c0.1,0,0.1-0.1,0.2,0c0,0,0,0.1,0.1,0.1c0,0,0,0,0.1,0.1c0.1-0.1,0.2-0.1,0.3-0.1c0.1,0,0.3,0,0.4,0c0.1,0,0.3-0.1,0.4-0.2
		c0.1,0,0.2-0.3,0.4-0.3c0.1,0,0.3,0,0.4,0c0.2,0.2,0,0.3,0.1,0.6c0.2-0.3,0.3-0.7,0.1-1.3c-0.2,0-0.3-0.1-0.2-0.5
		c0.1,0.2,0.1,0.3,0.2,0.5c0.3,0,0.9-0.2,0.6,0.2c0.9,0.4,0.4,0-0.5,1.5c0,0,0,0,0,0.1c0.1,0.3,0.3,0.1,0.4,0.3
		c0.1,0.3,0,0.3,0.2,0.6c0.1,0.3,0.1,0.2,0.2,0.5c0.1,0.2,0,0.3,0.1,0.6c0.1,0.3,0.2,0.2,0.3,0.4c0.1,0.3,0.1,0.3,0.2,0.5
		c0.1,0.3,0.2,0.2,0.3,0.4c0.1,0.3,0.1,0.3,0.2,0.6c0,0.1,0.1,0.1,0.1,0.1c0,0,0,0,0,0c0,0,0,0,0,0c0,0,0,0,0,0c0,0,0,0,0,0
		c0,0,0,0,0,0c0,0,0,0,0.1,0.1l0.1,0c0.1,0,0.1,0.1,0,0.1c0,0,0,0-0.1,0c0,0,0.1,0.1,0.1,0.2c0.1,0.3,0,0.4,0.2,0.6
		c0.2,0.1,0.2,0.1,0.4,0.1c0.2,0,0.2-0.2,0.4-0.2c0.2,0,0.2,0.1,0.4,0.1c0.2,0,0.2,0.2,0.4,0.2c0.2,0,0.2-0.2,0.4-0.2
		c0.2,0,0.2,0.1,0.4,0.1c0.2,0,0.2-0.1,0.4-0.1c0.2,0,0.2,0.3,0.4,0.3c0.2,0,0.2-0.1,0.4-0.1c0.2,0,0.2-0.2,0.4-0.2s0.3,0.3,0.5,0.2
		c0.1-0.1,0.1-0.1,0.1-0.2c0,0-0.1,0-0.1-0.1c0,0,0.1,0,0.1-0.1l0,0.1c0-0.1,0-0.2,0.1-0.4c0.1-0.2,0.1-0.3,0.1-0.4
		c-0.1,0-0.1,0-0.2,0.1c0,0,0,0,0,0c0,0,0,0,0,0c-0.2,0-0.4,0.1-0.6,0.1l0.2,0l-0.1,0l-0.2,0c-0.2,0-0.3,0.1-0.5,0.1c0,0,0,0,0.1,0
		c0,0,0,0,0,0c0.1,0,0.1,0,0,0c0,0,0,0,0.1,0c0.1,0,0.2,0,0.1,0c0.2,0.1,0.1,0.1,0.5,0.1c0.1,0,0,0,0-0.1c-0.1,0-0.3-0.1-0.3-0.1
		c0.3,0,0.3,0,0.3,0c0.2,0.1,0.4,0.3,0.1,0.3c-0.3-0.1-0.6-0.1-0.6-0.1c-0.1,0,0,0,0,0l-0.1,0c-0.1,0-0.2,0-0.2-0.1c0,0,0,0,0,0
		c0,0,0,0,0,0c-0.1,0-0.3,0.1-0.5,0.1c0,0,0.1,0,0.2,0c-0.1,0-0.1,0-0.2,0c0.1,0,0,0,0,0c-0.1,0-0.1,0-0.2,0c-0.3,0-0.9,0.1-2.9,0.1
		c0.5,0,1.5-0.2,2.3-0.3l0,0l0.1,0l-0.1,0c0.2,0,0.3,0,0.4-0.1c0,0,0,0,0,0c0,0,0,0,0,0c0,0,0.1,0,0.1,0c0.1,0,0.1,0,0.2,0l-0.1,0
		l0.1-0.1l0.1,0c0.2,0,0.2-0.1,0.1,0c0.1,0,0.2,0,0.4,0c0,0,0,0-0.1,0c0,0,0,0-0.1,0c0,0,0,0,0,0c0,0,0.1,0,0.1,0c0,0,0,0-0.1,0
		c0,0,0.1,0,0.1,0c0.1,0,0.2,0,0.3,0l0,0c0,0,0,0,0,0c0.5-0.1,1-0.2,1.4-0.3c0.1-0.2,0.1-0.2,0.1-0.5c0.1-0.2,0.2-0.2,0.3-0.5
		c0.1-0.3,0.2-0.1,0.4-0.4c0.1-0.3,0.1-0.3,0.2-0.5c0.1-0.3,0-0.4,0.1-0.6c0.1-0.3,0.2-0.1,0.3-0.4c0.1-0.2,0.2-0.2,0.3-0.4
		c0.1-0.2,0.1-0.2,0.2-0.5c0.1-0.3,0-0.4,0.1-0.6c0.1-0.3,0.1-0.3,0.2-0.5c0.1-0.3,0.2-0.1,0.3-0.4c0.1-0.2,0.1-0.3,0.2-0.5
		c0.1-0.2,0.1-0.3,0.2-0.5c0.1-0.2,0.1-0.2,0.2-0.5c0.1-0.2,0.2-0.2,0.3-0.4c0.1-0.2,0.1-0.3,0.2-0.5c0.1-0.2,0.1-0.3,0.2-0.6
		c0.1-0.3,0.1-0.3,0.2-0.5c0.1-0.3,0.2-0.2,0.3-0.5c0.1-0.3,0.1-0.3,0.2-0.5c0.1-0.3,0.1-0.2,0.2-0.5c0.1-0.3,0.1-0.3,0.2-0.5
		c0.1-0.3,0.1-0.2,0.3-0.5c0.1-0.3,0.2-0.2,0.3-0.4c0.1-0.3,0.1-0.2,0.2-0.5c0.1-0.3,0.1-0.3,0.2-0.5c0.1-0.3,0.1-0.2,0.2-0.5
		c0.1-0.3,0.1-0.3,0.2-0.5c0.1-0.3,0.1-0.2,0.2-0.5c0.1-0.3,0-0.4,0.1-0.6c0.1-0.3,0.1-0.3,0.2-0.5c0.1-0.2,0.1-0.2,0.2-0.3
		c0-0.1,0.1-0.2,0.1-0.2c0.1-0.2,0.1-0.1,0.3-0.3c0,0,0,0,0,0c0-0.1,0.1-0.2,0.2-0.2c0.1,0,0.1-0.1,0.2-0.1c0.1,0,0.1,0,0.1,0
		c0.1,0,0.1,0,0,0c0.1,0,0.1,0,0.1,0c0,0,0.1-0.1,0.1-0.1c0,0,0.1-0.1,0.2-0.1c0.1-0.1,0.3,0,0.4,0.1c0.2,0.2,0.1,0-0.1-0.2
		c-0.1-0.1-0.3-0.1-0.4,0c0,0-0.1,0.1-0.1,0.1c0,0,0,0.1-0.1,0.1c0,0,0-0.1,0.1-0.1c0.1-0.2,0.3-0.3,0.4-0.3c0.1,0,0.1,0,0.1,0
		c0,0,0,0-0.1,0c0,0,0,0,0.1,0c0,0,0,0,0.1,0c0,0,0.1,0.1,0.1,0.1c0,0,0,0,0.1-0.1c0.1-0.1,0.2-0.1,0.2-0.1c0,0,0.1,0,0.1,0
		c-0.1,0-0.1,0-0.2,0c-0.1,0-0.1,0.1-0.2,0.1c0,0,0,0,0,0c0,0,0,0,0,0.1l0,0l0,0l0,0l0,0.1l0,0c0,0,0,0,0,0c0,0,0,0,0,0c0,0,0,0,0,0
		c0,0,0,0,0,0c0,0,0,0,0,0c0,0,0,0,0,0c0,0,0,0,0,0c0,0,0,0,0,0c0,0,0,0,0,0c0,0,0,0,0,0c0,0,0,0,0,0c0,0,0,0,0,0c0,0,0,0,0,0
		c0.2,0,0.2,0.2,0.4,0.2c0.2,0,0.2-0.2,0.4-0.2c0.2,0,0.2,0.3,0.4,0.3c0.2,0,0.2-0.1,0.4-0.1c0.2,0,0.2-0.1,0.4-0.1
		c0.2,0,0.2,0.2,0.3,0c0.1-0.1,0.1-0.2,0.1-0.3c0,0,0,0,0,0c0,0,0,0-0.1-0.1c0,0,0,0-0.1-0.1c0,0,0,0,0,0c-0.1,0-0.1,0-0.2,0
		c-0.1,0-0.1,0-0.2,0c-0.1,0-0.2,0.1-0.3,0.1c0,0,0,0,0,0l0,0l0,0l0,0l0,0l0,0l0,0l0,0l0,0l0,0l0,0l0,0l0,0l0,0c0,0,0,0,0,0
		c0,0,0,0,0,0c0,0,0,0,0,0c0,0,0.1-0.1,0.2-0.1c-0.3,0.2-0.1,0.1-0.2,0.2c0,0,0,0,0,0c-0.1-0.1-0.1-0.2-0.4-0.2c-0.2,0-0.1,0,0-0.1
		c0.1,0,0.3,0.1,0.4,0.2c0,0,0,0,0,0c0,0,0,0,0,0c0,0,0,0,0,0c-0.1-0.1-0.2-0.2-0.3-0.2c-0.1,0-0.3,0-0.4,0.1c0,0-0.1,0-0.1,0.1
		c0,0,0,0,0,0l0,0l0,0l0,0l0,0l0,0c0,0,0,0,0,0c0,0,0,0,0,0l0,0l0,0c0,0,0,0,0,0c0,0,0,0,0-0.1c0,0,0,0,0,0l0,0c0,0,0,0,0,0
		c0,0,0,0,0,0l0.1-0.1c0.1,0,0.1-0.1,0.2-0.1c0.1,0,0.3,0,0.4,0.1c0.1,0,0.1,0.1,0.2,0.1l0,0c0,0,0,0,0,0l0,0c0,0-0.1-0.1-0.1-0.1
		c-0.1-0.1-0.2-0.1-0.3-0.1c0,0,0.2,0,0.3,0.1c0.1,0,0.1,0.1,0.1,0.1c0,0,0,0,0,0c0.1,0,0.2-0.1,0.3-0.1c0.1,0,0.1,0,0.2,0
		c0.1,0,0.1,0,0.2,0c0,0,0,0,0-0.1c0,0,0,0,0,0c0,0,0,0,0,0c0,0-0.1,0-0.1,0c-0.2,0-0.2,0.1-0.2,0.1c0,0-0.1,0-0.2,0c0,0,0,0,0,0
		c0.1,0,0.1,0,0.1,0l0,0c0,0,0.1,0,0.2,0c0,0,0.1,0,0.1,0c0,0,0,0,0,0c0,0,0,0,0,0c0,0,0,0,0,0c0-0.1,0-0.2,0.1-0.1c0,0,0,0.1,0,0.1
		c0,0,0.1,0,0.1,0c0-0.2,0-0.3,0-0.5c0,0,0,0,0-0.1c0,0,0,0,0,0c0-0.2-0.1-0.2-0.1-0.5c0-0.3,0.2-0.3,0.2-0.6
		C53.9,12.3,54,12.1,53.9,11.9z M6.9,12.7c0,0.1,0,0.2-0.1,0.4C6.9,12.9,6.9,12.8,6.9,12.7c0-0.1-0.1-0.3-0.1-0.4
		C6.8,12.3,6.9,12.5,6.9,12.7z M8.4,14.4L8.4,14.4C8.4,14.4,8.4,14.4,8.4,14.4C8.4,14.4,8.4,14.4,8.4,14.4L8.4,14.4L8.4,14.4
		L8.4,14.4L8.4,14.4L8.4,14.4C8.3,14.3,8.4,14.3,8.4,14.4c0-0.1-0.1-0.1-0.1-0.2c-0.1-0.1-0.2-0.1-0.4-0.1c-0.1,0-0.2,0.1-0.3,0.2
		c0,0,0,0,0,0c0,0,0,0,0,0c0,0,0,0,0,0c0.1-0.1,0.3-0.2,0.4-0.2c0.2,0,0.2,0.1,0,0.1c-0.2,0-0.3,0.2-0.4,0.2c0,0,0,0,0,0
		c-0.1,0,0.1,0-0.2-0.2c0.1,0,0.2,0.1,0.2,0.1c0,0,0,0,0,0c0,0,0,0,0,0c0,0,0,0,0,0l0,0l0,0l0,0l0,0l0,0l0,0l0,0l0,0l0,0l0,0l0,0
		l0,0l0,0c0,0,0,0,0,0c-0.1-0.1-0.2-0.1-0.3-0.1c-0.1,0-0.1,0-0.2,0c-0.1,0-0.1,0-0.2,0c0,0,0,0,0,0c0,0-0.1,0-0.1,0.1
		c0,0,0,0-0.1,0.1c0,0,0,0,0,0c0,0,0,0,0,0c0,0,0,0,0,0c0,0,0,0,0,0c0,0,0,0,0,0c0,0,0,0,0,0c0,0,0,0,0,0c0,0,0,0,0,0c0,0,0,0,0,0
		c0,0,0-0.1,0-0.1c0,0-0.1,0-0.1,0.1l0,0c0,0,0,0,0,0l0,0l0,0c0,0,0,0,0,0c0,0,0,0,0,0c0,0,0,0,0,0c0,0,0,0,0,0c0,0,0,0,0,0l0,0
		c0,0,0,0,0,0c0,0,0,0,0,0c0,0,0,0,0,0c0,0,0,0,0,0c0,0,0,0,0,0c0,0,0,0,0,0c0,0,0,0,0,0c0,0,0,0,0,0c0,0,0,0,0,0c0,0,0,0,0,0
		c0,0,0,0,0,0c0,0,0,0,0,0c0,0,0,0,0,0c0,0,0,0,0,0c0,0,0,0,0,0c0,0,0,0,0,0c0,0,0,0,0,0c0,0,0,0,0,0c0,0,0,0,0,0c0,0,0,0,0,0l0,0
		c0,0,0,0,0,0c0,0,0,0,0,0c0,0,0,0,0,0c0,0,0,0,0,0l0,0c0,0,0,0,0,0c0,0,0-0.1,0-0.1l0,0l0,0l0-0.1l0,0l0,0l0,0l0,0l0,0
		c0-0.1,0-0.2,0-0.2l0,0c0-0.5,0.1-0.4,0.1-0.4c0,0.2,0,0.3,0,0.4l0,0.2c0,0,0,0,0,0c0,0,0.1,0,0.1,0c0,0,0,0,0,0c0,0,0-0.1,0-0.1
		c0-0.1,0-0.1,0-0.2c0-0.1,0-0.3,0.1-0.4c0,0,0-0.1,0-0.1c0,0,0,0,0,0.1c0,0,0,0.1,0,0.1l0,0c0,0.1,0,0.1,0,0c0,0.1,0,0.2-0.1,0.3
		c0,0.1,0,0.2,0,0.3c0,0,0,0,0,0c0,0,0.1,0,0.1,0c0,0,0-0.1,0-0.1c0-0.1,0,0,0.1,0.1c0,0,0,0,0,0c0,0,0,0,0,0c0,0,0,0,0,0
		c0,0,0.1,0,0.1,0c0.1,0,0.1,0,0.2,0l0,0c0,0,0.1,0,0.1,0c0,0,0,0,0,0c-0.1,0-0.2,0-0.2,0c0,0,0,0-0.2-0.1c0,0-0.1,0-0.1,0
		c0,0.1,0,0,0,0c0,0,0,0,0,0c0,0,0,0,0,0.1c0.1,0,0.2,0,0.2,0c0.1,0,0,0,0.2,0c0.1,0,0.2,0.1,0.3,0.1c0,0,0,0,0,0
		c0-0.1,0.1-0.1,0.1-0.1c0.1-0.1,0.2-0.1,0.3-0.1c-0.1,0-0.2,0-0.3,0.1c0,0-0.1,0.1-0.1,0.1l0,0c0,0,0,0,0,0l0,0
		c0-0.1,0.1-0.1,0.2-0.1c0.1-0.1,0.3-0.1,0.4-0.1c0.1,0,0.1,0,0.2,0.1l0.1,0.1C8.4,14.3,8.4,14.3,8.4,14.4c0-0.1,0-0.1,0-0.1
		L8.4,14.4C8.4,14.3,8.4,14.3,8.4,14.4C8.4,14.4,8.4,14.4,8.4,14.4C8.4,14.4,8.4,14.4,8.4,14.4L8.4,14.4z M8.6,14.5
		c0,0-0.1,0.1-0.2,0.1l0,0C8.7,14.4,8.9,14.3,8.6,14.5z M8.7,14.1c0,0-0.1,0-0.1,0C8.6,14.2,8.6,14.2,8.7,14.1
		C8.6,14.2,8.6,14.2,8.7,14.1C8.6,14.2,8.6,14.2,8.7,14.1C8.6,14.1,8.7,14.1,8.7,14.1C8.7,14.1,8.7,14.1,8.7,14.1z M11.2,11.9
		C11.1,11.9,11.1,11.9,11.2,11.9C11.1,11.9,11.1,11.9,11.2,11.9C11.2,11.9,11.2,11.9,11.2,11.9C11.1,11.9,10.9,11.8,11.2,11.9
		c-0.1,0-0.2,0-0.2,0c0,0,0,0,0,0c0,0,0,0,0,0s0,0,0,0C10.9,11.8,10.8,11.8,11.2,11.9z M10.2,11.8c0.1,0,0.2,0,0.2,0
		c0.1,0,0.2,0,0.2-0.1c0.1,0,0.1-0.1,0.1-0.1c0,0,0,0,0,0c0,0,0.1,0,0.1,0c0,0,0,0-0.1,0c0,0-0.2,0.2-0.3,0.1
		C10.4,11.9,10.3,11.9,10.2,11.8c-0.1,0-0.1,0-0.1,0C10.1,11.8,10.2,11.9,10.2,11.8c0.2,0.1,0.3,0.1,0.3,0.1
		C10.7,11.8,10.5,11.9,10.2,11.8z M10,11.9c0,0-0.1,0-0.2,0.1c-0.2,0-0.2,0-0.1,0c-0.1,0-0.2,0-0.2,0c0,0-0.1,0-0.1,0
		c0,0,0.1,0,0.2-0.1c0,0,0.2,0,0.3,0C10,11.9,10,11.9,10,11.9z M9.1,14.4L9.1,14.4L9.1,14.4L9.1,14.4L9.1,14.4z M9.1,11.9
		c0.1,0,0.2,0,0.3,0c0.1,0,0.1-0.1,0.2,0c0,0,0,0,0,0c0,0,0.2,0,0.3,0c0,0-0.2,0-0.3,0c-0.1,0-0.1,0-0.2,0
		C9.4,11.9,9.3,11.9,9.1,11.9z M9.4,14.1L9.4,14.1C9.4,14.1,9.4,14.1,9.4,14.1C9.5,14.1,9.4,14.1,9.4,14.1z M9.6,14.1
		c-0.1,0-0.1,0-0.2,0c0.3,0,0.5,0.1,0.6,0.4C9.9,14.2,9.8,14.1,9.6,14.1z M9.9,14.4c0,0,0.1,0.1,0.1,0.1C9.9,14.5,9.9,14.4,9.9,14.4
		z M10.9,15.2C10.9,15.2,10.9,15.2,10.9,15.2c-0.8-0.3-1-0.8-0.9-0.8c0.5,0.1,0.5,0.1,0.7,0.1c0,0,0,0,0,0c0,0,0,0,0,0c0,0,0,0,0,0
		c0-0.1,0-0.1,0-0.1c-0.2-0.1-0.1-0.1,0,0c0.1,0.1,0.1,0.1,0.3,0.2C11,14.9,10.9,15.1,10.9,15.2c0,0,0.1,0.1,0.1,0.2
		C11,15.3,11,15.3,10.9,15.2z M11.2,16.3c0-0.1,0-0.2-0.1-0.3c0,0,0.1,0.1,0.1,0.1C11.2,16.1,11.2,16.2,11.2,16.3z M11.3,15.9
		c-0.1-0.1-0.1-0.3-0.2-0.4l0,0.1c0-0.1,0,0,0.1,0.1C11.2,15.7,11.2,15.8,11.3,15.9c0.1,0,0.1,0.2,0.1,0.3
		C11.3,16.2,11.3,16.1,11.3,15.9z M13.8,22.9c0-0.1,0-0.1,0-0.1c0,0,0,0.2,0.1,0.3C13.9,23,13.8,23,13.8,22.9z M14.1,23.2
		c0,0,0.1,0.1,0.1,0.1C14.2,23.3,14.2,23.2,14.1,23.2z M42,31.8C42.1,31.8,42.1,31.8,42,31.8C42.1,31.8,42,31.8,42,31.8
		C41.9,31.8,42,31.8,42,31.8z M44.6,14.7C44.6,14.7,44.5,14.7,44.6,14.7L44.6,14.7C44.5,14.7,44.6,14.7,44.6,14.7z M42.7,14.6
		L42.7,14.6L42.7,14.6C42.6,14.7,42.6,14.6,42.7,14.6z M42.5,13c-0.2-0.2-0.3-0.3-0.3-0.4C42.2,12.7,42.3,12.8,42.5,13z M41.9,14.4
		L41.9,14.4l0,0.2l0,0c0,0,0,0,0,0l0-0.1L41.9,14.4z M38.8,16.9c0.1-0.9-0.1-2.8,0-2.9c0.2,1,0.2,0.9,0.3,3.3
		C39,17.5,39,18.1,38.8,20C38.8,18.9,38.9,16.2,38.8,16.9z M30.5,6.9L30.5,6.9c0,0.1-0.1,0-0.2,0C30.4,6.9,30.5,6.9,30.5,6.9z
		 M30.3,6.8C30.3,6.8,30.3,6.9,30.3,6.8C30.3,6.9,30.3,6.8,30.3,6.8z M28.4,7.1L28.4,7.1c-0.1,0.1-0.1,0.2-0.1,0.2
		C28.3,7.2,28.3,7.2,28.4,7.1z M27.1,7.4c0.1,0,0.2-0.2,0.3-0.2c0.1-0.1,0.3,0,0.4,0.1c0,0,0,0,0,0c0,0,0,0,0,0c0,0,0,0,0,0l0,0
		l0.1,0c0,0-0.1,0.1-0.1,0.1c0,0,0,0,0,0c0,0,0,0,0,0l0,0l0,0c0,0,0,0,0,0l0,0l0,0l0,0l0,0c0,0,0,0,0,0c0,0-0.1-0.1-0.2-0.1
		c-0.1,0-0.2,0-0.3,0.1C27.1,7.5,27,7.5,27,7.5C27,7.5,27,7.5,27.1,7.4z M27.1,7.5C27.1,7.5,27.1,7.6,27.1,7.5
		C27,7.6,27,7.6,26.9,7.6C26.9,7.6,27.1,7.6,27.1,7.5z M26.3,8.1L26.3,8.1L26.3,8.1L26.3,8.1z M26.3,8.1L26.3,8.1L26.3,8.1L26.3,8.1
		L26.3,8.1z M26.1,7.9C26.1,7.9,26.1,7.9,26.1,7.9C26.1,8,26.2,7.8,26.1,7.9C26.1,7.9,26.1,7.9,26.1,7.9C26.1,7.9,26.1,7.9,26.1,7.9
		C26.1,7.9,26.1,7.9,26.1,7.9c0.1,0,0.1,0,0.1,0c0,0,0,0.1,0,0.1l0,0c0,0,0,0,0.1,0.1l0,0l0,0c0,0,0,0,0,0l0,0c0,0,0,0,0,0
		c0,0,0,0,0,0l0,0l0,0c0,0,0,0,0,0c0,0,0,0,0,0C26.3,8.1,26.2,8,26.1,7.9C26.2,8,26.2,8,26.1,7.9C26.1,8,26.1,8,26,8
		C26.1,8,26.1,8,26.1,7.9C26.1,8,26.1,7.9,26.1,7.9c0,0-0.1,0-0.2,0C26,7.9,26,7.9,26.1,7.9z M25.5,8.1c-0.1,0.1,0.2-0.2,0.3-0.2
		c-0.1,0.1-0.2,0.2-0.3,0.3c-0.1,0.1-0.1,0.1-0.1,0.1C25.4,8.3,25.4,8.3,25.5,8.1z M25.5,8.5c0,0,0-0.1,0.1-0.3
		C25.5,8.4,25.5,8.5,25.5,8.5C25.5,8.5,25.5,8.5,25.5,8.5z M25.5,8.2c0,0.1,0,0.1-0.1,0.1c0,0,0.1-0.2,0.2-0.3
		C25.5,8.2,25.5,8.3,25.5,8.2z M24.8,8.7c-0.2,0.2,0,0.1-0.1,0.2C24.5,9,24.7,8.8,24.8,8.7z M24.3,8.9c0,0,0.2-0.1,0.3-0.1l-0.1,0.1
		c0,0,0,0-0.2,0.2l0.2-0.2C24.4,8.9,24.3,8.9,24.3,8.9z M24,9.5L24,9.5c0.1-0.2,0.2-0.3,0.2-0.4c-0.1,0.1,0,0,0,0.1
		C24.1,9.2,24.1,9.3,24,9.5L24,9.5L24,9.5z M23.8,9.5l-0.1,0C23.8,9.5,23.9,9.5,23.8,9.5C23.9,9.5,23.9,9.5,23.8,9.5L23.8,9.5
		c-0.1,0.1-0.1,0.1-0.2,0.2C23.7,9.7,23.7,9.6,23.8,9.5z M23.5,9.8l0.1-0.2L23.5,9.8L23.5,9.8L23.5,9.8L23.5,9.8z M23.1,10.3
		C23.1,10.3,23.1,10.3,23.1,10.3C23.2,10.2,23.2,10.2,23.1,10.3c-0.1,0.2-0.1,0.3-0.2,0.5C22.9,10.6,23,10.4,23.1,10.3z M22.2,12
		c0.1-0.1,0.1-0.3,0.2-0.4c0.1-0.2,0.2-0.3,0.3-0.5l0,0l-0.1,0.2c0,0,0.1-0.1,0.1-0.2c0,0,0,0,0,0l0,0l0,0c0.1-0.1,0.2-0.2,0.2-0.2
		c0.1-0.1,0.1-0.2,0.2-0.3c0.1-0.2,0.1-0.1,0.1,0c0.1-0.1,0.1-0.2,0.1-0.2c0,0,0-0.1,0-0.1c0,0,0,0,0,0l0,0c0,0,0,0,0,0
		c0,0.1,0,0.1-0.1,0.2c0,0,0,0.1-0.1,0.2c0,0,0,0,0,0c-0.1,0.1-0.2,0.3-0.3,0.4c-0.1,0.1-0.1,0.1-0.2,0.3c0.3-0.4-0.2,0.3,0.2-0.2
		c-0.1,0.2-0.1,0.1-0.2,0.4c-0.1,0.1,0-0.1,0-0.2c-0.1,0.3-0.2,0.4-0.3,0.5c0,0,0,0.1-0.1,0.1l0-0.1c-0.1,0.2-0.1,0.4-0.2,0.5l0,0
		l0,0l0,0C22.2,12.2,22.2,12.2,22.2,12z M22,7.8C21.8,7.6,21.9,7.6,22,7.8L22,7.8z M21.6,8.3c0,0,0.1,0.2,0.2,0.4c0,0,0,0,0,0
		C22,8.5,22,8.6,21.9,8.6c0,0,0,0.1,0,0.3c0-0.1-0.1-0.1-0.1-0.2c0,0,0,0,0,0c0,0,0,0,0,0C21.7,8.7,21.7,8.4,21.6,8.3
		c-0.1-0.1,0,0.1-0.1,0.3C21.6,8.1,21.6,8.2,21.6,8.3z M21.8,13.3c0,0.2,0,0.4-0.1,0.4C21.7,13.5,21.7,13.3,21.8,13.3L21.8,13.3z
		 M21.6,23C21.6,23,21.6,23,21.6,23C21.6,23,21.6,23,21.6,23C21.6,23,21.6,23,21.6,23z M21.6,13.9c0,0.1,0,0.1,0,0.2L21.6,13.9
		C21.5,14,21.5,13.9,21.6,13.9z M21.5,15c0,0,0,0.1,0,0.1C21.4,15,21.5,14.9,21.5,15z M21.4,15.2C21.4,15.2,21.5,15.2,21.4,15.2
		c0-0.1,0-0.1,0-0.2C21.5,15.1,21.5,15.2,21.4,15.2c0,0,0,0.1,0,0.2C21.4,15.3,21.4,15.3,21.4,15.2C21.4,15.2,21.4,15.1,21.4,15.2z
		 M21.4,15.6c0,0.1,0.1,0,0,0.1C21.5,16.2,21.4,15.4,21.4,15.6z M21.3,22.8C21.3,22.8,21.3,22.8,21.3,22.8
		C21.3,22.8,21.3,22.7,21.3,22.8C21.3,22.7,21.3,22.8,21.3,22.8z M21.2,22.7C21.3,22.6,21.2,22.7,21.2,22.7
		C21.1,22.6,21.3,22.6,21.2,22.7z M14.7,23.7c0,0,0,0,0.1,0.2C14.9,23.9,14.8,23.8,14.7,23.7z M14.9,25C14.8,25,14.9,25,14.9,25
		L14.9,25z M15.2,25.4L15.2,25.4c0.1,0,0.1,0.1,0.1,0.1C15.2,25.4,15.2,25.4,15.2,25.4z M15.3,25.6L15.3,25.6L15.3,25.6
		c0.1,0.2,0.3,0.3,0.3,0.4C15.5,26,15.4,25.7,15.3,25.6z M15.6,25.9L15.6,25.9l0.1,0.1C15.6,26.1,15.6,25.9,15.6,25.9z M15.7,26.5
		C15.7,26.5,15.7,26.5,15.7,26.5L15.7,26.5C15.8,26.5,15.7,26.5,15.7,26.5z M15.8,26.5C15.7,26.4,15.8,26.4,15.8,26.5
		C15.8,26.4,15.8,26.5,15.8,26.5z M15.8,26.7C15.8,26.7,15.8,26.6,15.8,26.7L15.8,26.7C15.9,26.8,15.9,26.8,15.8,26.7z M15.9,26.7
		L15.9,26.7C15.9,26.6,15.9,26.6,15.9,26.7C16,26.7,15.9,26.7,15.9,26.7z M15.9,26.6l0.2,0.1l0,0L15.9,26.6z M16.2,27.2
		C16.2,27.2,16.2,27.2,16.2,27.2C16.2,27.2,16.2,27.2,16.2,27.2L16.2,27.2C16.2,27.2,16.3,27.2,16.2,27.2L16.2,27.2z M16.2,27
		c0.1,0.1,0.1,0,0.1,0C16.4,27.1,16.3,27,16.2,27z M16.3,27.6L16.3,27.6L16.3,27.6C16.4,27.6,16.4,27.6,16.3,27.6z M16.4,27.5
		L16.4,27.5C16.4,27.5,16.4,27.5,16.4,27.5L16.4,27.5L16.4,27.5C16.4,27.5,16.5,27.5,16.4,27.5C16.5,27.5,16.4,27.5,16.4,27.5z
		 M16.4,27.4L16.4,27.4l-0.1-0.1c0,0,0,0,0,0L16.4,27.4L16.4,27.4L16.4,27.4z M16.5,27.1c0,0.1,0,0.1,0,0.2
		C16.5,27.3,16.5,27.2,16.5,27.1L16.5,27.1C16.4,27,16.5,27,16.5,27.1C16.5,27.1,16.4,27,16.5,27.1C16.5,27.1,16.5,27.1,16.5,27.1z
		 M16.5,28C16.5,28,16.5,27.9,16.5,28c0.1,0,0.1,0.1,0.2,0.2C16.6,28.1,16.5,28,16.5,28z M17.1,28.7L17.1,28.7l0.1,0.1L17.1,28.7z
		 M17.2,28.9L17.2,28.9L17.2,28.9C17.2,28.9,17.2,28.9,17.2,28.9z M17.3,28.7c0-0.1,0-0.1-0.1-0.2C17.2,28.4,17.3,28.7,17.3,28.7
		c-0.2-0.1-0.2-0.1-0.2-0.1l0,0l0,0c0,0,0,0-0.1-0.1c0-0.1,0-0.1,0-0.2l-0.1-0.2l0,0c0,0,0,0.1,0,0.1c0,0,0-0.1,0-0.1
		c0,0,0-0.1,0-0.1c0-0.1-0.1-0.1-0.1-0.1c0-0.1,0-0.1,0-0.1c0,0-0.1-0.1-0.1-0.1c0,0,0,0-0.1-0.1c0,0,0,0,0,0c0,0,0,0.1,0.1,0.1
		c0,0,0.1,0,0.1,0.1c0,0,0,0,0,0c0,0.1,0.1,0.1,0.1,0.2c0,0,0,0.1,0.1,0.1c-0.1-0.2,0.1,0.1,0-0.1c0.1,0.1,0.1,0,0.2,0.1
		c0,0.1-0.1,0-0.2,0c0.1,0.1,0.1,0.1,0.1,0.2l0,0l0,0l0.1,0.2l0,0c0-0.1,0.1-0.3,0.2-0.2c0,0.1,0.1,0.2,0.2,0.2c0,0,0,0,0,0
		c0,0,0.1,0.1,0.1,0.1C17.5,28.8,17.4,28.6,17.3,28.7z M16.7,27.7C16.7,27.7,16.7,27.6,16.7,27.7l0.1,0.1l0,0.1
		C16.8,27.8,16.7,27.7,16.7,27.7z M17.2,28.2L17.2,28.2C17.2,28.2,17.2,28.3,17.2,28.2C17.3,28.3,17.2,28.3,17.2,28.2z M17.4,28.9
		C17.4,28.9,17.4,28.9,17.4,28.9C17.4,28.9,17.4,28.9,17.4,28.9z M17.4,29C17.4,29,17.4,29,17.4,29c0,0.1,0.1,0.1,0.1,0.2
		C17.4,29.1,17.4,29,17.4,29z M17.4,29.4C17.5,29.5,17.5,29.4,17.4,29.4c0.1,0,0.1,0.1,0.2,0.1C17.5,29.5,17.5,29.5,17.4,29.4z
		 M17.6,29.1L17.6,29.1L17.6,29.1L17.6,29.1z M17.7,29.2L17.7,29.2C17.7,29.2,17.8,29.3,17.7,29.2C17.8,29.3,17.8,29.2,17.7,29.2z
		 M17.8,29.8C17.8,29.8,17.8,29.7,17.8,29.8C17.9,29.8,17.9,29.8,17.8,29.8C17.9,29.8,17.9,29.8,17.8,29.8z M17.9,29.9
		C17.9,29.9,18,29.8,17.9,29.9C18.1,30,17.8,29.9,17.9,29.9z M17.9,29.4C17.9,29.4,18,29.4,17.9,29.4c0.1,0,0.1,0.1,0.1,0.1
		C18,29.5,18,29.5,17.9,29.4z M18.6,30.4C18.6,30.4,18.6,30.4,18.6,30.4L18.6,30.4L18.6,30.4z M18.8,31.3c0,0,0-0.1-0.1-0.2
		C18.8,31.1,18.7,31.2,18.8,31.3c0,0.1,0.1,0.1,0.1,0.2c0,0,0,0,0,0C18.8,31.4,18.8,31.3,18.8,31.3z M18.7,30.8
		C18.7,30.7,18.8,30.8,18.7,30.8c0.1,0.1,0.1,0.1,0.1,0.1C18.8,30.8,18.8,30.8,18.7,30.8z M18.9,30.6C18.8,30.5,18.9,30.6,18.9,30.6
		C19.1,30.8,18.9,30.6,18.9,30.6z M19.3,28.8L19.3,28.8C19.3,28.8,19.2,28.7,19.3,28.8z M20.2,26.6c0,0-0.1,0-0.4-0.2
		c0-0.1,0.1-0.1,0.1-0.3c0.2,0.1,0,0.2,0.3,0.4C20.2,26.6,20,26.4,20.2,26.6c0,0,0.1,0,0.1,0.1C20.2,26.7,20.2,26.6,20.2,26.6z
		 M20.8,27.6c0-0.1,0-0.1,0-0.1L20.8,27.6C20.8,27.6,20.8,27.6,20.8,27.6z M21,28c0,0,0-0.1,0-0.1c0,0.1,0.2,0.1,0.2,0.1
		C21.2,28,21.1,28,21,28z M21.2,28.1C21.2,28.1,21.2,28,21.2,28.1C21.3,28,21.4,28.1,21.2,28.1z M21.7,27.2L21.7,27.2
		c0-0.1,0-0.1,0-0.1C21.8,27.1,21.8,27.1,21.7,27.2z M21.9,26.9L21.9,26.9L21.9,26.9c0.1-0.2,0.1-0.4,0.2-0.5
		C22.1,26.6,21.9,26.8,21.9,26.9z M22,26.5L22,26.5l0.1-0.1C22.1,26.4,22,26.5,22,26.5z M22.3,26C22.3,26,22.3,26,22.3,26
		C22.3,26.1,22.2,26.1,22.3,26z M22.3,25.9l0-0.2l0,0L22.3,25.9z M22.4,26.1L22.4,26.1C22.3,26,22.3,26.1,22.4,26.1
		C22.4,26.1,22.4,26.1,22.4,26.1z M22.2,25.2C22.1,25.2,22.1,25.2,22.2,25.2c-0.1,0.2-0.1,0.2-0.2,0.4c-0.1,0.2-0.1,0.3-0.2,0.5
		c-0.1,0.2-0.1,0.3-0.1,0.4c0,0-0.1,0.1-0.1,0.2c-0.1,0.2-0.2,0.2-0.2,0.5c0,0,0,0,0,0c0,0.1-0.1,0.1-0.1,0.2c0,0,0,0,0,0.1
		c0,0-0.1,0-0.1,0.1c0,0,0,0,0,0.1c0,0,0,0,0,0c0,0,0,0,0,0c-0.1,0.1-0.1,0.1-0.2,0.1c0,0,0,0.1,0,0.1c-0.1-0.1,0-0.3-0.1-0.3
		c0-0.1,0-0.2-0.1-0.3c0,0-0.1,0-0.1,0c0-0.1-0.1-0.1-0.1,0c0-0.1-0.1-0.2-0.1-0.3c0-0.1,0-0.1-0.1-0.2c-0.2-0.2-0.2-0.4-0.3-0.6
		C20.1,26,20,25.8,20,25.6c-0.1-0.1-0.1-0.3-0.2-0.5c0,0,0,0,0,0c0-0.2-0.1-0.1-0.1-0.2c0-0.1,0-0.1,0-0.2c-0.1,0-0.1,0-0.1,0
		c-0.1-0.1-0.2-0.3-0.2-0.5c0-0.2,0-0.3,0-0.3c0,0,0-0.1-0.1-0.1c0-0.1,0.1-0.1,0-0.1c0,0,0,0,0,0.1c0,0,0,0,0,0c0,0-0.1,0-0.1-0.1
		c-0.2-0.1-0.2-0.3-0.2-0.2c0-0.1,0-0.3,0-0.4c0-0.1,0-0.1,0.1-0.1c0-0.1-0.1-0.1-0.1-0.1c0-0.1,0-0.1-0.1-0.2
		c0-0.1-0.1-0.1-0.2-0.1c-0.1-0.1-0.4-0.8-0.4-0.9c0,0.1,0,0-0.1,0c0,0,0,0.1,0,0.1c0,0-0.2-0.2-0.2-0.2c0-0.1,0-0.1,0-0.1
		c0-0.1,0,0,0-0.1c0-0.2,0-0.2-0.1-0.3l0,0l0-0.1c0-0.1,0,0.2,0.1,0c0,0-0.1-0.1-0.1-0.1c0,0.1,0.1,0.1,0.1,0c0,0,0-0.1,0-0.1
		l-0.1,0.1c0,0,0-0.1-0.1-0.1c0,0-0.1-0.1-0.2-0.2c-0.1-0.2-0.1-0.3-0.2-0.5c0-0.1-0.1-0.2-0.1-0.4c-0.1-0.2-0.1-0.3-0.1-0.4
		c0,0,0-0.1,0-0.1c0,0-0.2-0.1-0.1-0.2l0,0c0.1,0.1,0-0.1,0-0.2c0,0.1-0.2-0.2-0.1,0.1c-0.1-0.1-0.1-0.1-0.2-0.2
		c-0.1,0-0.1,0-0.1-0.1c0-0.1-0.1-0.1-0.1-0.2c0-0.1-0.1-0.2-0.1-0.3c0-0.1,0-0.2-0.1-0.2c0,0,0,0,0,0c-0.1-0.2-0.1-0.2-0.2-0.3
		c-0.1-0.2-0.1-0.3-0.1-0.3l0.1,0c-0.1-0.3-0.1-0.2-0.2-0.5c0,0,0,0,0,0c-0.1,0-0.1-0.1-0.2-0.3l0,0c-0.1-0.1-0.1-0.1-0.1-0.1
		c0.1,0-0.2-0.2-0.2-0.3c-0.1-0.1-0.2-0.3-0.1-0.4c-0.1,0-0.2-0.2-0.2-0.3c0,0,0,0,0,0c-0.1,0-0.1-0.1-0.2-0.2c0-0.1,0-0.2-0.1-0.3
		c-0.1-0.1-0.1-0.1-0.1,0c0-0.1-0.1-0.3,0-0.5c0-0.1,0-0.3,0.2-0.4c0.2-0.1,0.2-0.1,0.2-0.1c0,0,0,0.1,0,0.1c0.3,0,0-0.2,0.4-0.1
		c0,0-0.1,0-0.1,0c0.1,0,0.2,0.1,0.2,0.2c0,0.1,0,0.2,0.1,0.2c0,0,0-0.1,0-0.1c0.1,0.1,0.1,0.1,0.1,0.2c0.1,0,0.1,0,0.1,0l0-0.1
		c0.3,0,0.2,0,0.4,0l0,0c0,0,0.1-0.1,0.2-0.1c0.1,0,0.1,0,0.1-0.1l-0.1,0c0.2,0,0.2,0,0.4,0c0,0,0.1,0,0.1,0c0,0,0.1,0,0.2-0.1
		c0.1,0,0.3,0,0.3,0c-0.2,0-0.1,0-0.1,0.1c0.1-0.1,0.2,0,0.3,0c0,0,0-0.1,0.1-0.1c0,0,0,0,0,0c0,0,0.1,0,0.2,0c-0.1,0-0.2,0-0.1,0
		c0,0,0.1,0,0.1,0c0,0-0.1,0-0.1,0.1c0.1,0,0.2,0,0.2,0c0,0,0.1,0,0.1,0.1l0.2,0.1l0,0.2c0,0.1,0,0.2-0.1,0.3c0-0.1,0,0-0.1,0
		c0.1,0,0,0.1,0,0.1c0,0,0,0,0,0c0,0,0,0.2,0,0.3c0,0.2,0,0.3,0,0.4c-0.1,0.3-0.1,0.4-0.1,0.4c0,0,0.1,0.1,0.1,0.2l0,0
		c0.1,0.1,0.1,0.2,0.2,0.3c0,0,0,0.1,0.1,0.2c-0.1-0.1-0.1,0-0.1,0.1l0.1,0.2l-0.1,0c0,0.1,0,0.1,0,0.2c0,0,0,0,0,0
		c0.1,0,0.1,0.3,0.2,0.3c-0.1,0.1,0.1,0.2,0,0.3c0,0,0,0.1,0,0.1c0,0,0.1-0.1,0.1,0c0,0,0,0,0,0l0,0c0.1,0,0,0.1,0,0.2
		c0,0,0,0.1,0,0.1l0,0c0,0,0,0,0,0c0,0,0,0.1,0,0.1c0,0.1,0,0.2,0.1,0.3c0,0.1,0.1,0.1,0.1,0.2c0,0.1,0,0.1,0,0.2c0,0,0-0.1,0-0.1
		c0.1,0.2,0,0.4,0.1,0.6l0,0c0.1,0.2,0.1,0.3,0.2,0.4l0.1,0c0,0.1,0.3,0.5,0.3,0.6c0.1,0,0.1,0.2,0.2,0.3l0,0c0,0.1,0.1,0.1,0.1,0.1
		c0,0,0,0,0,0c0.1,0,0.1,0.1,0.2,0.2c0,0,0.1,0.1,0.1,0.1c0,0,0,0.1,0,0.1c-0.1,0,0-0.1-0.1-0.2c-0.1-0.1-0.1-0.1-0.2-0.1
		c0,0.1,0.1,0.1,0.2,0.2c0.1,0.1,0.1,0.1,0.1,0.2c0.1,0.1,0.2,0.2,0.2,0.3l0,0l0.2,0.1c-0.1,0,0.1,0,0.1,0.1c0,0,0.1,0.1,0.1,0.2
		c0,0.1,0.1,0.1,0.1,0.2l0.1,0.1c-0.1-0.1-0.1,0-0.1,0.1c0,0,0.1,0,0.1,0c0,0-0.1,0,0,0c0.1,0,0.2,0.2,0.3,0.2c0,0,0,0,0-0.1
		c0,0,0,0,0,0l0,0l0,0c0,0,0,0,0,0c0,0,0,0,0,0c0,0,0,0,0,0c0.1,0.1,0.1,0.1,0.1,0c0,0.1,0,0.1,0.1,0.2c0-0.1,0-0.1,0.1,0
		c0.2,0,0.3,0.2,0.3,0.1c0.1,0.2,0.1,0.1,0.1,0.2c0-0.1-0.1-0.2-0.3-0.2c-0.1,0-0.2,0-0.2,0c0,0,0,0,0.1,0.1c-0.1,0-0.1,0-0.2,0
		c0,0,0,0,0,0c0,0,0,0,0,0c0,0-0.1-0.1-0.1-0.1c0,0,0.1,0.1,0.1,0.1c0,0,0,0,0,0c0,0,0,0,0-0.1c0-0.1-0.2-0.2-0.3-0.2
		c0.1,0.1-0.1-0.1-0.1,0l0.1,0.1c0,0-0.1,0-0.1,0c-0.1-0.1-0.2-0.3-0.2-0.5c-0.1-0.2-0.2-0.3-0.2-0.3c0,0.1,0.1,0.1,0.2,0.1
		l-0.1-0.1c0.1,0.1,0.1,0.2,0.2,0.3c0,0,0.1,0,0.1-0.1c-0.2-0.4-0.3-0.1-0.5-0.4c0,0,0.1,0,0-0.1c-0.2-0.2-0.4-0.3-0.4-0.2
		c0.1,0,0.2,0.2,0.2,0.3c-0.1-0.1-0.2-0.2-0.2-0.2c0-0.1,0.1,0.1,0.1,0c0-0.1-0.1-0.1-0.1-0.1c0.1,0,0-0.1,0-0.1
		c-0.2-0.1-0.2-0.3-0.3-0.5c0,0,0-0.1,0-0.1c-0.1-0.1-0.3-0.2-0.3-0.1c-0.1-0.1,0-0.2-0.1-0.3c0,0.2,0,0-0.1,0c-0.1-0.1,0-0.1,0-0.1
		c0,0-0.1-0.1-0.1-0.1c0,0,0,0,0,0.1c0-0.1,0-0.1,0-0.1c0-0.1,0.2,0.1,0.2,0c0-0.1,0-0.3,0-0.4c-0.1,0-0.4,0.1-0.4,0.2
		c0,0,0-0.1,0-0.2c0-0.1-0.1-0.2-0.1-0.3l0.1,0.1c0,0-0.1-0.2-0.1-0.2c0,0,0.2,0.1,0.2,0c0-0.3-0.3-0.3-0.4-0.3
		c0.1,0.1,0.1,0.1,0.2,0.3c-0.1,0-0.1-0.2-0.2-0.1c0-0.1-0.1-0.2-0.2-0.4c0,0.1,0.1,0.2,0.1,0.1c-0.1-0.2,0-0.1-0.1-0.2
		c0.2,0.2,0.5,0.3,0.6,0.4c0-0.1-0.1-0.1-0.1-0.2l0-0.1c-0.1-0.1-0.2-0.1-0.3-0.2c-0.1-0.1-0.2-0.1-0.2-0.2c0-0.2,0.1-0.1,0.2-0.1
		c0-0.3-0.2-0.2-0.2-0.5l0,0.1c0-0.1,0-0.3-0.1-0.3c0-0.1,0.1-0.1,0.1-0.1l-0.2-0.2c0,0,0.1,0,0.2,0c0-0.1-0.1-0.1-0.2-0.1
		c0.1-0.2,0-0.1,0.1-0.3c0-0.1-0.1,0-0.1,0.1c0-0.1,0-0.2,0-0.3l0,0l0,0c0,0,0-0.1,0-0.1c0,0,0,0-0.1,0c0.1,0,0.1,0,0.2,0l0,0
		L18.2,17l0,0c0.1,0.2,0.3,0,0.3,0.1l-0.2-0.2c-0.1-0.1-0.2-0.1-0.3-0.1c0,0,0.1,0,0.1,0c0,0-0.1-0.1-0.2-0.3c-0.1-0.2,0-0.4,0-0.6
		l0,0c0,0.1,0.1-0.1,0.1-0.2c0,0,0,0,0,0.1c0.1-0.2-0.1-0.1-0.1-0.3c0,0.1,0.1,0.1,0.1,0.1c-0.1-0.1-0.1-0.4-0.2-0.3c0,0,0,0,0-0.1
		c0,0,0,0.1-0.1,0.2c0,0.2,0.1,0.3,0.1,0.5c0,0.2-0.1,0.4-0.1,0.6c0,0.2,0.2,0.4,0.2,0.6c0,0.2,0,0.4,0,0.6c0,0.2,0,0.4,0.1,0.6
		c0,0.2,0,0.4,0.1,0.6c0.1,0.2,0.2,0.3,0.3,0.5c0.1,0.2,0.1,0.4,0.2,0.6c0.1,0.2,0.1,0.4,0.2,0.6c0.1,0.2,0.2,0.3,0.3,0.5
		c0.1,0.2,0.2,0.3,0.3,0.5c0.1,0.1,0.3,0.2,0.3,0.3c0.1,0.1,0.2,0.3,0.3,0.4c0.1,0.1,0.2,0.2,0.3,0.4c0.1,0.1,0.2,0.4,0.3,0.5
		c0.1,0.1,0.2,0.2,0.3,0.4c0.1,0.1,0.3,0.1,0.4,0.2c0.1,0.1,0.2,0.3,0.3,0.4c0.1,0.1,0.2,0.2,0.3,0.3c0.1,0.1,0.2,0.2,0.4,0.3
		c0,0,0,0,0,0.1C22.3,24.9,22.3,24.9,22.2,25.2z M22.3,19.8c0,0,0.1,0.1,0.1,0.1c-0.3-0.1-0.3-0.6-0.3-0.6c0,0,0-0.1,0-0.1
		c0,0,0-0.1,0-0.2c0,0,0,0.1,0.1,0.1c0,0,0,0.1,0,0.2C22.1,19.4,22.1,19.7,22.3,19.8z M22.3,23.6L22.3,23.6
		C22.2,23.6,22.2,23.6,22.3,23.6C22.2,23.6,22.2,23.6,22.3,23.6L22.3,23.6z M22.2,23.4L22.2,23.4L22.2,23.4L22.2,23.4z M22.1,23.7
		C22.1,23.8,22.1,23.8,22.1,23.7C22.2,23.8,22.2,23.7,22.1,23.7c0-0.1,0-0.1,0-0.1c0,0,0,0,0.1,0c0,0,0,0,0,0l0,0l0,0c0,0,0,0,0.1,0
		c0,0.1,0,0.1,0.1,0.2l0,0l0,0l-0.2-0.2l0,0c0,0.1,0,0.3-0.1,0.2C22.1,23.8,22.1,23.8,22.1,23.7c-0.1,0-0.2-0.1-0.2,0c0,0,0,0,0,0
		l-0.1-0.1c0.1-0.1,0.2,0.1,0.2,0.1C22.1,23.7,22,23.7,22.1,23.7z M22.3,24L22.3,24C22.3,24,22.3,24,22.3,24
		C22.2,24,22.2,24,22.3,24z M21.7,23.2c0.2,0,0.2,0.1,0.2,0.2c0,0,0,0,0,0C21.8,23.3,21.7,23.2,21.7,23.2z M21.7,23.3
		C21.7,23.3,21.7,23.3,21.7,23.3C21.7,23.3,21.7,23.3,21.7,23.3C21.7,23.3,21.7,23.3,21.7,23.3z M21.9,23.4
		C21.9,23.4,21.9,23.4,21.9,23.4C21.9,23.4,22,23.4,21.9,23.4z M21.5,23.3c0,0-0.1,0-0.1,0C21.4,23.3,21.5,23.3,21.5,23.3L21.5,23.3
		z M21.3,23.1C21.3,23.1,21.3,23.1,21.3,23.1L21.2,23C21.2,23,21.2,23.1,21.3,23.1z M20.5,22.3L20.5,22.3L20.5,22.3
		C20.5,22.3,20.5,22.3,20.5,22.3z M20.4,21.9C20.4,21.9,20.3,21.9,20.4,21.9c-0.1-0.1-0.1-0.1-0.1-0.1L20.4,21.9z M20.2,22
		C20.1,21.8,20.2,22,20.2,22C20.3,22.1,20.2,22,20.2,22z M19.1,20.1l0.1,0L19.1,20.1L19.1,20.1z M18.3,18.5c0-0.2-0.1,0-0.1-0.2
		C18.4,18.2,18.3,18.3,18.3,18.5C18.4,18.3,18.4,18.5,18.3,18.5z M22.4,25.9C22.4,25.8,22.4,25.8,22.4,25.9c0-0.1,0-0.1,0-0.1
		L22.4,25.9z M22.5,25.9C22.5,25.8,22.5,25.9,22.5,25.9L22.5,25.9C22.5,25.8,22.5,25.8,22.5,25.9z M22.4,25.3c0.1-0.1,0.1,0,0.1,0.1
		C22.5,25.3,22.4,25.4,22.4,25.3z M22.5,25.2L22.5,25.2C22.4,25.3,22.4,25.2,22.5,25.2C22.4,25.1,22.4,25.1,22.5,25.2
		C22.4,25.1,22.4,25.1,22.5,25.2C22.4,25.2,22.4,25.2,22.5,25.2C22.5,25.1,22.5,25.1,22.5,25.2c0.1-0.1,0.1-0.1,0.2-0.2
		C22.6,25,22.5,25.1,22.5,25.2z M22.7,25L22.7,25L22.7,25L22.7,25l0,0.1c0,0,0,0,0,0L22.7,25z M22.6,25.4L22.6,25.4
		c0-0.1,0-0.1,0-0.2L22.6,25.4C22.7,25.3,22.7,25.3,22.6,25.4C22.7,25.3,22.7,25.3,22.6,25.4z M22.8,25L22.8,25L22.8,25
		C22.8,24.9,22.8,24.9,22.8,25C22.8,24.9,22.8,25,22.8,25C22.8,25,22.8,25,22.8,25C22.8,25,22.8,25,22.8,25z M23,24.9
		c0,0,0,0.1,0,0.1C23,24.9,23,24.8,23,24.9C23,24.8,23,24.8,23,24.9z M22.8,24.3C22.8,24.3,22.8,24.3,22.8,24.3
		C22.8,24.3,22.8,24.3,22.8,24.3C22.8,24.3,22.8,24.3,22.8,24.3L22.8,24.3C22.8,24.3,22.8,24.3,22.8,24.3
		C22.8,24.3,22.8,24.3,22.8,24.3c-0.6,0.2-0.8,0.1-0.2-0.1c-0.1,0-0.1,0-0.1-0.1c0,0-0.1,0-0.1,0c0,0,0.1,0,0.2,0
		c-0.1,0-0.1,0-0.2-0.1l0.2,0.1c0,0,0,0,0,0c0,0-0.1,0-0.1,0c0,0,0.1,0,0.1,0c0.1,0,0.2-0.1,0.3,0c0.8,0.2,0.4,0.1,0.9,0.4
		C24.4,24.5,24.4,24.9,22.8,24.3z M24.4,20.5C24.4,20.5,24.4,20.5,24.4,20.5c0.1,0,0.1,0,0.1,0L24.4,20.5z M26.3,16.9
		c0-0.1,0.1-0.1,0.2-0.3l0.1,0C26.7,16.5,26.4,16.8,26.3,16.9z M26.9,14.6C26.7,14.5,26.8,14.5,26.9,14.6
		C26.9,14.6,26.9,14.6,26.9,14.6c0.2,0.1,0.5,0.4,1.1,0.8c0,0,0.1,0,0,0c0,0,0,0,0,0c-0.2-0.1-0.9-0.4-1.5-0.8
		c0.4,0.1,0.2,0,0.6,0.2C26.4,14.4,26.7,14.5,26.9,14.6z M27.2,14.7c0-0.3,0.2-0.5,0.2-0.5c0,0-0.1,0-0.1,0c0.1,0,0.1,0,0.1,0
		c0.2,0.1,0.4,0.3,0.8,0.7c-0.7-0.5-0.5-0.3-0.8-0.2C27.5,14.8,27.6,15,27.2,14.7c0,0.1,0.1,0.1,0.2,0
		C27.3,14.7,27.3,14.7,27.2,14.7z M30.1,24.5L30.1,24.5L30.1,24.5L30.1,24.5z M30.3,24.5L30.3,24.5C30.3,24.5,30.3,24.6,30.3,24.5z
		 M30.3,24.5L30.3,24.5C30.3,24.5,30.3,24.5,30.3,24.5L30.3,24.5z M30.9,24.5L30.9,24.5C31,24.5,31,24.4,30.9,24.5
		C31,24.4,31,24.5,30.9,24.5z M31.1,24.4C31.1,24.4,31.1,24.4,31.1,24.4C31.1,24.4,31.1,24.4,31.1,24.4L31.1,24.4
		C31.1,24.4,31.1,24.4,31.1,24.4c0,0,0.1-0.1,0.1,0C31.2,24.4,31.2,24.4,31.1,24.4z M31.3,24.3C31.3,24.3,31.3,24.3,31.3,24.3
		L31.3,24.3C31.3,24.4,31.3,24.3,31.3,24.3z M31.6,24.6C31.6,24.6,31.6,24.6,31.6,24.6C31.6,24.6,31.6,24.6,31.6,24.6L31.6,24.6
		C31.6,24.6,31.6,24.6,31.6,24.6L31.6,24.6C31.7,24.6,31.6,24.6,31.6,24.6z M31.7,24.5C31.7,24.5,31.7,24.5,31.7,24.5
		C31.6,24.6,31.6,24.5,31.7,24.5z M31.8,24.6C31.9,24.6,31.8,24.6,31.8,24.6L31.8,24.6C31.9,24.6,31.9,24.6,31.8,24.6z M31.8,24.6
		C31.8,24.5,31.8,24.5,31.8,24.6C31.9,24.5,31.9,24.5,31.8,24.6L31.8,24.6z M31.8,24.5l0.1-0.1l0,0L31.8,24.5z M32.1,24.4
		c0.1,0,0-0.1,0-0.1C32.2,24.4,32.1,24.4,32.1,24.4z M32.2,24.5C32.3,24.6,32.3,24.6,32.2,24.5C32.3,24.6,32.2,24.6,32.2,24.5
		L32.2,24.5c0,0,0,0,0.1,0C32.3,24.5,32.3,24.5,32.2,24.5z M32.2,24.3C32.3,24.3,32.3,24.3,32.2,24.3C32.3,24.3,32.3,24.3,32.2,24.3
		c0.1,0,0.2,0,0.2,0.1c0,0,0,0-0.1,0C32.3,24.3,32.3,24.3,32.2,24.3L32.2,24.3C32.1,24.3,32.2,24.3,32.2,24.3
		C32.2,24.3,32.2,24.3,32.2,24.3z M32.5,24.4L32.5,24.4c-0.1,0-0.1,0.1-0.1,0.1l0,0c0,0,0,0,0,0l0,0C32.4,24.4,32.4,24.4,32.5,24.4
		C32.5,24.4,32.5,24.4,32.5,24.4L32.5,24.4z M32.7,24.4c-0.1,0-0.1,0-0.1,0L32.7,24.4L32.7,24.4C32.6,24.3,32.7,24.3,32.7,24.4
		C32.7,24.3,32.6,24.3,32.7,24.4L32.7,24.4z M32.7,24.1C32.7,24.1,32.6,24,32.7,24.1L32.7,24.1C32.7,24,32.7,24,32.7,24.1L32.7,24.1
		z M32.7,24.4L32.7,24.4l0-0.2C32.8,24.3,32.7,24.4,32.7,24.4z M33.3,24.2L33.3,24.2L33.3,24.2L33.3,24.2z M33.4,23.8
		c0,0.1-0.1,0.1-0.1,0.2c-0.1,0-0.1-0.1-0.1,0c-0.1,0.1,0.1,0,0.1,0.1c-0.1,0.1-0.1,0.1-0.1,0.1l0,0l0,0c0,0,0,0-0.1,0.1
		c0,0,0,0,0,0c-0.1,0-0.1,0-0.2,0c-0.1,0-0.1,0-0.1,0c0,0,0,0,0.1,0.1c0,0,0,0,0,0c0,0,0,0,0,0c0,0,0,0,0,0c0,0,0,0,0,0
		c0,0,0,0-0.1,0l0,0c0,0,0,0,0.1,0c0,0,0,0-0.1,0c0,0,0,0,0,0c0,0,0,0,0,0l0,0c0,0,0,0,0,0c0,0,0,0,0,0c0,0,0,0,0,0c0,0,0,0,0,0
		c0,0,0,0,0,0c0,0,0,0,0,0c0,0,0,0,0,0c0,0,0,0,0,0c0,0,0,0,0,0c0,0,0,0,0,0c0,0,0,0,0,0c0,0,0,0,0,0c0,0,0,0,0,0c0,0,0,0,0,0l0,0
		l0,0l0,0l0,0l0,0l0,0l0,0l0,0l0,0c0,0,0,0,0,0l0,0l0,0l0,0l0,0l0,0l0,0l0,0l0,0l0,0l0,0l0,0l0,0l0,0l0,0v0v0l0,0l0,0v0l0,0v0l0,0
		l0,0l0,0l0,0l0,0c0,0,0,0,0,0c0,0,0,0,0,0c0,0,0,0,0,0c0,0,0,0,0,0c0,0,0-0.1,0.1,0c0,0.1,0,0.1-0.1,0.1c0,0,0,0,0,0
		c0.1,0,0.1,0,0.2,0l0.1,0l0,0c0.1,0,0.1,0,0.2,0l0.1,0l0,0c0,0-0.1-0.1-0.1-0.1c0,0-0.1-0.1,0-0.1c0,0,0,0,0,0
		C33.2,23.9,33.3,23.8,33.4,23.8C33.3,23.8,33.3,23.8,33.4,23.8L33.4,23.8L33.4,23.8C33.4,23.8,33.4,23.8,33.4,23.8L33.4,23.8z
		 M32.9,22.3C32.9,22.3,32.9,22.2,32.9,22.3L32.9,22.3C32.9,22.3,32.9,22.3,32.9,22.3z M32.9,22.6C32.9,22.6,32.9,22.6,32.9,22.6
		L32.9,22.6L32.9,22.6z M33,23.9C33,23.9,33,23.9,33,23.9C33.1,23.9,33,23.9,33,23.9L33,23.9z M33.2,23.2
		C33.2,23.2,33.2,23.3,33.2,23.2C33.2,23.3,33.2,23.3,33.2,23.2L33.2,23.2z M33.2,23.5L33.2,23.5L33.2,23.5L33.2,23.5z M33.3,23.6
		L33.3,23.6L33.3,23.6L33.3,23.6z M33.3,23.3C33.3,23.3,33.3,23.4,33.3,23.3L33.3,23.3c0.1-0.1,0-0.1-0.1-0.2c0,0.1-0.1-0.1-0.1,0
		l0,0.1c0,0-0.1,0-0.1-0.1c0.1-0.2-0.1-0.5-0.1-0.6c0,0,0,0.1,0.1,0.1l0-0.1c0,0.1,0,0.1,0.1,0.2c0,0,0.1,0,0.2-0.1
		c0-0.2-0.2-0.1-0.2-0.3c0,0,0.1,0,0-0.1c-0.1-0.2-0.3-0.2-0.4-0.2c0.1,0,0.2,0.1,0.1,0.2c-0.1,0-0.1-0.1-0.2-0.1
		c0-0.1,0.1,0.1,0.1,0c0,0-0.1,0-0.1,0c0,0,0-0.1,0-0.1c-0.1-0.1-0.1-0.2-0.2-0.4c0,0,0,0,0,0c-0.1-0.1-0.2-0.1-0.3-0.1
		c0-0.1,0-0.1-0.1-0.2c0,0.2,0,0-0.1,0c0-0.1,0,0,0-0.1c0,0,0,0-0.1,0c0-0.1,0.2,0,0.2-0.1c0-0.1-0.1-0.3-0.1-0.3
		c-0.1,0-0.3,0.2-0.3,0.3c0,0,0-0.1-0.1-0.2c0-0.2-0.1-0.1-0.1-0.2c0,0,0,0,0.1,0c0,0-0.1-0.1-0.1-0.1c0,0,0.1,0,0.2-0.1
		c-0.1-0.1-0.2-0.2-0.3-0.2c0,0,0,0-0.1,0l0,0c0.1,0.1,0.1,0.1,0.2,0.2c0,0.1-0.2-0.1-0.2-0.1l0-0.1c0,0,0,0,0,0.1
		c0.1,0.2,0.2,0.2,0.3,0.4c0.1,0.2,0.2,0.2,0.3,0.4c0.1,0.2,0.1,0.3,0.2,0.5c0.1,0.2,0.1,0.2,0.3,0.5c0.1,0.2,0.1,0.3,0.2,0.5
		c0.1,0.2,0,0.3,0.1,0.6c0,0.1,0,0.1,0.1,0.1c0,0-0.1,0-0.1,0c-0.1,0-0.3-0.1-0.4,0c-0.1,0-0.2,0.3-0.4,0.3c-0.1,0-0.3,0-0.4,0
		c-0.1,0-0.3,0-0.4,0c-0.1,0-0.3-0.1-0.4-0.1c-0.1,0-0.3,0.1-0.4,0.2c-0.1,0-0.3-0.1-0.4-0.1c0,0.1,0.1,0.3,0,0.3l0.1,0
		c0,0.1-0.2-0.1-0.2,0c0,0-0.1-0.1-0.2-0.1c0,0,0,0.1,0,0.1c0,0-0.1,0,0,0c-0.1,0-0.1,0-0.2-0.1c-0.1,0-0.1,0-0.2,0
		c-0.1,0.1-0.3,0-0.4,0c-0.2,0-0.5-0.1-0.6-0.2c0,0,0,0,0,0c0-0.1-0.1,0-0.1,0l-0.1-0.1c-0.1,0,0,0.1,0,0.1c-0.1,0-0.1,0-0.2,0
		c0,0-0.1,0-0.1,0c-0.1,0-0.3,0-0.4-0.1c-0.1-0.1,0.1-0.1,0-0.1c0,0.1-0.1,0-0.1,0c0,0-0.1,0-0.1,0l0,0L27,23.7c0,0,0.1-0.1,0.1-0.1
		c0,0,0,0,0,0c0-0.1,0-0.2,0-0.3c0,0,0,0,0,0c0-0.1,0-0.1,0-0.2c0,0,0.1-0.2,0.3-0.3c0,0,0,0,0,0c0,0,0-0.1,0-0.1c0,0,0,0,0,0
		c0,0,0,0,0,0l0,0c0,0,0-0.1,0-0.1c0,0,0,0,0,0c0,0,0,0,0,0c0,0,0,0,0-0.1c0-0.1,0-0.1,0-0.2l0,0l0-0.1c0-0.1,0,0.2,0.1,0.1
		c0,0-0.1-0.1,0-0.2c0,0.1,0,0.1,0,0.1l0-0.1c0,0,0,0,0,0c0,0,0,0,0,0l-0.1,0c0.1-0.1,0.1-0.2,0.2-0.3c0,0,0,0,0,0c0,0,0,0,0-0.1
		c0-0.1,0.1-0.2,0.1-0.2c0,0,0,0,0,0c0-0.1,0-0.1,0.1-0.2c0-0.1,0.1-0.1,0.1-0.2c0,0,0.1,0,0.2-0.1c0-0.1,0-0.1,0-0.1c0,0,0,0,0,0
		c0,0,0,0,0,0c0,0,0-0.1,0-0.1c0-0.1,0.1-0.3,0.1-0.4c0,0,0,0,0,0c0-0.1,0.1-0.3,0.2-0.3c0.1,0,0.1-0.1,0.1-0.1l0,0c0,0,0,0,0-0.1
		c0-0.1,0-0.2,0.1-0.3c0,0,0-0.1,0-0.1c0,0,0,0,0,0c0-0.1,0-0.1,0.1-0.2c0,0,0,0,0,0c0,0,0,0,0,0c0-0.1,0-0.1,0-0.1
		c0-0.1,0.1-0.2,0.1-0.2c0,0,0,0,0,0c0-0.1,0-0.1,0.1-0.2c0,0,0,0,0,0c0,0,0-0.1,0-0.1c0,0,0,0,0,0c-0.1-0.1,0.1-0.2,0.2-0.3
		c0-0.1,0-0.1-0.1-0.1c0.2-0.1,0.1-0.3,0.1-0.3c0,0,0.1,0,0.1,0c0,0,0,0,0,0c0,0,0,0,0,0c0,0-0.1,0,0-0.2c0,0,0,0.1,0,0.1
		c0,0,0.1-0.1,0.1-0.1c0.1-0.2,0.1-0.3,0.3-0.3c0,0,0,0,0-0.1l0-0.1c0.2-0.1,0-0.1,0.2-0.2l0,0c0.1,0,0.2,0,0.2,0c0,0,0,0,0,0
		c0.1,0,0.1,0.1,0.1,0.1c0,0,0,0,0,0.1c0-0.1,0,0,0.1,0.1c0.1,0.1,0.1,0.2,0.1,0.3c-0.1-0.1-0.1,0-0.1,0c0.1,0,0.1,0,0.1,0.1
		c0.1-0.1,0.2-0.2,0.3,0.1c0,0-0.1-0.1-0.1,0c0,0,0,0.1,0.1,0.1c0,0-0.1,0-0.1,0c0.2,0.1,0.1,0.2,0.2,0.3c0,0,0,0-0.1,0
		c0.1,0,0,0.2,0.1,0.1c0,0.1,0,0.1,0,0.2c0,0.1,0.1,0.1,0.1,0.2c0.1,0.2,0.2,0.3,0.1,0.4c0,0,0,0.1,0,0.2l0,0c0.1,0.1,0,0.1,0.1,0.2
		c-0.1,0-0.1,0-0.1,0.1c0,0,0.1,0,0.1,0l-0.1,0.1c0,0,0.1,0,0.1,0.1c0,0,0,0,0,0c0,0,0.1-0.1,0.2,0c0.1,0.1,0.2,0.1,0.2,0.1
		c-0.1,0.1,0.1,0.2,0,0.3c0,0,0,0.1,0,0.1c0,0,0.1-0.1,0.1,0c0,0,0,0,0,0l0.1,0c0.1,0,0,0.1-0.1,0.2c0,0,0,0,0,0.1l0,0l0,0
		c0,0,0,0,0,0.1c0,0,0,0.1,0,0.1c0.1,0.1,0.1,0.1,0.1,0.2c0,0,0-0.1,0-0.1c0.1,0.1,0.1,0.4,0.2,0.4l0,0c0,0,0,0,0.1,0
		c0,0,0.1,0.1,0.1,0.1l0.1,0c0.1,0.2,0.3,0.4,0.2,0.5c0.1,0,0.1,0.2,0.1,0.2l0,0c0,0.1,0.1,0.1,0.1,0.1c0,0,0,0,0,0
		c0,0,0.1,0.1,0.1,0.1c0,0,0,0.1,0,0.1c0,0,0-0.1,0-0.1c0-0.1-0.1-0.1-0.1-0.1c0,0.2,0.2,0.4,0.3,0.6l0,0c0,0.1,0,0.1,0.1,0.1
		c0,0,0,0,0,0.1c0,0,0.1,0.1,0.1,0.2c0,0,0,0.1,0,0.1c-0.1-0.2-0.1,0-0.1,0l0.1,0.1c0,0,0,0-0.1,0c0,0,0.1,0.1,0.1,0.1c0,0,0,0,0,0
		c0,0,0,0,0,0l0,0l0,0c0,0,0,0,0,0c0,0.1,0,0,0,0c0,0.1,0,0.1,0,0.2c0-0.1,0-0.1,0.1,0c0.1,0.1,0.1,0.2,0.1,0.1c0,0.1,0,0.1,0,0.1
		c0-0.1-0.2-0.3-0.2-0.3c0,0,0,0.1,0,0.1C33.3,23.5,33.3,23.3,33.3,23.3z M32.8,22.4C32.8,22.5,32.7,22.4,32.8,22.4
		C32.7,22.3,32.8,22.4,32.8,22.4z M32.2,21.1l0.1-0.1L32.2,21.1L32.2,21.1z M33.4,23.1C33.5,23,33.4,23.1,33.4,23.1
		C33.3,22.9,33.5,23.1,33.4,23.1z M33.4,23.1C33.4,23.1,33.4,23.1,33.4,23.1C33.4,23.1,33.4,23.1,33.4,23.1
		C33.4,23.1,33.4,23.1,33.4,23.1z M33.5,23.3C33.5,23.3,33.6,23.3,33.5,23.3C33.6,23.3,33.6,23.3,33.5,23.3
		C33.5,23.3,33.5,23.3,33.5,23.3z M33.5,23.5c0.1,0.1,0.1,0.1,0,0.1c0,0,0,0,0,0C33.5,23.6,33.4,23.5,33.5,23.5z M33.5,23.7
		C33.5,23.7,33.5,23.7,33.5,23.7C33.5,23.7,33.6,23.7,33.5,23.7z M33.7,23.9l0,0.2l-0.1,0l0,0l0,0l0,0l0,0l0,0L33.7,23.9l0-0.2l0,0
		l0,0l0.1,0.1L33.7,23.9z M36.1,29.9c0,0.1,0.1,0.2,0,0.2C36,29.8,36,29.8,36,29.8c0,0,0,0,0,0c0,0-0.2-0.2-0.3-0.4
		c0-0.2,0-0.1,0.1,0c0,0.1,0.1,0.1,0.1,0.2c0,0,0.1,0.1,0.1,0.1c0,0,0,0,0.1,0.1C36.1,29.8,36.1,29.8,36.1,29.9c0,0,0-0.1,0-0.1
		C36,29.7,36,29.8,36.1,29.9z M36.3,29.3c0,0,0,0-0.1-0.1c0,0,0,0,0-0.1c0,0,0,0,0,0.1C36.3,29.2,36.3,29.2,36.3,29.3
		c0.1,0,0.2,0.2,0.3,0.3C36.5,29.5,36.4,29.3,36.3,29.3z M36.9,31.7C37,31.6,37,31.6,36.9,31.7c0.1-0.1,0.1,0,0.1,0L36.9,31.7z
		 M36.9,31.6l0.2-0.1l0,0L36.9,31.6z M36.9,20.6c-0.1,0.1-0.1,0.4-0.2,0.6c-0.1,0.1-0.2,0.2-0.4,0.3c-0.2-0.2-0.1-0.3-0.2-0.5
		c-0.1-0.2,0-0.3-0.2-0.5c-0.1-0.2-0.2-0.2-0.3-0.4c-0.1-0.2-0.1-0.3-0.2-0.5c-0.1-0.2-0.1-0.3-0.2-0.5c-0.1-0.2-0.1-0.2-0.2-0.5
		C35,18.3,35,18.2,34.9,18c-0.1-0.2-0.2-0.2-0.3-0.4c-0.1-0.2-0.1-0.3-0.2-0.5c-0.1-0.2-0.1-0.2-0.2-0.4c-0.1-0.2,0-0.3-0.1-0.5
		c-0.1-0.2-0.1-0.2-0.2-0.5c-0.1-0.2-0.2-0.1-0.3-0.4c-0.1-0.1-0.1-0.2-0.2-0.3c0.1-0.2,0.2-0.1,0.3,0c0-0.1,0.1-0.2,0.1-0.2l0,0
		l0,0.1l0,0.1c0,0,0.1,0,0.1,0c0.2,0,0.2,0,0.4,0c0.2,0,0.2,0.1,0.4,0.1s0.3,0.2,0.4,0c0.1-0.1,0.1-0.2,0-0.4c0-0.1,0-0.3,0-0.5
		c0-0.2-0.1-0.3-0.1-0.4c0-0.2,0-0.3,0-0.5c0-0.3,0-0.3,0-0.6c0-0.2,0-0.3,0-0.4c0-0.1,0-0.2-0.1-0.3c-0.1-0.2-0.1,0-0.3,0
		c-0.2,0-0.2-0.1-0.4-0.1c-0.2,0-0.2-0.1-0.4-0.1c-0.2,0-0.2,0-0.4,0c-0.2,0-0.2,0.2-0.4,0.2c-0.2,0-0.2,0.1-0.4,0.1
		c-0.2,0-0.2-0.1-0.4-0.1c-0.2,0-0.2-0.1-0.4-0.1c-0.2,0-0.2,0.1-0.4,0.1c-0.2,0-0.2-0.2-0.4-0.2c-0.2,0-0.2,0.1-0.4,0.1
		c-0.2,0-0.2-0.2-0.4-0.2c-0.2,0-0.2,0.2-0.4,0.2c-0.2,0-0.2,0-0.4,0c-0.2,0-0.2-0.1-0.4-0.1s-0.2,0-0.4,0c-0.2,0-0.2,0.1-0.4,0.1
		c-0.1,0-0.2,0-0.2,0c0,0,0,0,0,0c0,0,0,0,0,0c0,0-0.1,0-0.2,0c-0.2,0-0.2,0.1-0.4,0.1c-0.2,0-0.2-0.2-0.4-0.2c-0.2,0-0.2,0-0.4,0
		c-0.2,0-0.2,0-0.4,0c-0.2,0-0.2,0.3-0.4,0.3s-0.3-0.5-0.5-0.2c0,0-0.1,0.1-0.1,0.1c0,0-0.1,0-0.1,0.1c-0.1,0.2,0,0.4,0,0.7
		c0,0.3,0.1,0.3,0.1,0.6c0,0.3,0,0.3,0,0.6c0,0.3-0.1,0.3-0.1,0.6c0,0.3,0,0.3,0.1,0.5c0.1,0.2,0.1,0.2,0.3,0.2
		c0.2,0,0.2-0.1,0.4-0.1c0,0,0,0,0,0c0,0,0,0,0,0c0,0,0,0,0,0c0.1,0,0.1-0.1,0.3-0.1c0.2,0,0.3-0.1,0.3,0.2c-0.1,0-0.1,0.1-0.2,0.2
		c0,0,0,0.1,0,0.1c0,0-0.1,0.1-0.1,0.1c-0.1,0.3,0,0.4-0.1,0.6c0,0.1-0.1,0.1-0.1,0.3c0,0,0,0.1-0.1,0.1c0,0,0,0,0,0
		c-0.1,0.1-0.1,0.1-0.2,0.3c0,0,0,0.1,0,0.1c0,0-0.1,0.1-0.1,0.2c-0.1,0.3-0.1,0.3-0.2,0.6c-0.1,0.3-0.1,0.3-0.2,0.5
		c-0.1,0.3-0.1,0.3-0.2,0.5c-0.1,0.3-0.1,0.3-0.2,0.5c-0.1,0.1-0.1,0.2-0.1,0.3c-0.1,0.2-0.2,0.1-0.3,0.3c0,0.1,0,0.1,0,0.2
		c0,0-0.1,0.1-0.1,0.2c-0.1,0.3,0,0.4-0.1,0.6c0,0,0,0,0,0c0,0,0,0.1-0.1,0.2c0,0.1,0,0.1-0.1,0.2c-0.1,0.1-0.1,0.1-0.2,0.3
		c-0.1-0.1-0.2-0.1-0.3-0.2c-0.1-0.1-0.3-0.1-0.4-0.3c-0.1-0.1-0.1-0.4-0.2-0.5c-0.1-0.1-0.1-0.4-0.2-0.5c-0.1-0.1-0.3-0.1-0.4-0.3
		c-0.1-0.2,0-0.4-0.1-0.6c-0.1-0.2-0.1-0.4-0.2-0.5c0,0,0,0,0,0c-0.1-0.2-0.2-0.3-0.2-0.5c0-0.2,0-0.4-0.1-0.6
		c0-0.2-0.1-0.4-0.1-0.6c0-0.2,0-0.4,0-0.6c0-0.2,0-0.4,0-0.6c0-0.2,0-0.4,0-0.6c0-0.2,0-0.4,0-0.6c0-0.2,0-0.4,0.1-0.6
		c0-0.2,0-0.4,0.1-0.6c0.1-0.2,0.2-0.3,0.3-0.4c0.1-0.2,0.1-0.3,0.2-0.5c0.1-0.2,0.1-0.4,0.2-0.5c0.1-0.2,0.2-0.3,0.3-0.4
		c0.1-0.1,0.2-0.2,0.3-0.4c0.1-0.1,0.2-0.3,0.3-0.4c0,0,0,0,0,0c0,0-0.1,0.1-0.1,0.1c0.1-0.2,0.1-0.2,0.2-0.4c0,0,0,0,0,0.1
		c0-0.1,0.1-0.2,0.1-0.2c0.1-0.1,0.1-0.1,0.2-0.2c0,0,0,0,0,0c0.1-0.1,0.1-0.1,0.2-0.2c0.1-0.1,0.2-0.2,0.2-0.3
		c0.1-0.1,0.2-0.1,0.3-0.2c0,0,0,0,0.1,0c0,0,0,0,0,0c0,0,0.1-0.1,0,0c-0.1,0.1-0.1,0.1-0.1,0.1c-0.1,0.1-0.2,0.1-0.3,0.1
		c0,0,0.2-0.2,0.4-0.3l0,0c0.2-0.1,0.1,0,0,0.1c0,0,0,0,0,0c0.1-0.1,0.2-0.1,0.3-0.2c0.1-0.1,0.3,0,0.4-0.1c0,0,0.1-0.1,0.1-0.1
		c0,0,0,0,0,0c0.1,0,0.1-0.2,0.2-0.2c0.1-0.1,0.3,0,0.4-0.1c0,0,0.1-0.1,0.1-0.1c0,0,0,0,0,0c0.1,0,0.1-0.2,0.2-0.4
		c0.1,0,0.3,0,0.4-0.1c0.1-0.1,0.2-0.2,0.4-0.3c0.1,0,0.3,0.2,0.4,0.1c0.1,0,0.3-0.1,0.4-0.1c0.1,0,0.2-0.3,0.4-0.3
		c0.1,0,0.3,0.2,0.4,0.2c0.1,0,0.3-0.1,0.4-0.1c0.1,0,0.3-0.1,0.4-0.1c0.1,0,0.3,0.1,0.4,0.1c0.1,0,0.3,0.1,0.4,0.1
		c0.1,0,0.3,0,0.4,0c0.1,0,0.2-0.1,0.4-0.1c-0.1-0.1-0.1-0.2-0.2-0.4l-0.1,0l-0.2,0l0.2,0c-0.2-0.5-0.3-1-0.4-1.4
		c0,0.1,0.1,0.2,0.2,0.4c0,0,0.1-0.1,0.1-0.2l0.1,0c0.1,0-0.1,0.2-0.2,0.3c0.1,0.3,0.3,0.7,0.5,1.2c0,0,0,0,0,0c0,0,0,0,0,0
		c0,0,0,0,0,0c0,0,0,0,0,0c0,0.1-0.1,0.1-0.1,0.1c0,0,0,0,0,0c0.1,0,0.3,0.1,0.4,0.1c0.1,0,0.3,0.1,0.4,0.1c0.1,0,0.3,0,0.4,0.1
		c0.1,0,0.3,0,0.4,0.1C33,7.7,33.1,8,33.2,8c0.1,0.1,0.3-0.2,0.4-0.1C33.8,8,33.9,8.3,34,8.3c0.1,0.1,0.3,0,0.4,0.1
		c0.1,0.1,0.2,0.2,0.4,0.3c0.1,0.1,0.3,0,0.4,0.1c0.1,0.1,0.2,0.4,0.3,0.5c0.1,0.1,0.3,0.1,0.4,0.2c0.1,0.1,0.2,0.3,0.3,0.4
		c0.1,0.1,0.2,0.3,0.3,0.4c0.1,0.1,0.3,0.1,0.4,0.2c0.1,0.1,0.2,0.2,0.3,0.4c0.1,0.1,0.2,0.3,0.3,0.5c0.1,0.1,0.2,0.2,0.3,0.4
		c0,0.1,0,0.3,0.1,0.4c0,0,0,0,0,0c0,0.1,0,0.1,0,0.2c0.1,0.2,0.2,0.3,0.2,0.5c0.1,0.2,0.2,0.2,0.3,0.4c0,0.2,0,0.3,0.1,0.5
		c0,0.2,0.1,0.4,0.2,0.6c0,0.2-0.1,0.4-0.1,0.6c0,0.1,0,0.2,0.1,0.2c0,0,0,0,0,0c0,0.1,0.1,0.2,0.1,0.3v0c0,0.2-0.2,0.4-0.2,0.6
		c0,0.2,0,0.4,0,0.6c0,0.2,0,0.4,0,0.6c0,0.2-0.1,0.4-0.1,0.5c0,0.2-0.1,0.4-0.1,0.6c-0.1,0.2-0.2,0.3-0.2,0.5
		c-0.1,0.2-0.2,0.2-0.3,0.4c-0.1,0.2-0.2,0.3-0.2,0.4c-0.1,0.1-0.1,0.4-0.2,0.5C37.1,20.4,37,20.5,36.9,20.6z M38.2,18.9
		C38.2,18.9,38.2,18.9,38.2,18.9C38.2,18.8,38.3,18.7,38.2,18.9z M37.6,31.4C37.6,31.4,37.6,31.4,37.6,31.4
		C37.6,31.4,37.6,31.4,37.6,31.4C37.7,31.5,37.7,31.5,37.6,31.4c0.2,0.1,0.2,0.1,0.2,0.2C37.8,31.6,37.7,31.5,37.6,31.4L37.6,31.4
		C37.5,31.4,37.6,31.4,37.6,31.4C37.6,31.4,37.6,31.4,37.6,31.4z M37.5,31.5C37.6,31.6,37.5,31.6,37.5,31.5
		C37.5,31.6,37.4,31.5,37.5,31.5z M37.6,31.8c0,0-0.1,0-0.1-0.1L37.6,31.8C37.6,31.7,37.6,31.7,37.6,31.8L37.6,31.8
		C37.6,31.7,37.6,31.8,37.6,31.8z M37.9,31.7L37.9,31.7l-0.2,0c0,0,0,0,0,0L37.9,31.7L37.9,31.7L37.9,31.7z M37.9,31.7L37.9,31.7
		L37.9,31.7c0.1,0,0.1,0,0.1,0C38,31.7,38,31.7,37.9,31.7L37.9,31.7C37.9,31.8,37.9,31.7,37.9,31.7z M38,31.9L38,31.9L38,31.9
		C38,31.8,38,31.8,38,31.9z M38.4,32C38.4,31.9,38.3,31.9,38.4,32c0.1,0,0.2,0,0.2,0C38.5,31.9,38.5,32,38.4,32z M39.5,31.7
		c-0.1,0,0-0.1-0.2-0.1C39.2,31.7,39.4,31.8,39.5,31.7c-0.2,0.1-0.2,0.1-0.2,0.1l0,0l0,0c0,0,0,0-0.1,0c-0.1,0-0.1-0.1-0.2-0.1
		l-0.2,0l0,0c0,0,0.1,0,0.1,0c0,0-0.1,0-0.1,0c0,0-0.1,0-0.1,0c-0.1,0-0.1,0-0.2,0c-0.1,0,0,0,0,0c0,0-0.1,0-0.1,0c0,0-0.1,0-0.1,0
		c0,0,0,0,0,0c0,0,0.1,0,0.1,0c0,0,0.1,0,0.1,0c0,0,0,0,0,0c0.1,0,0.1,0,0.2,0c0,0,0.1,0,0.1,0c-0.2,0,0.1-0.1-0.1-0.1
		c0.1,0,0-0.1,0.2-0.1c0.1,0.1-0.1,0.1-0.1,0.1c0.1,0,0.2,0,0.2,0l0,0l0,0l0.2,0l0,0c-0.1-0.1-0.2-0.3,0-0.3c0.1,0.1,0.3,0,0.3,0
		c0,0,0,0,0,0c0,0,0.1,0,0.1,0C39.7,31.7,39.4,31.7,39.5,31.7z M38.4,31.6l0.1,0.1c-0.1,0-0.1,0-0.2,0
		C38.3,31.6,38.2,31.6,38.4,31.6L38.4,31.6z M39.6,27.6c-0.1,0-0.1,0-0.2-0.1C39.5,27.6,39.5,27.7,39.6,27.6c0.2,0.1-0.1,0.4,0,0.4
		c-0.3-0.1-0.4-0.1-0.5-0.2c0,0,0.1,0.1,0.1,0.1c0.1,0,0.1,0,0.1,0c0,0-0.1,0.1-0.2,0c0,0,0-0.1,0-0.1c-0.1,0-0.1-0.1-0.3-0.2
		c0.4-0.2,0.5-0.1,0.6-0.1C39.3,27.4,39.4,27.4,39.6,27.6z M39.4,28.1C39.4,28.1,39.4,28,39.4,28.1C39.5,28,39.6,28.1,39.4,28.1z
		 M39,31.6L39,31.6C39,31.5,39,31.5,39,31.6C39.1,31.6,39.1,31.6,39,31.6z M39.7,31.8C39.7,31.8,39.7,31.8,39.7,31.8
		C39.7,31.8,39.6,31.8,39.7,31.8z M39.9,31.8L39.9,31.8L39.9,31.8L39.9,31.8z M39.9,27.2c0,0,0-0.1,0-0.1C40,27.1,40,27.1,39.9,27.2
		L39.9,27.2z M40.1,31.7L40.1,31.7C40.1,31.7,40.2,31.7,40.1,31.7C40.2,31.7,40.2,31.7,40.1,31.7z M40.1,26.9L40.1,26.9L40.1,26.9
		c0.1-0.2,0.1-0.4,0.2-0.5C40.3,26.6,40.1,26.8,40.1,26.9z M40.2,26.5L40.2,26.5l0.1-0.1C40.3,26.4,40.2,26.5,40.2,26.5z M40.5,26
		C40.5,26.1,40.5,26,40.5,26C40.5,26.1,40.5,26.1,40.5,26z M40.6,25.9l0-0.2l0,0L40.6,25.9z M40.6,26.1L40.6,26.1
		C40.6,26,40.6,26.1,40.6,26.1C40.6,26.1,40.6,26.1,40.6,26.1C40.6,26.1,40.6,26.2,40.6,26.1z M40.7,25.8l0,0.1
		C40.6,25.9,40.6,25.8,40.7,25.8C40.6,25.8,40.6,25.8,40.7,25.8z M40.7,30.2L40.7,30.2C40.6,30.2,40.6,30.2,40.7,30.2z M40.7,25.9
		C40.7,25.9,40.7,26,40.7,25.9L40.7,25.9C40.7,25.8,40.8,25.8,40.7,25.9z M40.7,25.4c0-0.1-0.1-0.1-0.1-0.1
		C40.8,25.2,40.8,25.4,40.7,25.4z M40.7,25.2L40.7,25.2C40.6,25.3,40.7,25.2,40.7,25.2C40.7,25.2,40.7,25.2,40.7,25.2
		C40.7,25.1,40.7,25.1,40.7,25.2C40.7,25.2,40.7,25.2,40.7,25.2C40.7,25.1,40.7,25.1,40.7,25.2c0.1-0.1,0.1-0.1,0.2-0.1
		C40.9,25,40.8,25.1,40.7,25.2z M40.9,25L40.9,25L40.9,25L40.9,25l0,0.1c0,0,0,0,0,0L40.9,25z M40.9,25.4L40.9,25.4
		c0-0.1,0-0.1,0-0.2L40.9,25.4C40.9,25.3,41,25.3,40.9,25.4C41,25.3,40.9,25.4,40.9,25.4z M41,25L41,25L41,25c0-0.1,0.1-0.1,0.1-0.1
		C41.1,24.9,41.1,24.9,41,25L41,25C41.1,25,41,25,41,25z M41.1,24.6c0,0,0,0,0-0.1l0,0l0.1-0.1C41.1,24.5,41.1,24.6,41.1,24.6z
		 M41.2,24.9L41.2,24.9C41.2,24.9,41.2,25,41.2,24.9L41.2,24.9z M41.4,24.7C41.4,24.6,41.4,24.7,41.4,24.7c0-0.1,0-0.2,0-0.2
		C41.5,24.5,41.5,24.6,41.4,24.7z M41.7,23.9c-0.1,0-0.1,0.1-0.1,0.1l-0.1,0.2l0,0c0,0,0,0,0.1-0.1c0,0,0,0.1-0.1,0.1
		c0,0,0,0.1-0.1,0.1c0,0.1,0,0.1-0.1,0.2c0,0.1,0,0-0.1,0c0,0,0,0.1-0.1,0.1c0,0,0,0.1,0,0.1c0,0,0,0,0,0c0,0,0-0.1,0-0.1
		c0,0,0-0.1,0-0.1c0,0,0,0,0,0c0-0.1,0.1-0.1,0.1-0.2c0,0,0-0.1,0-0.1c-0.1,0.1,0-0.1-0.1,0.1c0-0.1,0-0.1,0-0.2
		c0.1,0,0.1,0.1,0.1,0.1c0-0.1,0.1-0.2,0.1-0.2l0,0l0,0l0.1-0.2l0,0c-0.1,0.1-0.3,0-0.3-0.1c0.1-0.1,0.1-0.2,0.1-0.3c0,0,0,0,0,0
		c0,0,0-0.1,0.1-0.1c0.1,0,0,0.3,0.1,0.2c-0.1,0.1-0.1,0-0.1,0.2c0,0.1,0.1-0.1,0.2-0.1c0,0.1,0,0.1,0,0.2l0,0l0,0
		C41.7,23.8,41.7,23.8,41.7,23.9z M41.3,23.9C41.3,23.9,41.3,23.9,41.3,23.9C41.3,23.8,41.3,23.8,41.3,23.9L41.3,23.9z M41.7,23.7
		L41.7,23.7L41.7,23.7L41.7,23.7z M41.7,23.4C41.7,23.4,41.8,23.3,41.7,23.4C41.7,23.4,41.7,23.4,41.7,23.4z M41.8,23.1L41.8,23.1
		L41.8,23.1L41.8,23.1z M41.8,23c0,0,0-0.1,0-0.1C41.8,22.9,41.8,22.9,41.8,23L41.8,23z M41.8,23.5C41.8,23.5,41.8,23.5,41.8,23.5
		L41.8,23.5L41.8,23.5z M41.8,23.3C41.8,23.3,41.8,23.3,41.8,23.3c0.1-0.1,0.1-0.2,0.1-0.1C41.9,23.2,41.8,23.4,41.8,23.3z
		 M41.9,22.7C41.9,22.6,41.9,22.6,41.9,22.7c0-0.1,0-0.1,0-0.2C41.9,22.5,41.9,22.6,41.9,22.7z M42.2,23.1
		C42.2,23,42.1,23,42.2,23.1c0-0.1,0-0.1,0-0.2C42.2,22.9,42.2,23,42.2,23.1z M42.2,22.6C42.2,22.6,42.2,22.6,42.2,22.6
		C42.2,22.5,42.2,22.5,42.2,22.6C42.2,22.5,42.2,22.5,42.2,22.6z M42.3,22.4C42.3,22.4,42.2,22.4,42.3,22.4
		C42.3,22.2,42.3,22.5,42.3,22.4z M42.3,21.6L42.3,21.6L42.3,21.6C42.3,21.6,42.3,21.6,42.3,21.6z M42.4,21.2
		C42.4,21,42.4,21.2,42.4,21.2C42.4,21.3,42.4,21.2,42.4,21.2z M42.6,21.2C42.6,21.3,42.6,21.2,42.6,21.2c0-0.1,0-0.2,0-0.1
		C42.6,21.2,42.6,21.2,42.6,21.2z M43,21c0,0-0.1,0.1-0.1,0.1C42.9,21.1,42.9,21,43,21c0-0.1,0.1-0.1,0.1-0.2c0,0,0,0,0,0
		C43.1,20.9,43.1,20.9,43,21z M43.1,19.3C43.1,19.3,43.1,19.3,43.1,19.3C43.1,19.3,43.1,19.3,43.1,19.3z M43.3,19.2L43.3,19.2l0.1,0
		L43.3,19.2z M43.9,17.5C43.9,17.4,43.8,17.6,43.9,17.5c0-0.1-0.2,0,0-0.2C44,17.3,44,17.4,43.9,17.5z M44,17.1
		c-0.1,0.2-0.2,0.2-0.3,0.4c-0.1,0.2,0,0.3-0.2,0.5c-0.1,0.2-0.1,0.2-0.3,0.4c-0.1,0.2-0.2,0.2-0.3,0.4c-0.1,0.2-0.1,0.3-0.2,0.5
		c-0.1,0.2-0.1,0.2-0.2,0.5c-0.1,0.2,0,0.3-0.1,0.6c-0.1,0.2-0.1,0.2-0.2,0.5c-0.1,0.2-0.1,0.3-0.2,0.5c-0.1,0.2-0.2,0.2-0.3,0.4
		c-0.1,0.2-0.1,0.2-0.2,0.5c-0.1,0.2,0,0.4-0.1,0.6c-0.1,0.2-0.2,0.2-0.3,0.4c-0.1,0.2-0.1,0.2-0.2,0.5c-0.1,0.2-0.1,0.2-0.2,0.5
		c-0.1,0.2-0.1,0.2-0.3,0.4c-0.1,0.2-0.1,0.2-0.2,0.5c-0.1,0.2-0.1,0.2-0.2,0.5c-0.1,0.2,0,0.3-0.2,0.6c-0.1,0.2-0.1,0.2-0.3,0.5
		c-0.1,0.2-0.2,0.2-0.2,0.5c-0.1,0.3,0,0.4-0.2,0.4l0,0c0,0,0,0,0,0.1c0,0,0-0.1,0-0.1c0,0,0,0,0,0c0,0,0,0,0,0c0,0,0-0.1,0-0.1
		c0-0.1,0-0.2,0-0.3c-0.1-0.2-0.1-0.2-0.2-0.5c-0.1-0.2-0.2-0.2-0.3-0.4c-0.1-0.2-0.1-0.2-0.2-0.5c-0.1-0.2-0.1-0.3-0.2-0.5
		c-0.1-0.2-0.1-0.2-0.2-0.5c0-0.1,0-0.1-0.1-0.1c0.1,0,0.2-0.1,0.3-0.1c0.1-0.1,0.1-0.4,0.3-0.5c0.1-0.1,0.3,0,0.4-0.1
		c0.1-0.1,0.2-0.3,0.3-0.4c0.1-0.1,0.2-0.2,0.3-0.3c0.1-0.1,0.2-0.4,0.3-0.5c0.1-0.1,0.3-0.1,0.4-0.2c0.1-0.1,0.1-0.4,0.2-0.5
		c0.1-0.1,0.2-0.2,0.3-0.4c0.1-0.2,0.2-0.3,0.3-0.4c0.1-0.2,0.1-0.4,0.1-0.6c0.1-0.2,0.1-0.4,0.2-0.5c0.1-0.2,0.2-0.3,0.2-0.5
		c0.1-0.2,0.1-0.4,0.1-0.6c0.1-0.2,0.2-0.3,0.3-0.5c0-0.2,0.1-0.4,0.1-0.6c0-0.2-0.1-0.4-0.1-0.6c0-0.2,0.1-0.4,0.1-0.6
		c0-0.2,0-0.4,0-0.6c0-0.2,0.2-0.3,0.1-0.5c0-0.2-0.1-0.5-0.1-0.6c0.2-0.1,0.2,0.3,0.4,0.3c0.2,0,0.2-0.1,0.4-0.1
		c0.2,0,0.2-0.1,0.4-0.1c0.2,0,0.2,0,0.4,0c0.2,0,0.2-0.1,0.4-0.1c0.2,0,0.2,0.1,0.4,0.1c0.2,0,0.2,0.1,0.4,0.1c0,0,0.1,0,0.1,0
		c0,0,0,0.1-0.1,0.1c-0.1,0.2-0.2,0.2-0.3,0.4c-0.1,0.2,0,0.4-0.1,0.6c-0.1,0.2-0.1,0.2-0.3,0.4C44.1,16.8,44.1,16.8,44,17.1z
		 M44.7,16.1c0.1,0,0.1,0.1,0.1,0.2c-0.1,0-0.1,0-0.2,0l0,0l0,0l0,0C44.7,16.2,44.7,16.2,44.7,16.1z M44.4,17.7
		C44.4,17.7,44.5,17.7,44.4,17.7l0.1-0.1C44.6,17.7,44.5,17.7,44.4,17.7z M44.8,25.8c-0.1,0.1-0.2,0.2-0.2,0.3
		c0,0.1-0.1,0.1-0.1,0.2c0,0.1-0.1,0.2-0.1,0.3c0,0-0.1,0.1-0.1,0.2c0.1-0.3,0.1-0.3,0.2-0.5c0-0.1,0.1-0.1,0.1-0.2
		C44.6,26,44.7,25.9,44.8,25.8c0.1,0,0.1-0.1,0.3-0.5C45,25.4,45,25.8,44.8,25.8z M46.4,12c-0.1,0-0.2,0-0.3,0
		C46.2,12,46.3,12,46.4,12c0-0.1,0.1-0.1,0.2-0.1c0,0,0,0,0,0c0,0,0,0,0,0c0,0,0.1,0,0.1,0C46.6,12,46.5,12,46.4,12z M47.6,19.6
		c-0.1,0.2-0.1,0.3-0.1,0.3c0,0,0-0.1,0.1-0.1c0-0.1,0-0.2,0.1-0.3c0.1-0.1,0.1-0.2,0.1-0.1C47.6,19.5,47.7,19.4,47.6,19.6z
		 M48,18.9c-0.1,0.1-0.1,0.2-0.2,0.3C47.9,19.1,47.9,19,48,18.9C47.9,18.9,48,18.8,48,18.9C47.9,19,47.9,19,48,18.9
		c0,0,0.1-0.1,0.1-0.3C48.1,18.7,48,18.8,48,18.9z M48.1,18.7c0.1-0.2,0.1-0.2,0.1-0.2C48.1,18.6,48.1,18.6,48.1,18.7z M48.7,17.2
		l0.2-0.5c-0.1,0.1,0,0.1,0,0.1C48.9,16.9,48.8,17,48.7,17.2z M49.3,12.1C49.3,12.1,49.3,12,49.3,12.1C49.4,12,49.4,12,49.3,12.1
		C49.4,12,49.4,12,49.3,12.1c0.3-0.1,0.2-0.1,0.3-0.1c0,0,0,0,0,0s0,0,0,0c0,0,0,0,0,0C49.5,12,49.5,12,49.3,12.1
		C49.6,12,49.4,12.1,49.3,12.1z M49.8,14.8c-0.1,0.1-0.2,0.2-0.2,0.3C49.6,15,49.7,14.8,49.8,14.8C49.8,14.7,49.8,14.8,49.8,14.8z
		 M50.3,12.1c-0.1,0-0.2,0-0.2,0c-0.2,0-0.4-0.2-0.3-0.1c0,0-0.1,0-0.1,0c0,0,0,0,0.1,0c0,0,0,0,0,0c0,0,0,0,0.1,0.1
		c0.1,0,0.2,0.1,0.2,0.1C50.1,12.1,50.2,12,50.3,12.1c-0.3,0-0.4-0.1-0.3,0C50,12.1,50.1,12.1,50.3,12.1c0,0,0.2-0.1,0.2-0.1
		C50.4,12,50.3,12.1,50.3,12.1z M50.9,14.3c-0.2,0-0.3,0.2-0.4,0.4c0.1-0.3,0.3-0.4,0.6-0.4C51,14.2,50.9,14.2,50.9,14.3z M51,12.2
		c0,0-0.1,0-0.2,0c0.1,0,0,0-0.1,0c-0.1,0-0.1,0-0.2-0.1c0.1,0,0.1,0,0.1,0C50.7,12.1,50.9,12.1,51,12.2C51,12.1,51.1,12.2,51,12.2
		C51.1,12.2,51,12.2,51,12.2z M51.1,12.1c-0.1,0-0.1,0-0.2,0c-0.1,0-0.3,0-0.3,0c0.1,0,0.2,0,0.3,0c0.1,0,0.1,0,0,0
		C51,12,51,12.1,51.1,12.1c0.1,0,0.2,0,0.3,0C51.2,12.1,51.1,12.1,51.1,12.1z M51.1,12c-0.1,0-0.1,0-0.2,0c0,0,0,0,0,0l0,0
		c0,0,0,0,0,0c-0.1,0-0.2,0-0.2,0c0,0,0.1,0,0.2,0c0,0,0,0,0,0L51.1,12c0,0,0.2,0,0.4,0l0.2,0C51.4,12,51.3,12,51.1,12z M51.9,14.3
		C51.9,14.3,51.9,14.3,51.9,14.3C51.9,14.3,51.9,14.3,51.9,14.3C51.9,14.3,51.9,14.3,51.9,14.3C51.9,14.3,51.9,14.3,51.9,14.3
		c-0.1,0-0.1,0-0.2,0C51.8,14.3,51.9,14.3,51.9,14.3z M52.1,14.8L52.1,14.8c-0.1,0-0.1,0-0.2-0.1C51.6,14.5,51.8,14.6,52.1,14.8z
		 M53.2,11.8C53.2,11.9,53.2,11.9,53.2,11.8C53.2,11.9,53.1,12,53,12c-0.1,0-0.2,0-0.2,0c-0.1,0-0.2,0-0.2-0.1c0.4,0.2,0.4,0,0.4,0
		c0,0-0.1,0,0.1-0.1C53.3,11.7,53.3,11.8,53.2,11.8z M53.6,12.9c0,0.1,0,0.2,0,0.3C53.6,13.1,53.6,13,53.6,12.9
		c0-0.2,0.1-0.4,0.1-0.5C53.7,12.5,53.6,12.7,53.6,12.9z M53.7,12c-0.1,0-0.3,0-0.3,0c0,0,0,0,0.1,0.1c0.1,0,0.1,0,0.1,0.1
		c0,0-0.1,0-0.1,0c0,0,0,0,0,0c0,0,0,0-0.1,0c0,0,0,0,0.1,0l0,0c0,0,0,0,0,0C53.4,11.9,53.6,11.9,53.7,12c0.1,0,0.1,0,0.1,0
		C53.8,11.9,53.8,11.9,53.7,12z M53.8,12.5C53.8,12.5,53.8,12.5,53.8,12.5C53.8,12.5,53.8,12.5,53.8,12.5
		C53.8,12.5,53.8,12.5,53.8,12.5c0-0.1,0-0.1,0-0.1C53.9,12.4,53.8,12.4,53.8,12.5c0-0.1,0-0.3,0.1-0.4c0,0.1,0,0.2,0,0.2l0,0
		C53.9,12.4,53.9,12.4,53.8,12.5C53.8,12.5,53.8,12.5,53.8,12.5z"/>
	<path d="M23.4,10.4C23.4,10.4,23.5,10.4,23.4,10.4C23.4,10.4,23.4,10.4,23.4,10.4L23.4,10.4z"/>
	<polygon points="38.8,31.8 38.8,31.8 38.8,31.8 	"/>
	<polygon points="51.3,14.7 51.3,14.7 51.3,14.7 	"/>
	<path d="M32,20.4C32,20.4,32,20.4,32,20.4c-0.2-0.1-0.4-0.2-0.4-0.3c0-0.1,0.2,0,0.2,0c0-0.2-0.2-0.2-0.2-0.3c0,0,0,0,0,0
		c0,0,0-0.1,0-0.1c0,0,0.1-0.1,0.1-0.1c-0.1,0-0.1,0-0.2,0.1c0,0,0.1-0.1,0.1-0.1c-0.1,0-0.2,0-0.2,0.1c-0.1-0.2-0.1-0.1-0.1-0.3
		c0,0-0.1,0.1-0.1,0.1c-0.1-0.1-0.1-0.2-0.1-0.2l0,0l0,0c0-0.1,0-0.1-0.1-0.2c0.1,0,0.1,0.1,0.2,0.1c0,0-0.1,0.1-0.1,0.1l0,0
		c0.1,0.2,0.3,0,0.3,0c-0.1,0-0.3-0.2-0.4-0.3c0,0,0.1,0,0.1,0c-0.1-0.1-0.1-0.2-0.2-0.4l0,0c0,0,0-0.1-0.1-0.1c0,0,0,0,0,0
		c0-0.1-0.2-0.1-0.2-0.2c0,0.1,0.1,0.1,0.1,0.1c-0.1-0.1-0.1-0.3-0.2-0.2c0-0.1,0-0.1,0-0.1c0-0.1-0.1-0.1-0.1-0.2c0,0,0.1,0,0,0
		c0,0.1,0.1,0.2,0.1,0.3c0.1,0,0.1-0.1,0.2,0c-0.1-0.2-0.3-0.3-0.4-0.3c0,0,0-0.1,0-0.1l0,0c0,0,0-0.1,0-0.1c0,0-0.1,0-0.1,0
		c0,0,0,0,0,0c0,0,0,0,0,0c0,0,0.1-0.1,0.1-0.1l0,0c-0.1,0-0.2,0-0.2,0.1l0-0.1c-0.1,0,0,0-0.1,0c0-0.1,0-0.1,0-0.1
		c0,0.1-0.1-0.3-0.1-0.1c0,0.1,0,0.2,0,0.2c0,0,0-0.1,0-0.1c0,0,0,0.1,0,0.1c0,0,0-0.1,0-0.1c0,0.1,0,0.1,0,0.1
		c0.1,0.2,0.2,0.1,0.3,0.4c0.1,0.2,0.1,0.3,0.2,0.5c0.1,0.2,0.2,0.2,0.3,0.4c0.1,0.2,0,0.4,0.1,0.6s0.2,0.1,0.4,0.4
		c0.1,0.2,0,0.3,0,0.5c0,0,0,0,0,0c0-0.2,0-0.1,0-0.2c0,0.1,0.1,0.2,0.2,0.2c0.1,0,0.2,0.1,0.3,0C32,20.5,32,20.4,32,20.4L32,20.4z
		 M31.5,20c0-0.1-0.1,0,0-0.1C31.6,19.9,31.5,19.9,31.5,20C31.5,20,31.5,20.1,31.5,20z"/>
</g>
<g id="Home-V2">
	<g id="Desktop-HD-V2.A" transform="translate(-170.000000, -806.000000)">
		<g id="ACTIVE-AUCTIONS" transform="translate(0.000000, 750.000000)">
			<g id="Gun-Broker" transform="translate(170.000000, 56.000000)">
				<g id="img_gunbroker_logo">
					<path id="Fill-1" class="st0" d="M36.5,34.8v11.1c14.4,0,19.4-2.5,19.4-5.5C55.9,37.3,50.9,34.8,36.5,34.8"/>
					<path id="Fill-2" class="st1" d="M41.5,40.9c0,0.2-0.9,0.4-1.5,0.4c-1.3,0-2-0.6-2-1.7c0-1.2,0.7-1.8,2-1.8
						c0.6,0,1.4,0.1,1.4,0.3v0.6c0,0.1,0,0.1-0.1,0.1h-0.6c-0.1,0-0.1,0-0.1-0.1v-0.4c-0.2,0-0.3-0.1-0.5-0.1c-0.8,0-1,0.5-1,1.2
						c0,0.8,0.2,1.3,1,1.3c0.3,0,0.5-0.1,0.5-0.1v-0.8h-0.6c-0.1,0-0.2,0-0.2-0.1v-0.3c0-0.1,0-0.1,0.2-0.1h1.8c0.1,0,0.2,0,0.2,0.1
						v0.3c0,0.1,0,0.1-0.2,0.1h-0.4V40.9"/>
					<path id="Fill-3" class="st1" d="M46.6,40.1c0,0.8-0.4,1.2-1.7,1.2c-1.4,0-1.7-0.5-1.7-1.2v-1.8h-0.4c-0.1,0-0.2,0-0.2-0.1
						v-0.3c0-0.1,0-0.1,0.2-0.1h1.7c0.1,0,0.2,0,0.2,0.1v0.3c0,0.1,0,0.1-0.2,0.1h-0.4v1.8c0,0.4,0,0.7,0.8,0.7
						c0.7,0,0.8-0.3,0.8-0.7v-1.8h-0.4c-0.1,0-0.2,0-0.2-0.1v-0.3c0-0.1,0-0.1,0.2-0.1h1.7c0.1,0,0.2,0,0.2,0.1v0.3
						c0,0.1,0,0.1-0.2,0.1h-0.4V40.1"/>
					<path id="Fill-4" class="st1" d="M51.5,40.9c0,0.1,0,0.1-0.2,0.1h-0.5c-0.1,0-0.1,0-0.2-0.1l-1.4-1.6c-0.2-0.3-0.3-0.4-0.4-0.6
						h0c0,0.2,0,0.3,0,0.5v1.3h0.4c0.1,0,0.2,0,0.2,0.1V41c0,0.1,0,0.1-0.2,0.1h-1.6c-0.1,0-0.2,0-0.2-0.1v-0.3c0-0.1,0-0.1,0.2-0.1
						h0.4v-2.3h-0.4c-0.1,0-0.2,0-0.2-0.1v-0.3c0-0.1,0-0.1,0.2-0.1h1.1c0.1,0,0.1,0,0.2,0.1l1.2,1.5c0.2,0.3,0.4,0.5,0.5,0.7h0
						c0-0.2,0-0.5,0-0.6v-1.1h-0.4c-0.1,0-0.2,0-0.2-0.1v-0.3c0-0.1,0-0.1,0.2-0.1H52c0.1,0,0.2,0,0.2,0.1v0.3c0,0.1,0,0.1-0.2,0.1
						h-0.4L51.5,40.9"/>
					<path id="Fill-5" class="st2" d="M38.8,42.5v-0.4h0.1c0.1,0,0.2,0,0.2,0.2C39.1,42.4,39,42.5,38.8,42.5L38.8,42.5L38.8,42.5z
						 M38.8,43.1v-0.4h0.1c0.2,0,0.3,0,0.3,0.2S39.1,43.1,38.8,43.1L38.8,43.1L38.8,43.1z M38.3,41.9C38.3,41.9,38.3,41.9,38.3,41.9
						l0,0.2c0,0,0,0,0,0h0.1v1.1h-0.1c0,0,0,0,0,0v0.1c0,0,0,0,0,0h0.6c0.3,0,0.6-0.1,0.6-0.4c0-0.2-0.2-0.3-0.3-0.4
						c0.1,0,0.3-0.1,0.3-0.3c0-0.3-0.3-0.4-0.6-0.4L38.3,41.9L38.3,41.9z"/>
					<path id="Fill-6" class="st2" d="M40.3,42.5v-0.4h0.1c0.1,0,0.2,0,0.2,0.2S40.5,42.5,40.3,42.5L40.3,42.5L40.3,42.5z
						 M41.1,43.2C41.1,43.1,41.1,43.1,41.1,43.2l-0.1,0l-0.3-0.5c0.1,0,0.3-0.1,0.3-0.4c0-0.4-0.3-0.4-0.5-0.4h-0.5c0,0,0,0,0,0V42
						c0,0,0,0,0,0h0.1v1.1h-0.1c0,0,0,0,0,0v0.1c0,0,0,0,0,0h0.5c0,0,0,0,0,0v-0.1c0,0,0,0,0,0h-0.1v-0.4h0.1l0.3,0.6c0,0,0,0,0,0
						H41C41,43.3,41,43.3,41.1,43.2L41.1,43.2L41.1,43.2z"/>
					<path id="Fill-7" class="st2" d="M41.9,43.1c-0.2,0-0.3-0.2-0.3-0.5s0.1-0.5,0.3-0.5c0.2,0,0.3,0.2,0.3,0.5
						C42.2,42.9,42.1,43.1,41.9,43.1L41.9,43.1z M42.6,42.6c0-0.5-0.2-0.8-0.6-0.8c-0.4,0-0.6,0.2-0.6,0.8c0,0.5,0.2,0.8,0.6,0.8
						C42.3,43.3,42.6,43.1,42.6,42.6L42.6,42.6z"/>
					<path id="Fill-8" class="st2" d="M43.8,43.3C43.8,43.3,43.8,43.3,43.8,43.3l-0.3,0c0,0,0,0-0.1,0L43,42.7l0,0v0.5h0.1
						c0,0,0,0,0,0v0.1c0,0,0,0,0,0h-0.5c0,0,0,0,0,0v-0.1c0,0,0,0,0,0h0.1V42h-0.1c0,0,0,0,0,0v-0.1c0,0,0,0,0,0h0.5c0,0,0,0,0,0V42
						c0,0,0,0,0,0H43v0.5l0,0l0.5-0.6c0,0,0,0,0,0h0.2c0,0,0,0,0,0V42c0,0,0,0,0,0h-0.1l-0.4,0.5l0.5,0.6h0.1
						C43.8,43.1,43.8,43.1,43.8,43.3L43.8,43.3"/>
					<path id="Fill-9" class="st2" d="M45.1,43.3C45.1,43.3,45.1,43.3,45.1,43.3l-1,0c0,0,0,0,0,0v-0.1c0,0,0,0,0,0h0.1V42h-0.1
						c0,0,0,0,0,0v-0.1c0,0,0,0,0,0H45c0,0,0,0,0,0v0.3c0,0,0,0,0,0h-0.2c0,0,0,0,0,0v-0.1h-0.3v0.4h0.4c0,0,0,0,0,0v0.1
						c0,0,0,0,0,0h-0.4v0.4h0.3V43c0,0,0,0,0,0H45c0,0,0,0,0,0V43.3"/>
					<path id="Fill-10" class="st2" d="M45.8,42.5v-0.4h0.1c0.1,0,0.2,0,0.2,0.2S46,42.5,45.8,42.5L45.8,42.5L45.8,42.5z M46.6,43.2
						C46.6,43.1,46.6,43.1,46.6,43.2l-0.1,0l-0.3-0.5c0.1,0,0.3-0.1,0.3-0.4c0-0.4-0.3-0.4-0.5-0.4h-0.5c0,0,0,0,0,0V42c0,0,0,0,0,0
						h0.1v1.1h-0.1c0,0,0,0,0,0v0.1c0,0,0,0,0,0h0.5c0,0,0,0,0,0v-0.1c0,0,0,0,0,0h-0.1v-0.4h0.1l0.3,0.6c0,0,0,0,0,0h0.3
						C46.5,43.3,46.5,43.3,46.6,43.2L46.6,43.2L46.6,43.2z"/>
					<path id="Fill-11" class="st2" d="M47.1,43.3c-0.1,0-0.3-0.1-0.3-0.3c0-0.1,0.1-0.3,0.3-0.3s0.3,0.1,0.3,0.3
						C47.3,43.2,47.2,43.3,47.1,43.3"/>
					<path id="Fill-12" class="st2" d="M48.6,43.2c0,0.1-0.2,0.1-0.4,0.1c-0.4,0-0.6-0.2-0.6-0.7c0-0.5,0.2-0.8,0.6-0.8
						c0.1,0,0.4,0.1,0.4,0.1v0.3c0,0,0,0,0,0h-0.2c0,0,0,0,0,0v-0.2c0,0-0.1,0-0.1,0c-0.2,0-0.3,0.1-0.3,0.5c0,0.3,0,0.6,0.3,0.6
						c0,0,0.1,0,0.1,0v-0.2c0,0,0,0,0,0h0.2c0,0,0,0,0,0L48.6,43.2"/>
					<path id="Fill-13" class="st2" d="M49.2,43.1c-0.2,0-0.3-0.2-0.3-0.5s0.1-0.5,0.3-0.5c0.2,0,0.3,0.2,0.3,0.5
						C49.5,42.9,49.4,43.1,49.2,43.1L49.2,43.1z M49.9,42.6c0-0.5-0.2-0.8-0.6-0.8c-0.4,0-0.6,0.2-0.6,0.8c0,0.5,0.2,0.8,0.6,0.8
						C49.6,43.3,49.9,43.1,49.9,42.6L49.9,42.6z"/>
					<path id="Fill-14" class="st2" d="M51.5,43.3C51.5,43.3,51.5,43.3,51.5,43.3l-0.5,0c0,0,0,0,0,0v-0.1c0,0,0,0,0,0h0.1l0-0.6
						c0-0.1,0-0.3,0-0.3l0,0c0,0.1,0,0.3-0.1,0.3L50.9,43c0,0,0,0,0,0h-0.1c0,0,0,0,0,0l-0.1-0.4c0-0.1-0.1-0.3-0.1-0.3l0,0
						c0,0.1,0,0.3,0,0.3v0.6h0.1c0,0,0,0,0,0v0.1c0,0,0,0,0,0h-0.5c0,0,0,0,0,0v-0.1c0,0,0,0,0,0h0.1l0-1.1h-0.1c0,0,0,0,0,0v-0.1
						c0,0,0,0,0,0h0.4c0,0,0,0,0,0l0.2,0.5c0,0.1,0,0.2,0.1,0.3l0,0c0-0.1,0-0.2,0.1-0.3l0.2-0.5c0,0,0,0,0,0h0.4c0,0,0,0,0,0V42
						c0,0,0,0,0,0h-0.1l0.1,1.1h0.1c0,0,0,0,0,0L51.5,43.3"/>
					<path id="Fill-15" class="st2" d="M51.9,42.1c0-0.1,0.1-0.3,0.3-0.3c0.1,0,0.3,0.1,0.3,0.3c0,0.1-0.1,0.3-0.3,0.3
						C52,42.3,51.9,42.2,51.9,42.1L51.9,42.1z M52.1,42.3c0.1,0,0.2-0.1,0.2-0.2c0-0.1-0.1-0.2-0.2-0.2c-0.1,0-0.2,0.1-0.2,0.2
						C51.9,42.2,52,42.3,52.1,42.3L52.1,42.3z"/>
					<path id="Fill-16" class="st2" d="M52.3,42.1C52.3,42.1,52.3,42.1,52.3,42.1L52.3,42.1L52.3,42.1L52.2,42h0V42h0l0,0v0l0,0
						h-0.1l0,0v0l0,0h0v-0.2h0l0,0v0l0,0h0.1c0,0,0.1,0,0.1,0.1C52.3,41.9,52.3,42,52.3,42.1L52.3,42.1L52.3,42.1
						C52.3,42,52.3,42,52.3,42.1L52.3,42.1L52.3,42.1z M52.2,41.9C52.2,41.9,52.2,41.9,52.2,41.9C52.2,41.8,52.2,41.8,52.2,41.9
						L52.2,41.9L52.2,41.9L52.2,41.9L52.2,41.9z"/>
				</g>
			</g>
		</g>
	</g>
</g>
<g>
	<path d="M8.9,39.7c0-0.3,0-0.6,0-0.8h0.4l0,0.4h0c0.2-0.3,0.5-0.5,0.9-0.5c0.6,0,1,0.5,1,1.2c0,0.9-0.5,1.3-1.1,1.3
		c-0.3,0-0.6-0.1-0.7-0.4h0v1.3H8.9V39.7z M9.3,40.3c0,0.1,0,0.1,0,0.2C9.4,40.8,9.7,41,10,41c0.5,0,0.7-0.4,0.7-0.9
		c0-0.5-0.3-0.9-0.7-0.9c-0.3,0-0.6,0.2-0.7,0.5c0,0.1,0,0.1,0,0.2V40.3z"/>
	<path d="M13.9,40.1c0,0.9-0.6,1.3-1.2,1.3c-0.7,0-1.2-0.5-1.2-1.2c0-0.8,0.5-1.3,1.2-1.3C13.5,38.8,13.9,39.3,13.9,40.1z M12,40.1
		c0,0.5,0.3,0.9,0.7,0.9c0.4,0,0.7-0.4,0.7-0.9c0-0.4-0.2-0.9-0.7-0.9C12.2,39.1,12,39.6,12,40.1z"/>
	<path d="M14.6,38.9l0.3,1.2c0.1,0.3,0.1,0.5,0.2,0.8h0c0.1-0.2,0.1-0.5,0.2-0.8l0.4-1.2h0.4l0.4,1.2c0.1,0.3,0.2,0.5,0.2,0.8h0
		c0-0.2,0.1-0.5,0.2-0.8l0.3-1.2h0.4l-0.8,2.4h-0.4l-0.4-1.2c-0.1-0.3-0.2-0.5-0.2-0.8h0c-0.1,0.3-0.1,0.5-0.2,0.8l-0.4,1.1h-0.4
		l-0.7-2.4H14.6z"/>
	<path d="M18.3,40.2c0,0.6,0.4,0.8,0.8,0.8c0.3,0,0.5-0.1,0.7-0.1l0.1,0.3c-0.2,0.1-0.4,0.2-0.8,0.2c-0.7,0-1.2-0.5-1.2-1.2
		c0-0.7,0.4-1.3,1.1-1.3c0.8,0,1,0.7,1,1.1c0,0.1,0,0.2,0,0.2H18.3z M19.6,39.8c0-0.3-0.1-0.7-0.6-0.7c-0.4,0-0.6,0.4-0.7,0.7H19.6z
		"/>
	<path d="M20.6,39.6c0-0.3,0-0.5,0-0.8h0.4l0,0.5h0c0.1-0.3,0.4-0.5,0.7-0.5c0.1,0,0.1,0,0.1,0v0.4c0,0-0.1,0-0.1,0
		c-0.3,0-0.5,0.2-0.6,0.6c0,0.1,0,0.1,0,0.2v1.3h-0.4V39.6z"/>
	<path d="M22.4,40.2c0,0.6,0.4,0.8,0.8,0.8c0.3,0,0.5-0.1,0.7-0.1l0.1,0.3c-0.2,0.1-0.4,0.2-0.8,0.2c-0.7,0-1.2-0.5-1.2-1.2
		c0-0.7,0.4-1.3,1.1-1.3c0.8,0,1,0.7,1,1.1c0,0.1,0,0.2,0,0.2H22.4z M23.7,39.8c0-0.3-0.1-0.7-0.6-0.7c-0.4,0-0.6,0.4-0.7,0.7H23.7z
		"/>
	<path d="M26.7,37.7v2.9c0,0.2,0,0.5,0,0.6h-0.4l0-0.4h0c-0.1,0.3-0.4,0.5-0.8,0.5c-0.6,0-1-0.5-1-1.2c0-0.8,0.5-1.3,1.1-1.3
		c0.4,0,0.6,0.2,0.7,0.4h0v-1.4H26.7z M26.3,39.9c0-0.1,0-0.1,0-0.2c-0.1-0.3-0.3-0.5-0.6-0.5c-0.5,0-0.7,0.4-0.7,0.9
		c0,0.5,0.2,0.9,0.7,0.9c0.3,0,0.6-0.2,0.6-0.5c0-0.1,0-0.1,0-0.2V39.9z"/>
	<path d="M28.5,41.3c0-0.2,0-0.4,0-0.6v-2.9h0.4v1.5h0c0.2-0.3,0.4-0.4,0.8-0.4c0.6,0,1,0.5,1,1.2c0,0.9-0.5,1.3-1.1,1.3
		c-0.3,0-0.6-0.1-0.8-0.5h0l0,0.4H28.5z M28.9,40.3c0,0.1,0,0.1,0,0.2c0.1,0.3,0.3,0.5,0.7,0.5c0.5,0,0.7-0.4,0.7-0.9
		c0-0.5-0.2-0.9-0.7-0.9c-0.3,0-0.6,0.2-0.7,0.5c0,0.1,0,0.1,0,0.2V40.3z"/>
	<path d="M31.5,38.9l0.5,1.4c0.1,0.2,0.1,0.3,0.2,0.5h0c0-0.1,0.1-0.3,0.2-0.5l0.5-1.4h0.5l-0.7,1.7c-0.3,0.8-0.5,1.3-0.8,1.5
		c-0.2,0.2-0.4,0.3-0.5,0.3L31.1,42c0.1,0,0.3-0.1,0.4-0.2c0.1-0.1,0.3-0.3,0.4-0.5c0,0,0-0.1,0-0.1s0-0.1,0-0.1L31,38.9H31.5z"/>
	<path d="M33.7,39.3c0-0.2,0.1-0.3,0.3-0.3c0.2,0,0.3,0.1,0.3,0.3c0,0.2-0.1,0.3-0.3,0.3C33.8,39.6,33.7,39.4,33.7,39.3z M33.7,41
		c0-0.2,0.1-0.3,0.3-0.3c0.2,0,0.3,0.1,0.3,0.3c0,0.2-0.1,0.3-0.3,0.3C33.8,41.3,33.7,41.2,33.7,41z"/>
</g>
</svg>
