<svg xmlns="http://www.w3.org/2000/svg" viewBox="0 0 188.28 31.06"><defs><style>.a{fill:#af1f23;}</style></defs><title>5-stars</title><polygon class="a" points="21.37 10.22 32.65 11.87 24.48 19.82 26.4 31.06 16.32 25.75 6.22 31.05 8.16 19.81 0 11.85 11.28 10.22 16.33 0 21.37 10.22"/><polygon class="a" points="60.28 10.22 71.56 11.87 63.39 19.82 65.31 31.06 55.23 25.75 45.13 31.05 47.06 19.81 38.91 11.85 50.19 10.22 55.24 0 60.28 10.22"/><polygon class="a" points="99.19 10.22 110.47 11.87 102.3 19.82 104.22 31.06 94.13 25.75 84.04 31.05 85.97 19.81 77.81 11.85 89.1 10.22 94.15 0 99.19 10.22"/><polygon class="a" points="138.09 10.22 149.37 11.87 141.21 19.82 143.13 31.06 133.04 25.75 122.95 31.05 124.88 19.81 116.72 11.85 128 10.22 133.05 0 138.09 10.22"/><polygon class="a" points="177 10.22 188.28 11.87 180.11 19.82 182.03 31.06 171.95 25.75 161.85 31.05 163.79 19.81 155.63 11.85 166.91 10.22 171.96 0 177 10.22"/></svg>