<svg xmlns="http://www.w3.org/2000/svg" viewBox="0 0 57.5 57.5"><defs><style>.a{fill:#2c1e0f;}.b{fill:#fff;}</style></defs><title>circle-2-icon</title><circle class="a" cx="28.75" cy="28.75" r="28.75"/><path class="b" d="M19.24,43.22V39.47l9.23-9.89a22.1,22.1,0,0,0,2.84-3.87,6.26,6.26,0,0,0,.84-2.92,4.37,4.37,0,0,0-1-2.95,3.39,3.39,0,0,0-2.75-1.15,3.58,3.58,0,0,0-3,1.34,5.79,5.79,0,0,0-1,3.58H18.83l0-.12A8.63,8.63,0,0,1,21.33,17a9.51,9.51,0,0,1,7.1-2.68,9.91,9.91,0,0,1,6.93,2.3,7.81,7.81,0,0,1,2.53,6.11,8.63,8.63,0,0,1-1.42,4.78,45.78,45.78,0,0,1-4.71,5.72l-5.07,5.54,0,.1h7.41L34.36,36h4.35v7.21Z"/></svg>