<svg xmlns="http://www.w3.org/2000/svg" viewBox="0 0 57.5 57.5"><defs><style>.a{fill:#2c1e0f;}.b{fill:#fff;}</style></defs><title>circle-3-icon</title><circle class="a" cx="28.75" cy="28.75" r="28.75"/><path class="b" d="M25.24,26.32h3.21a3.85,3.85,0,0,0,3-1.07,4.18,4.18,0,0,0,1-3,3.86,3.86,0,0,0-1-2.77,3.72,3.72,0,0,0-2.84-1,4,4,0,0,0-2.7.94,3.09,3.09,0,0,0-1.1,2.46H19.28l0-.11a6.49,6.49,0,0,1,2.57-5.53,10.24,10.24,0,0,1,6.66-2.17,11,11,0,0,1,7.06,2.11,7.32,7.32,0,0,1,2.63,6A6,6,0,0,1,37,25.76a7.86,7.86,0,0,1-3.23,2.62A7.26,7.26,0,0,1,37.37,31,6.83,6.83,0,0,1,38.61,35a7.42,7.42,0,0,1-2.85,6.16,11.46,11.46,0,0,1-7.29,2.24,11.2,11.2,0,0,1-6.83-2.1,6.73,6.73,0,0,1-2.75-6l0-.12h5.54A3.51,3.51,0,0,0,25.65,38a4.24,4.24,0,0,0,3,1.06,4.34,4.34,0,0,0,3.13-1.09,4,4,0,0,0,1.14-3,4.32,4.32,0,0,0-1.12-3.3,4.71,4.71,0,0,0-3.32-1.05H25.24Z"/></svg>