<svg xmlns="http://www.w3.org/2000/svg" viewBox="0 0 57.5 57.5"><defs><style>.a{fill:#2c1e0f;}.b{fill:#fff;}</style></defs><title>circle-5-icon</title><circle class="a" cx="28.75" cy="28.75" r="28.75"/><path class="b" d="M34.26,20.79l-.51-1.92H26.07l-.81,6.58a7.2,7.2,0,0,1,1.92-1,8,8,0,0,1,2.47-.4A7.89,7.89,0,0,1,36,26.57a10.33,10.33,0,0,1,2.25,7.09,9.72,9.72,0,0,1-2.48,6.83q-2.48,2.73-7.14,2.73a10.69,10.69,0,0,1-6.71-2.15,6.8,6.8,0,0,1-2.71-5.91l0-.09,5.49-.28a4,4,0,0,0,1.07,3,3.85,3.85,0,0,0,2.82,1.07,3.32,3.32,0,0,0,3-1.43,6.54,6.54,0,0,0,1-3.7,6.88,6.88,0,0,0-1-4,3.44,3.44,0,0,0-3-1.49,4.29,4.29,0,0,0-2.5.61,3.24,3.24,0,0,0-1.24,1.64l-5.06-.33,1.65-15.89H37.78v6.51Z"/></svg>