<?xml version="1.0" encoding="UTF-8"?>
<svg width="77px" height="44px" viewBox="0 0 77 44" version="1.1" xmlns="http://www.w3.org/2000/svg" xmlns:xlink="http://www.w3.org/1999/xlink">
    <!-- Generator: Sketch 54.1 (76490) - https://sketchapp.com -->
    <title>img_gunbroker_logo</title>
    <desc>Created with Sketch.</desc>
    <g id="Home-V2" stroke="none" stroke-width="1" fill="none" fill-rule="evenodd">
        <g id="Desktop-HD-V2.A" transform="translate(-170.000000, -806.000000)" fill-rule="nonzero">
            <g id="ACTIVE-AUCTIONS" transform="translate(0.000000, 750.000000)">
                <g id="Gun-Broker" transform="translate(170.000000, 56.000000)">
                    <g id="img_gunbroker_logo">
                        <path d="M0,0 L0,44 C57.3310424,44 77,34.144 77,22 C77,9.856 57.3310424,0 0,0" id="Fill-1" fill="#FFBF00"></path>
                        <path d="M19.8971429,24.4840764 C19.8971429,25.2866242 16.4228571,26 13.9542857,26 C8.74285714,26 6,23.7707006 6,19.044586 C6,14.4076433 8.74285714,12 13.9542857,12 C16.24,12 19.44,12.5350318 19.44,13.3375796 L19.44,15.8343949 C19.44,16.1019108 19.3485714,16.1910828 18.8914286,16.1910828 L16.6971429,16.1910828 C16.24,16.1910828 16.24,16.1019108 16.24,15.8343949 L16.24,14.3184713 C15.6,14.1401274 14.8685714,14.0509554 14.2285714,14.0509554 C11.2114286,14.0509554 10.2057143,15.9235669 10.2057143,18.866242 C10.2057143,21.8980892 10.9371429,23.8598726 14.2285714,23.8598726 C15.3257143,23.8598726 16.0571429,23.5923567 16.3314286,23.5031847 L16.3314286,20.4713376 L14.1371429,20.4713376 C13.5885714,20.4713376 13.4971429,20.3821656 13.4971429,20.0254777 L13.4971429,18.955414 C13.4971429,18.5987261 13.5885714,18.5095541 14.1371429,18.5095541 L21.36,18.5095541 C21.9085714,18.5095541 22,18.5987261 22,18.955414 L22,20.0254777 C22,20.3821656 21.9085714,20.4713376 21.36,20.4713376 L19.8971429,20.4713376 L19.8971429,24.4840764" id="Fill-2" fill="#FFFFFF"></path>
                        <path d="M39.8823529,21.0909091 C39.8823529,24.0909091 38.3823529,26 33,26 C27.6176471,26 26.1176471,24 26.1176471,21.0909091 L26.1176471,14 L24.6176471,14 C24.0882353,14 24,13.9090909 24,13.5454545 L24,12.4545455 C24,12.0909091 24.0882353,12 24.6176471,12 L31.4117647,12 C31.8529412,12 32.0294118,12.0909091 32.0294118,12.4545455 L32.0294118,13.5454545 C32.0294118,13.9090909 31.9411765,14 31.4117647,14 L30,14 L30,21.0909091 C30,22.5454545 30.1764706,23.9090909 33,23.9090909 C35.9117647,23.9090909 36,22.5454545 36,21.0909091 L36,14 L34.5882353,14 C34.0588235,14 33.9705882,13.9090909 33.9705882,13.5454545 L33.9705882,12.4545455 C33.9705882,12.0909091 34.0588235,12 34.5882353,12 L41.3823529,12 C41.9117647,12 42,12.0909091 42,12.4545455 L42,13.5454545 C42,13.9090909 41.9117647,14 41.3823529,14 L39.8823529,14 L39.8823529,21.0909091" id="Fill-3" fill="#FFFFFF"></path>
                        <path d="M59.7386935,24.4868421 C59.7386935,24.8289474 59.6482412,24.9144737 59.1055276,24.9144737 L57.2060302,24.9144737 C56.7537688,24.9144737 56.6633166,24.9144737 56.5728643,24.6578947 L51.1457286,18.3289474 C50.241206,17.3026316 49.9698492,16.875 49.4271357,15.7631579 L49.3366834,15.7631579 C49.3366834,16.3618421 49.5175879,16.9605263 49.5175879,17.8157895 L49.5175879,23.1184211 L50.9648241,23.1184211 C51.5075377,23.1184211 51.5979899,23.2039474 51.5979899,23.5460526 L51.5979899,24.5723684 C51.5979899,24.9144737 51.5075377,25 50.9648241,25 L44.6331658,25 C44.0904523,25 44,24.9144737 44,24.5723684 L44,23.5460526 C44,23.2039474 44.0904523,23.1184211 44.6331658,23.1184211 L46.1708543,23.1184211 L46.1708543,13.8815789 L44.6331658,13.8815789 C44.0904523,13.8815789 44,13.7960526 44,13.4539474 L44,12.4276316 C44,12.0855263 44.0904523,12 44.6331658,12 L49.1557789,12 C49.6080402,12 49.6984925,12 49.7889447,12.2565789 L54.6733668,18.0723684 C55.4874372,19.0986842 56.120603,20.0394737 56.4824121,20.8092105 L56.5728643,20.8092105 C56.5728643,20.2105263 56.4824121,19.0131579 56.4824121,18.4144737 L56.4824121,13.8815789 L55.0351759,13.8815789 C54.4924623,13.8815789 54.4020101,13.7960526 54.4020101,13.4539474 L54.4020101,12.4276316 C54.4020101,12.0855263 54.4924623,12 55.0351759,12 L61.3668342,12 C61.9095477,12 62,12.0855263 62,12.4276316 L62,13.4539474 C62,13.7960526 61.9095477,13.8815789 61.3668342,13.8815789 L59.8291457,13.8815789 L59.8291457,24.4868421" id="Fill-4" fill="#FFFFFF"></path>
                        <path d="M9.0754717,30.5970149 L9.0754717,29.0746269 L9.45283019,29.0746269 C10.0188679,29.0746269 10.3962264,29.2537313 10.3962264,29.7910448 C10.3962264,30.5074627 9.9245283,30.5970149 9.35849057,30.5970149 L9.0754717,30.5970149 L9.0754717,30.5970149 Z M9.0754717,33.1940299 L9.0754717,31.5820896 L9.45283019,31.5820896 C10.1132075,31.5820896 10.6792453,31.6716418 10.6792453,32.3880597 C10.6792453,33.1044776 10.1132075,33.1940299 9.45283019,33.1940299 L9.0754717,33.1940299 L9.0754717,33.1940299 Z M7.18867925,28.1791045 C7,28.1791045 7,28.1791045 7,28.358209 L7,28.8059701 C7,28.9850746 7,28.9850746 7.18867925,28.9850746 L7.66037736,28.9850746 L7.66037736,33.1940299 L7.18867925,33.1940299 C7,33.1940299 7,33.1940299 7,33.3731343 L7,33.8208955 C7,34 7,34 7.18867925,34 L9.54716981,34 C10.8679245,34 12,33.7313433 12,32.2985075 C12,31.3134328 11.245283,30.9552239 10.7735849,30.8656716 C11.1509434,30.6865672 11.8113208,30.4179104 11.8113208,29.5223881 C11.8113208,28.1791045 10.490566,28 9.54716981,28 L7.18867925,28 L7.18867925,28.1791045 Z" id="Fill-5" fill="#006400"></path>
                        <path d="M14.8644068,30.6769231 L14.8644068,29.0153846 L15.2033898,29.0153846 C15.6271186,29.0153846 16.1355932,29.0153846 16.1355932,29.8461538 C16.1355932,30.6769231 15.6271186,30.7692308 15.0338983,30.7692308 L14.8644068,30.7692308 L14.8644068,30.6769231 Z M18,33.4461538 C18,33.2615385 18,33.2615385 17.8305085,33.2615385 L17.4067797,33.2615385 L16.3050847,31.4153846 C16.6440678,31.2307692 17.3220339,30.9538462 17.3220339,29.7538462 C17.3220339,28.0923077 15.9661017,28 15.2881356,28 L13.1694915,28 C13,28 13,28 13,28.1846154 L13,28.6461538 C13,28.8307692 13,28.8307692 13.1694915,28.8307692 L13.5932203,28.8307692 L13.5932203,33.1692308 L13.1694915,33.1692308 C13,33.1692308 13,33.1692308 13,33.3538462 L13,33.8153846 C13,34 13,34 13.1694915,34 L15.2033898,34 C15.3728814,34 15.3728814,34 15.3728814,33.8153846 L15.3728814,33.3538462 C15.3728814,33.1692308 15.3728814,33.1692308 15.2033898,33.1692308 L14.779661,33.1692308 L14.779661,31.5076923 L15.2033898,31.5076923 L16.3898305,33.9076923 C16.4745763,34 16.4745763,34 16.559322,34 L17.6610169,34 C17.8305085,34 17.8305085,34 17.8305085,33.8153846 L17.8305085,33.4461538 L18,33.4461538 Z" id="Fill-6" fill="#006400"></path>
                        <path d="M21.5,33.1428571 C20.7307692,33.1428571 20.4423077,32.3714286 20.4423077,31.0857143 C20.4423077,29.8 20.7307692,28.9428571 21.5,28.9428571 C22.2692308,28.9428571 22.5576923,29.7142857 22.5576923,31.0857143 C22.6538462,32.2857143 22.2692308,33.1428571 21.5,33.1428571 L21.5,33.1428571 Z M24,31 C24,29.0285714 23.0384615,28 21.5,28 C19.9615385,28 19,28.9428571 19,31 C19,32.9714286 19.9615385,34 21.5,34 C23.1346154,34 24,32.9714286 24,31 L24,31 Z" id="Fill-7" fill="#006400"></path>
                        <path d="M29,33.8153846 C29,34 29,34 28.8360656,34 L27.9344262,34 C27.7704918,34 27.7704918,34 27.6885246,33.9076923 L25.8032787,31.3230769 L25.8032787,31.3230769 L25.8032787,33.1692308 L26.2131148,33.1692308 C26.3770492,33.1692308 26.3770492,33.1692308 26.3770492,33.3538462 L26.3770492,33.8153846 C26.3770492,34 26.3770492,34 26.2131148,34 L24.1639344,34 C24,34 24,34 24,33.8153846 L24,33.3538462 C24,33.1692308 24,33.1692308 24.1639344,33.1692308 L24.5737705,33.1692308 L24.5737705,28.8307692 L24.1639344,28.8307692 C24,28.8307692 24,28.8307692 24,28.6461538 L24,28.1846154 C24,28 24,28 24.1639344,28 L26.2131148,28 C26.3770492,28 26.3770492,28 26.3770492,28.1846154 L26.3770492,28.6461538 C26.3770492,28.8307692 26.3770492,28.8307692 26.2131148,28.8307692 L25.8032787,28.8307692 L25.8032787,30.6769231 L25.8032787,30.6769231 L27.6065574,28.0923077 C27.6885246,28 27.6885246,28 27.7704918,28 L28.6721311,28 C28.8360656,28 28.8360656,28 28.8360656,28.1846154 L28.8360656,28.6461538 C28.8360656,28.8307692 28.8360656,28.8307692 28.6721311,28.8307692 L28.2622951,28.8307692 L26.704918,30.9538462 L28.5081967,33.2615385 L28.7540984,33.2615385 C28.9180328,33.2615385 28.9180328,33.2615385 28.9180328,33.4461538 L28.9180328,33.8153846" id="Fill-8" fill="#006400"></path>
                        <path d="M34,33.8153846 C34,34 34,34 33.826087,34 L30.173913,34 C30,34 30,34 30,33.8153846 L30,33.3538462 C30,33.1692308 30,33.1692308 30.173913,33.1692308 L30.6086957,33.1692308 L30.6086957,28.8307692 L30.173913,28.8307692 C30,28.8307692 30,28.8307692 30,28.6461538 L30,28.1846154 C30,28 30,28 30.173913,28 L33.826087,28 C34,28 34,28 34,28.1846154 L34,29.5692308 C34,29.7538462 33.9130435,29.7538462 33.826087,29.7538462 L33.2173913,29.7538462 C33.0434783,29.7538462 33.0434783,29.7538462 33.0434783,29.5692308 L33.0434783,29.0153846 L31.9130435,29.0153846 L31.9130435,30.4923077 L33.4782609,30.4923077 C33.6521739,30.4923077 33.6521739,30.4923077 33.6521739,30.6769231 L33.6521739,31.2307692 C33.6521739,31.4153846 33.6521739,31.4153846 33.4782609,31.4153846 L31.9130435,31.4153846 L31.9130435,33.1692308 L33.0434783,33.1692308 L33.0434783,32.5230769 C33.0434783,32.3384615 33.0434783,32.3384615 33.2173913,32.3384615 L33.826087,32.3384615 C34,32.3384615 34,32.3384615 34,32.5230769 L34,33.8153846" id="Fill-9" fill="#006400"></path>
                        <path d="M36.8644068,30.6769231 L36.8644068,29.0153846 L37.2033898,29.0153846 C37.6271186,29.0153846 38.1355932,29.0153846 38.1355932,29.8461538 C38.1355932,30.6769231 37.6271186,30.7692308 37.0338983,30.7692308 L36.8644068,30.7692308 L36.8644068,30.6769231 Z M40,33.4461538 C40,33.2615385 40,33.2615385 39.8305085,33.2615385 L39.4067797,33.2615385 L38.3050847,31.4153846 C38.6440678,31.2307692 39.3220339,30.9538462 39.3220339,29.7538462 C39.3220339,28.0923077 37.9661017,28 37.2881356,28 L35.1694915,28 C35,28 35,28 35,28.1846154 L35,28.6461538 C35,28.8307692 35,28.8307692 35.1694915,28.8307692 L35.5932203,28.8307692 L35.5932203,33.1692308 L35.1694915,33.1692308 C35,33.1692308 35,33.1692308 35,33.3538462 L35,33.8153846 C35,34 35,34 35.1694915,34 L37.2033898,34 C37.3728814,34 37.3728814,34 37.3728814,33.8153846 L37.3728814,33.3538462 C37.3728814,33.1692308 37.3728814,33.1692308 37.2033898,33.1692308 L36.779661,33.1692308 L36.779661,31.5076923 L37.2033898,31.5076923 L38.3898305,33.9076923 C38.4745763,34 38.4745763,34 38.559322,34 L39.6610169,34 C39.8305085,34 39.8305085,34 39.8305085,33.8153846 L39.8305085,33.4461538 L40,33.4461538 Z" id="Fill-10" fill="#006400"></path>
                        <path d="M42,34 C41.5,34 41,33.5555556 41,33 C41,32.4444444 41.5,32 42,32 C42.5,32 43,32.4444444 43,33 C43,33.5555556 42.5,34 42,34" id="Fill-11" fill="#006400"></path>
                        <path d="M47.9148936,33.4782609 C47.9148936,33.7391304 47.1489362,34 46.3829787,34 C44.7659574,34 44,33.0434783 44,31.0434783 C44,29.1304348 44.7659574,28 46.3829787,28 C46.9787234,28 47.9148936,28.2608696 47.9148936,28.5217391 L47.9148936,29.6521739 C47.9148936,29.7391304 47.9148936,29.826087 47.7446809,29.826087 L47.0638298,29.826087 C46.9787234,29.826087 46.893617,29.826087 46.893617,29.6521739 L46.893617,28.9565217 C46.7234043,28.8695652 46.5531915,28.8695652 46.3829787,28.8695652 C45.5319149,28.8695652 45.1914894,29.3913043 45.1914894,30.7826087 C45.1914894,32.173913 45.3617021,33.0434783 46.4680851,33.0434783 C46.6382979,33.0434783 46.8085106,33.0434783 46.9787234,33.0434783 L46.9787234,32.2608696 C46.9787234,32.173913 46.9787234,32.0869565 47.1489362,32.0869565 L47.8297872,32.0869565 C47.9148936,32.0869565 48,32.0869565 48,32.2608696 L48,33.4782609" id="Fill-12" fill="#006400"></path>
                        <path d="M50.5,33.1428571 C49.7307692,33.1428571 49.4423077,32.3714286 49.4423077,31.0857143 C49.4423077,29.8 49.7307692,28.9428571 50.5,28.9428571 C51.2692308,28.9428571 51.5576923,29.7142857 51.5576923,31.0857143 C51.5576923,32.2857143 51.2692308,33.1428571 50.5,33.1428571 L50.5,33.1428571 Z M53,31 C53,29.0285714 52.0384615,28 50.5,28 C48.9615385,28 48,28.9428571 48,31 C48,32.9714286 48.9615385,34 50.5,34 C52.0384615,34 53,32.9714286 53,31 L53,31 Z" id="Fill-13" fill="#006400"></path>
                        <path d="M59.75,33.8181818 C59.75,34 59.75,34 59.5833333,34 L57.75,34 C57.5833333,34 57.5833333,34 57.5833333,33.8181818 L57.5833333,33.3636364 C57.5833333,33.1818182 57.5833333,33.1818182 57.75,33.1818182 L58.1666667,33.1818182 L58.0833333,30.9090909 C58.0833333,30.6363636 58.0833333,29.8181818 58.0833333,29.5454545 L58.0833333,29.5454545 C58,29.8181818 57.9166667,30.6363636 57.8333333,30.9090909 L57.3333333,32.6363636 C57.3333333,32.7272727 57.3333333,32.8181818 57.1666667,32.8181818 L56.5833333,32.8181818 C56.4166667,32.8181818 56.4166667,32.8181818 56.4166667,32.6363636 L55.9166667,30.9090909 C55.8333333,30.6363636 55.6666667,29.8181818 55.5833333,29.5454545 L55.5833333,29.5454545 C55.5833333,29.8181818 55.5833333,30.6363636 55.5833333,30.9090909 L55.5833333,33.1818182 L56,33.1818182 C56.1666667,33.1818182 56.1666667,33.1818182 56.1666667,33.3636364 L56.1666667,33.8181818 C56.1666667,34 56.1666667,34 56,34 L54.1666667,34 C54,34 54,34 54,33.8181818 L54,33.3636364 C54,33.1818182 54,33.1818182 54.1666667,33.1818182 L54.5833333,33.1818182 L54.75,28.9090909 L54.3333333,28.9090909 C54.1666667,28.9090909 54.1666667,28.9090909 54.1666667,28.7272727 L54.1666667,28.2727273 C54.1666667,28.0909091 54.1666667,28.0909091 54.3333333,28.0909091 L55.8333333,28.0909091 C56,28.0909091 56,28.0909091 56,28.1818182 L56.75,30.3636364 C56.9166667,30.8181818 56.9166667,31.0909091 57,31.4545455 L57,31.4545455 C57.0833333,31.0909091 57.0833333,30.8181818 57.25,30.3636364 L57.9166667,28.1818182 C58,28.0909091 58,28 58.0833333,28 L59.5833333,28 C59.75,28 59.75,28 59.75,28.1818182 L59.75,28.6363636 C59.75,28.8181818 59.75,28.8181818 59.5833333,28.8181818 L59.1666667,28.8181818 L59.4166667,33.0909091 L59.8333333,33.0909091 C60,33.0909091 60,33.0909091 60,33.2727273 L59.75,33.8181818" id="Fill-14" fill="#006400"></path>
                        <path d="M61,29 C61,28.5 61.4,28 62,28 C62.5,28 63,28.4 63,29 C63,29.5 62.6,30 62,30 C61.5,30 61,29.6 61,29 L61,29 Z M62,29.8 C62.5,29.8 62.8,29.4 62.8,29 C62.8,28.5 62.4,28.2 62,28.2 C61.5,28.2 61.2,28.6 61.2,29 C61.2,29.5 61.6,29.8 62,29.8 L62,29.8 Z" id="Fill-15" fill="#006400"></path>
                        <path d="M62.8,28.9302326 C62.8,29.0232558 62.8,29.0232558 62.8,28.9302326 L62.6,28.9302326 C62.6,28.9302326 62.6,28.9302326 62.6,28.9302326 L62.4,28.5581395 L62.3,28.5581395 L62.3,28.8372093 L62.4,28.8372093 C62.4,28.8372093 62.4,28.8372093 62.4,28.8372093 L62.4,28.9302326 C62.4,28.9302326 62.4,28.9302326 62.4,28.9302326 L62,28.9302326 C62,28.9302326 62,28.9302326 62,28.9302326 L62,28.8372093 C62,28.8372093 62,28.8372093 62,28.8372093 L62.1,28.8372093 L62.1,28.0930233 L62,28.0930233 C62,28.0930233 62,28.0930233 62,28.0930233 L62,28 C62,28 62,28 62,28 L62.4,28 C62.5,28 62.8,28 62.8,28.2790698 C62.8,28.4651163 62.7,28.5581395 62.6,28.5581395 L62.8,28.8372093 L62.9,28.8372093 C62.8,28.8372093 62.8,28.8372093 62.8,28.9302326 L62.8,28.9302326 L62.8,28.9302326 Z M62.3,28.372093 C62.4,28.372093 62.5,28.372093 62.5,28.1860465 C62.5,28.0930233 62.4,28.0930233 62.3,28.0930233 L62.2,28.0930233 L62.3,28.372093 L62.3,28.372093 L62.3,28.372093 Z" id="Fill-16" fill="#006400"></path>
                    </g>
                </g>
            </g>
        </g>
    </g>
</svg>