<svg xmlns="http://www.w3.org/2000/svg" viewBox="0 0 93.86 23.6"><defs><style>.a{fill:#2c1e0f;fill-rule:evenodd;}</style></defs><title>heading-flourish</title><polygon class="a" points="68.34 16.92 69.05 17.7 69.77 18.41 70.56 19.19 71.49 19.9 72.42 20.54 73.43 21.18 74.5 21.75 75.58 22.25 76.73 22.68 77.94 23.03 79.16 23.24 80.45 23.45 81.82 23.45 83.11 23.39 84.47 23.24 85.9 22.89 88.41 21.89 90.42 20.4 91.86 18.69 92.86 16.77 93.5 14.86 93.79 13.01 93.86 11.37 93.65 10.02 93.29 8.81 92.64 7.46 91.71 6.04 90.56 4.62 89.13 3.27 87.41 2.06 85.33 1.07 83.04 0.36 82.18 0.21 81.24 0.07 80.31 0 79.31 0 78.38 0.07 77.37 0.14 76.37 0.28 75.36 0.43 74.36 0.71 73.28 1 72.28 1.28 71.28 1.71 70.27 2.13 69.27 2.63 68.26 3.2 67.33 3.84 65.9 4.98 64.47 6.26 63.1 7.82 61.67 9.38 60.3 11.09 58.94 12.8 57.65 14.5 56.36 16.06 55.07 17.49 53.78 18.77 52.56 19.76 51.41 20.47 50.27 20.83 49.19 20.83 48.12 20.33 47.11 19.33 46.82 19.62 47.26 19.97 47.68 20.33 48.19 20.68 48.76 20.97 49.33 21.18 50.05 21.32 50.77 21.39 51.56 21.25 52.49 21.04 53.42 20.61 54.43 19.97 55.5 19.19 56.65 18.13 57.87 16.77 59.23 15.21 60.59 13.29 61.45 12.15 62.24 11.02 63.03 10.02 63.89 9.1 64.68 8.24 65.47 7.46 66.18 6.75 66.97 6.11 67.91 5.4 68.84 4.69 69.7 4.12 70.63 3.63 71.42 3.13 72.28 2.77 73.07 2.42 73.93 2.13 74.65 1.85 75.43 1.71 76.15 1.49 76.8 1.42 77.51 1.28 78.09 1.28 78.73 1.21 79.31 1.21 80.1 1.21 80.96 1.28 81.96 1.42 82.89 1.56 83.9 1.85 84.9 2.2 85.98 2.56 86.98 3.06 87.91 3.63 88.84 4.34 89.7 5.05 90.56 5.97 91.21 6.9 91.86 7.96 92.36 9.17 92.72 10.52 92.93 12.8 92.72 14.78 92 16.56 90.99 18.05 89.78 19.33 88.41 20.33 87.05 21.04 85.76 21.54 85.11 21.68 84.4 21.89 83.61 22.03 82.75 22.18 81.82 22.32 80.89 22.32 79.81 22.32 78.73 22.18 77.59 22.03 76.37 21.68 75.15 21.32 73.86 20.76 72.57 20.05 71.2 19.19 69.77 18.13 68.34 16.92 68.34 16.92"/><polygon class="a" points="25.53 6.75 24.81 5.97 24.09 5.26 23.3 4.48 22.37 3.77 21.44 3.13 20.44 2.49 19.36 1.92 18.29 1.42 17.14 1 15.92 0.64 14.7 0.36 13.41 0.21 12.05 0.14 10.76 0.21 9.39 0.36 7.96 0.71 5.45 1.78 3.44 3.2 2.01 4.98 1 6.9 0.36 8.81 0.07 10.66 0 12.37 0.22 13.72 0.57 14.93 1.22 16.28 2.15 17.7 3.3 19.12 4.73 20.47 6.45 21.61 8.53 22.6 10.83 23.24 11.69 23.39 12.62 23.53 13.55 23.6 14.56 23.6 15.49 23.6 16.49 23.53 17.5 23.39 18.5 23.24 19.5 22.96 20.51 22.68 21.51 22.39 22.52 21.96 23.52 21.54 24.52 21.04 25.53 20.47 26.46 19.83 27.89 18.69 29.33 17.41 30.76 15.85 32.13 14.29 33.49 12.58 34.85 10.88 36.21 9.17 37.5 7.61 38.79 6.18 40.08 4.91 41.3 3.91 42.45 3.2 43.6 2.84 44.67 2.92 45.75 3.41 46.75 4.41 47.04 4.12 46.61 3.77 46.18 3.34 45.68 3.06 45.1 2.7 44.46 2.49 43.81 2.35 43.02 2.35 42.23 2.42 41.38 2.63 40.44 3.06 39.44 3.7 38.36 4.55 37.22 5.62 36 6.97 34.63 8.53 33.27 10.45 32.41 11.59 31.62 12.65 30.83 13.65 29.97 14.57 29.18 15.43 28.4 16.2 27.68 16.99 26.89 17.63 25.96 18.34 25.02 18.98 24.17 19.55 23.23 20.11 22.44 20.54 21.58 20.9 20.72 21.25 19.93 21.54 19.22 21.75 18.43 21.96 17.71 22.11 17 22.25 16.35 22.32 15.7 22.39 15.06 22.46 14.48 22.46 13.7 22.46 12.84 22.39 11.9 22.25 10.9 22.11 9.89 21.82 8.89 21.54 7.89 21.11 6.88 20.61 5.95 20.05 5.02 19.41 4.16 18.62 3.3 17.77 2.65 16.77 2.01 15.71 1.51 14.5 1.15 13.15 0.93 10.88 1.15 8.88 1.86 7.11 2.87 5.62 4.09 4.34 5.38 3.34 6.74 2.63 8.03 2.13 8.68 1.92 9.39 1.78 10.18 1.64 11.04 1.49 11.98 1.35 12.91 1.28 13.98 1.35 15.06 1.42 16.21 1.64 17.43 1.92 18.64 2.35 19.93 2.92 21.3 3.63 22.66 4.48 24.09 5.55 25.53 6.75 25.53 6.75"/><polygon class="a" points="33.2 19.83 33.56 20.33 33.99 20.68 34.49 20.97 34.99 21.11 35.49 21.11 36.07 20.97 36.64 20.76 37.22 20.4 38.01 19.76 39.15 18.84 40.44 17.63 41.88 16.28 43.31 14.78 44.74 13.36 46.03 11.87 47.11 10.59 48.62 8.81 50.05 7.25 51.34 5.97 52.49 4.98 53.64 4.12 54.57 3.48 55.5 2.99 56.36 2.7 57.08 2.56 57.8 2.56 58.44 2.63 59.01 2.77 59.52 3.06 60.02 3.34 60.45 3.7 60.81 4.05 60.52 4.34 59.66 3.55 58.73 3.27 57.65 3.34 56.51 3.84 55.28 4.62 53.99 5.69 52.7 6.97 51.34 8.39 49.91 9.95 48.47 11.59 47.04 13.22 45.6 14.86 44.24 16.42 42.81 17.84 41.52 19.05 40.23 20.05 39.65 20.4 38.87 20.9 37.93 21.32 36.86 21.61 35.78 21.75 34.71 21.61 33.63 21.11 32.77 20.19 33.2 19.83 33.2 19.83"/><polygon class="a" points="25.31 19.76 25.89 19.62 26.32 20.19 26.75 20.61 27.18 20.9 27.68 21.04 28.25 21.11 28.83 21.04 29.4 20.76 30.05 20.4 30.83 19.76 31.98 18.84 33.27 17.63 34.71 16.28 36.14 14.78 37.57 13.36 38.87 11.87 40.01 10.59 41.52 8.81 42.88 7.25 44.17 5.97 45.39 4.98 46.47 4.12 47.47 3.48 48.33 2.99 49.19 2.7 49.98 2.56 50.63 2.56 51.27 2.63 51.84 2.77 52.42 3.06 52.85 3.34 53.28 3.7 53.71 4.05 53.42 4.34 52.56 3.55 51.63 3.27 50.55 3.34 49.41 3.84 48.19 4.62 46.9 5.69 45.53 6.97 44.17 8.39 42.74 9.95 41.3 11.59 39.94 13.22 38.51 14.86 37.07 16.42 35.71 17.84 34.42 19.05 33.13 20.05 32.48 20.4 31.7 20.9 30.69 21.32 29.54 21.68 28.4 21.75 27.25 21.54 26.25 20.9 25.31 19.76 25.31 19.76"/><polygon class="a" points="40.44 19.83 40.87 20.33 41.3 20.68 41.73 20.97 42.23 21.11 42.81 21.11 43.31 20.97 43.96 20.76 44.53 20.4 45.32 19.76 46.47 18.84 47.76 17.63 49.19 16.28 50.63 14.78 52.06 13.36 53.35 11.87 54.43 10.59 55.93 8.81 57.37 7.25 58.66 5.97 59.8 4.98 60.95 4.12 61.88 3.48 62.81 2.99 63.68 2.7 64.39 2.56 65.11 2.56 65.75 2.63 66.33 2.77 66.83 3.06 67.33 3.34 67.76 3.7 68.12 4.05 67.83 4.34 66.97 3.55 66.04 3.27 64.97 3.34 63.82 3.84 62.6 4.62 61.31 5.69 59.95 6.97 58.58 8.39 57.22 9.95 55.79 11.59 54.35 13.22 52.92 14.86 51.56 16.42 50.12 17.84 48.83 19.05 47.54 20.05 46.97 20.4 46.18 20.9 45.25 21.32 44.17 21.61 43.1 21.75 42.02 21.61 40.95 21.11 40.08 20.19 40.44 19.83 40.44 19.83"/></svg>