<svg xmlns="http://www.w3.org/2000/svg" viewBox="0 0 270.09 31.39"><defs><style>.a{fill:#010101;fill-rule:evenodd;}</style></defs><title>heading-flourish-2</title><path class="a" d="M269.55,7.68l-1.34-1.89-2-1.75-2.56-1.48-3.37-1.08L256.49.67l-1-.09L254.61.4,249.89,0h-2.56l-2.42.14L242.35.4,239.8.81,238.72,1l-2.29.32-3,.54-3.1.67-3.23.67-3.23.95-3.37.94L219,5.59l-1.16-.74L215,3.37l-2.83-1.08-2.42-.4-2.29.27-1.88.94-1.48,1.75,2-.13h2.15l2.29.26,2.56.54,2.69,1,.12,0-2.54.75-3.14,1.17-.36-.22L207.48,7l-2.42-1.22L202.5,4.72l-2.56-.95-2.56-.94-2.55-.67-2.56-.68L189.71.94l-2.56-.4L184.59.27,182,0h-7.41l-2.29.14-2,.26-2,.27-1.75.27-1.75.54-1.61.41-1.62.53L160,3.1l-1.49.67-1.34.81-1.49.81-1.34.81-1.48.94-1.35.94L150,9l-1.35.13-1.34.27-.86.38-.09-.11-1.48-2.43-1.34-2.69-1.08-3.1-.81,3.1-.94,2.69L139.62,9.7l-.54,1.08L137.6,8l-1.21-3.1-1.34-3.5-1.22,3.5L132.49,8l-1.35,2.83-.07.12-.6-1.2-1.08-2.43-.94-2.69-.81-3.1-1.08,3.1-1.34,2.69L123.73,9.7l0,.06-.75-.33-1.35-.27L120.23,9l-1.48-.95-1.34-.94-1.48-.94-1.35-.81-1.48-.67L111.62,4l-1.48-.67-1.48-.54L107,2.29l-1.75-.54-1.75-.4L101.79.94l-2-.27-2-.27L95.59.14,93.31,0H88.19L85.63.27,83.07.54l-2.69.4-2.56.54-2.56.68-2.55.67-2.56.94-2.43.95L65.17,5.79,62.74,7,60.32,8.22l-.44.26L58,7.81,54.15,6.52l.11,0,2.83-1L59.64,5l2.29-.26h2.16L66,4.85,64.49,3.1l-1.88-.94-2.16-.27-2.56.4L55.2,3.37l-3,1.48-1.15.73L48.6,4.85,44.16,3.64l-4.31-1-4.17-.8-1.79-.31-1-.23L30.29.81,27.73.4,25.31.14,22.75,0H20.19L15.48.4,14.6.59,12.39.81,10,1.21l-2.15.68-2,.8L4,3.77,2.56,4.85,1.48,6.2.67,7.54.13,9,0,10.64l.13,1.62.68,1.89.94,1.48L3.1,17l1.61,1.21,2,.95,2.42.81,2.83.67,3.1.67,1.88.27,2.16.14h2.42l2.56-.14,2.83-.27,3-.4,3.1-.54,3.23-.67,3.09-.81,3.24-.94,3.23-1.08,3-1.21,3-1.35,2.83-1.48,2.56-1.75.26-.19.07,0,1.28.49,3,1.21,3.1,1.21L67.86,15,71,16.17l3.23,1.34,3.23,1.35,3.23,1.21,3.23,1.35L87,22.63,90.21,24l3,1.21,3,1.21,2.83,1,2.83.94,2.69.81,2.69.54,2.56.4,2.56.27,2.56-.14.59-.06.08.06,1.35.68,1.61.54.68-1.35.11-.56.56-.11,2.42-.95,2.56-1.21,2.56-1.62,2.42-2,2.7-2.42,2.56-2.83L137.6,21l2.56,2.3,2.42,1.88,2.56,1.62L147.57,28l2.55.94.63.18.18.9.68,1.35,1.61-.54,1.48-.68.32-.27h.09l2.56.14,2.69-.14,2.56-.4,2.69-.54,2.83-.67,2.82-.94,2.83-1.08,3-1.08L180,24l3.23-1.35,3.09-1.21,3.23-1.35,3.24-1.21L196,17.51l3.23-1.34,3.1-1.22,3.09-1.21,3.1-1.21,3-1.21,1.22-.47.26.2,2.7,1.75,2.69,1.48,3,1.35,3.1,1.21,3.09,1.08,3.23.94,3.1.81,3.23.67,3,.54,3,.4,2.83.27,2.69.14H251l2-.14,1.89-.27,3.09-.67,2.83-.67,2.42-.81,2-.95L267,17l1.34-1.34.94-1.48.68-1.89.13-2.29ZM258.78,2.29l2.33.49,1.71.86L265,5.39l1.22,1.88.53,2.16-.13,2.16-.81,1.88-1.34,1.75-1.76,1.48-1.07.54-1.35.54-1.61.54-1.89.41-.73.09,3.29-1.17,3.1-1.75L264.57,14l1.35-2.16.4-2-.67-2.15L263.9,5.52l-2.83-1.88-2.15-1.08-1.17-.36Zm-23.16.81,2.43-.54.93-.17L243.84,2l4.57-.27h3.5L254.2,2l2.16.54,2.15.81,2,.94,2.15,1.35,1.62,1.48.94,1.62.14,1.75-.54,1.88-1.48,1.76-2.29,1.75-3.5,1.61-2.83.81-3,.54-3.1.27L245.45,19l-3.36-.26-1.22-.15-.8-.12-.43-.08-.79-.2-1.48-.67-1.48-.67-1.61-.67-1.48-.81-1.49-.95-1.48-.94-1.48-1.08-1.48-1.07-1.48-1.08L223.91,9l-2-1.52.3-.1,2.15-.81,2.16-.81,2.29-.67,2.29-.81,2.28-.67Zm-6.19,1.21,3.1-.81.14,0-1.09.3-2.42.68-2.42.8-2.43.68-2.56.81-.66.2-.14-.1,2-.64,3.24-1Zm-7.68,4.18L220.68,8l-.06,0,.34-.11ZM219.6,5.93l4.17-1.08,2.29-.47-.54.2-2.15.67-2,.68-1.16.41-.63-.4Zm.66,1.28-.65.2-.17-.08.16-.06.54-.17Zm-.81-.6-.94.29-.84-.39,1.09-.33Zm-3.62-1-2.16-.81-2.15-.67-2.42-.27-2.43-.14L207.89,3l1.61-.27,1.89.27,2,.54,2.15.81,2.15,1.21.5.32L217,6.2h0Zm-4.17,2.83,3.9-1.35,1.06-.32.87.4-1.25.46-1.49.4L213,8.62l-1.27.46L211.66,9l-.3.08-.52-.32Zm-1.48.81.52.17-1.87.77-2.43.94-2.69,1.08-3,1.08-3,1.21-3.23,1.21L191.06,17l-3.37,1.21-3.64,1.22-3.63,1.08-3.77.94-3.77.94-3.77.81-3.77.54-2.83.27-2.55.13h-2.57l-.13-.53.81-2.42,1.13-1.6,1.83.52,3.23.54,3.5.27h3.77l4-.4,4-.68,3.91-.94,3.63-1.08,3.64-1.21,3.36-1.21,3.5-1.35L201,12.66l3.5-1.48L208,9.83l1.69-.62Zm-57.9,13.47.54-1.22.4-1.07.13-1.22-.26-1.08.36-1,2.06,1,2.53,1-.37.33L155,22.9l-1.21.54-.07,0-.74-.18L152,23ZM152,21l-.54.81-.94.95-1.08.8-1.08.68-1.07.54V22.9l.13-1.48.54-1.08.54-.67.81-.41.8-.27.68-.26.81-.14.67.67.13.81ZM208.68,9,206,10l-3.77,1.48-2.83,1.08L197,13.61l-2.15.8-1.89.81-1.75.68-1.48.53-1.35.41-1.34.54-1.22.27-1.34.4-1.21.27-1.35.27-1.35.27-1.61.27-1.75.27-1.89.27-2.29.27-2.29.13h-4.84l-2.43-.4L161,19.26l-1.35-.39h0l2.56-2.16,3.37-2,3.9-1.75,4.58-1.61L178.94,10l5.11-1.08,5.25-.81,5.39-.27h5.39l5.11.54Zm-1.74-1.2L202.5,7l-4.58-.41-4.84-.13-5,.27-5,.67-5,1.08L173.42,10,169,11.72l-4.17,2.15L161,16.57l-2.29,2-2.29-.81-2.29-1.08-.45-.28.18-.52,1.62-2.29,2.42-2L161,9.7l3.64-1.62,4.17-1.34,4.58-1.08,4.84-.81,5-.4h5.25l5.25.27,5.11.8,5,1.22,3.45,1.18Zm-55.33,3.78.13-1.08,1.61-1.89,2.16-1.75,2.83-1.48L161.7,4,165.34,3l4.17-.8,4.31-.68,4.58-.27,4.85.14,4.84.4,5,.81,4.84,1.21,4.85,1.48L206,6.79l-3.81-1.27-4.44-1.07-4.58-.68-4.71-.4h-4.85l-4.85.4-4.71.68-4.71,1.21-4.44,1.48L160.9,9l-3.77,2.42-3.37,2.7-1.3,1.49-.45-.28-1.87-1.5.25-.25.81-.95Zm-4.85-.81,1.07-.27.95-.27.94-.14.81-.13v1.35l-.41,1.07-.67.81-.94.67-1.08.54-1.08.27-1.21.27h-.94l.27-1.48.67-1.21.68-.81Zm-6.6.54,1.08-1.89.81-1.62.4-1.48.27.68.54.8.81,1.08L145,10.1l.37.47-.24.21-.8.94-.54,1.08-.27,1.35.13,1.61,1.75.14,1.48-.27,1.35-.41,1.21-.67.05-.05,1.57,1.13.88.59-1,1.16-1.21.54-1.21.67-.94.94-.68.95h0l-1.61-1.36-1.75-1.62-1.48-2-1.62-2.15-.7-1.33ZM125.22,10.1l.94-1.21.67-1.08.54-.8.27-.68.4,1.48.81,1.62,1.08,1.89.49.7-.76,1.32-1.48,2.15-1.62,2L125,19.13l-1.61,1.36h0l-.67-.95-.94-.94-1.22-.67-1.21-.54-1-1.19.91-.56,1.49-1.07,1.2.66,1.35.41,1.61.27,1.75-.14.14-1.61-.27-1.35-.54-1.08-.81-.94-.26-.23Zm-8.35,10.38.4,1.07.68,1.22.23.23-.91.31-.85.2-.09-.07-1.21-.54-2.7-3.37-.32-.3,2.61-1.05,1.93-1,.36,1-.27,1.08Zm.94-.41.14-.81.67-.67.81.14.67.26.81.27.81.41.53.67.41,1.08.27,1.48-.14,1.89-1.07-.54-1.08-.68-.94-.8-1-.95-.54-.81ZM119.7,10l.8.13,1,.14.94.27,1.07.27,1,.67.67.81.67,1.21L126,15h-.94L124,14.68l-1.21-.27-1.07-.54-1-.67-.67-.81-.4-1.07ZM67.45,5.25,72.3,3.77l4.85-1.21,5-.81L87,1.35l4.84-.14,4.58.27,4.31.68,4.17.8L108.52,4l3.23,1.35,2.83,1.48,2.15,1.75,1.62,1.89.13,1.08.41,1.07.81.95.25.25-1.87,1.5-.36.22-1.26-1.43-3.36-2.7L109.33,9l-4.18-1.89-4.44-1.48L96.13,4.45l-4.84-.68-4.85-.4H81.59l-4.71.4-4.58.68L68,5.52,64.46,6.66ZM66.38,6.74l5-1.22,5.12-.8,5.11-.27h5.25l5,.4,4.85.81,4.58,1.08,4.17,1.34,3.64,1.62,3.1,1.89,2.42,2,1.62,2.29.18.52-.45.28-2.16,1.08-2.29.81-.06,0-2.23-2-3.77-2.7-4.17-2.15L96.67,10,92,8.49,87.11,7.41l-5-.67-5-.27L72.3,6.6,67.59,7l-4.44.8h0ZM64.9,8.35,70,7.81H75.4l5.38.27L86,8.89,91.29,10l4.84,1.35,4.45,1.61,3.9,1.75,3.37,2,2.56,2.16,0,0-1.37.38-2.43.41-2.42.4H99.5l-2.29-.13-2.29-.27-2-.27-1.75-.27-1.48-.27-1.48-.27-1.35-.27-1.21-.27-1.21-.4-1.21-.27-1.35-.54-1.35-.41L79,15.9l-1.75-.68-1.88-.81-2.16-.8-2.42-1.08L68,11.45,62.88,9.56,61.4,9Zm-4.85,1,.37-.08,1.65.61,3.64,1.35,3.36,1.48L72.57,14l3.37,1.35,3.5,1.21,3.63,1.21,3.64,1.08,3.9.94,4,.68,4,.4h3.77l3.5-.27,3.23-.54,1.76-.5,1.21,1.58.8,2.42-.13.53h-2.69L107.58,24l-2.83-.27L101,23.17l-3.77-.81-3.77-.94-3.64-.94L86.17,19.4l-3.64-1.22L79,17l-3.36-1.21-3.23-1.21-3.1-1.21-2.83-1.08-2.69-1.08-2.56-.94-1.75-.77ZM54.53,7.14l3.9,1.35.9.33-.47.29L58.57,9l-.09.06-1.39-.47-1.75-.54L54,7.68l-1.38-.46.86-.4Zm-2-1.62,2.15-1.21,2.16-.81,2-.54,1.88-.27L62.34,3l1.21.81L61,3.91l-2.29.27-2.29.67-2,.81-1.23.53L52,5.85Zm-1.09.69,1,.3-.8.4-.89-.28Zm-5.1-1.36,4.17,1.08h0l-.63.4-1.16-.41-2-.68-2-.67-.43-.15Zm4.4,2.51-.1,0L50,7.21l.09-.08.44.14Zm-1.12.56-.05,0-1.08.54.79-.68Zm-12-4.42,3.1.81,3.23.94,3.23,1,2,.64L49,6.91l-.57-.17-2.56-.81-2.42-.68-2.56-.8-2.42-.68-1.06-.29ZM13.73,2.56,15.89,2l2.29-.27h3.5L26.25,2l4.86.37.93.17,2.43.54,2.29.54,2.42.67,2.29.81,2.29.67,2.15.81,2.16.81.2.07L46.18,9,44.7,10.24l-1.48,1.08-1.48,1.07-1.48,1.08-1.48.94-1.48.95-1.49.81-1.48.67-1.61.67-1.48.67-.79.2-.43.08-.8.12L28,18.73,24.64,19l-3.23.14-3.1-.27-3-.54-2.83-.81L9,15.9,6.73,14.15,5.25,12.39l-.54-1.88.14-1.75L5.92,7.14,7.4,5.66,9.56,4.31l2-.94ZM7.13,3.64l1.62-.81h0l2.56-.54,1-.09-1.16.36L9,3.64,6.19,5.52,4.44,7.68,3.77,9.83l.4,2L5.38,14,7.67,15.9l3,1.75,3.27,1.16-.71-.08-1.75-.41-1.61-.54-1.35-.54L7.4,16.7,5.65,15.22,4.31,13.47,3.5,11.59,3.37,9.43l.4-2.16L5,5.39ZM44.83,16,42,17l-3,.81-2.7.68-2.82.67-2.7.4-2.56.41-2.42.27-2.42.27-2.16.13h-3.9l-3-.27-3-.54-2.56-.94L6.46,17.78l-2-1.21L2.83,15.09,1.75,13.47l-.67-1.75-.14-.94V9.83l.14-1.07.26-1,.41-.94.81-.94L3.63,5,5,4.18,5.38,4,3.77,5.39,2.56,7.27,2,9.16l.27,2L3,13.07,4,14.68l1.34,1.49,1.75,1.07,2.16.94L12,19l3.23.54,3.77.54,2.16.14h2.29l2.42-.27,1.35-.14h.08l1.13-.12L31,19.26l2.38-.59.44-.08L37,17.92l3.1-.81,3-.81,3-.81L47.66,15Zm11.32-5.69-.28-.1-.8.4-1.48.68L52.24,12l-5.12,1.88-4.71,1.62L38,16.7l-4,1.08-.09,0,.63-.29,1.75-.67L37.83,16l1.75-.94,1.62-.94L43,13.07l1.75-1.22,3.37-2.29,2.46-1.33,2.52.93,2.82,1.08.27-.14.3.11Zm1.2-.53-.94-.38-2.69-.94-2.21-.78.09,0,2.26.82,3,1.07.61.21Zm55.88,18.48h-2.69L107.71,28l-3-.54-3.23-.67-3.23-.95-3.5-1.21-3.64-1.34L87.52,22,84,20.61l-3.37-1.48-3.37-1.35-3.23-1.21L71,15.22,67.86,14l-3-1.21-3-1.21-2.82-1.08-.82-.33.12-.09,1.23.42,2.56.94,2.29.94,2.29.95,2.16.81,2.15.8,2,.81,2,.81,2,.81,2.15.8,2.16.68,2.29.81,2.42.81,2.69.8,2.83.81,5.52,1.35,5.12.94,4.57.41h4.18l1.62-.18v1.25l.27,1.08.54,1.21.09.12Zm5.25.67-.27,1.62-1.07-.68-1.21-.67-1.08-.81-.81-.94-.54-.94-.27-.95.27-.94.81-.94,1.21.4.94.41.81.54.68.67.26.94.27,1.08Zm14.68-10-2,1.89-1.89,1.62L127.1,24l-2,1.21-2.15,1.08-2.29.81-1.21.33v-.06L119,26.27l-.67-1.08-.94-.94-.42-.31,1.09-.23.59-.22.22.22,1.07.94,1.49.67,1.61.41.54-1.48.27-1.35-.14-1.21-.07-.24.07,0,2.16-1.62,2-1.62,1.75-1.88,1.48-2,.39-.65.82,1.19,1.08,1.61.93,1.2Zm1.89-2.15-.68-.67-.81-1.08-.94-1.35-.56-1,.29-.49,1.08-2.16L134.24,8l.81-2,.8,2,.81,2.15,1.08,2.16.31.46-.58,1-.94,1.35-.81,1.08Zm16.15,9.43-.4,1.08v.06l-1.2-.33-2.29-.81-2.16-1.08L143,24l-2-1.48-2-1.62-2-1.89-1.2-1.36.93-1.2,1.21-1.61.8-1.16.41.62,1.49,2,1.74,1.88,1.89,1.62,2.28,1.61-.13.28-.13,1.21.27,1.35.54,1.48,1.75-.41,1.34-.67,1.22-.94.21-.22.59.22,1,.2-.45.34-.81.94Zm4.18,2.15-1.08.81-1.21.67-1.08.68L151.74,29V27.75l.27-1.08.4-.94.54-.67.81-.54.94-.41,1.22-.4.8.94.27.94-.27.95-.54.94Zm55.74-17.91-2.83,1.08-3,1.21-3,1.21-3.1,1.21-3.1,1.35-3.23,1.21-3.37,1.35-3.36,1.48L182.71,22l-3.64,1.35-3.63,1.34-3.5,1.21-3.23.95-3.24.67-3,.54-2.83.27H157l-.37,0,.1-.12.54-1.21.27-1.08V24.61l1.63.18h4.17l4.58-.41,5.11-.94,5.52-1.35,2.83-.81,2.69-.8,2.43-.81,2.29-.81,2.15-.68,2.16-.8,2-.81,2-.81,2-.81,2.16-.8,2.15-.81,2.16-.95,2.42-.94,2.56-.94,1.18-.42.13.11Zm1.7-.69-.1-.06.55-.2,3-1.07,2.25-.82.14.07-2.13.75-2.69.94ZM218,12l-1.35-.67-1.48-.68-.81-.4-.34.13-.3-.13.37-.14.27.14h0l2.83-1.08,2.44-.9,2.4,1.3,3.37,2.29,1.75,1.22,1.75,1.08,1.62.94,1.75.94,1.61.81,1.75.67.63.29-.09,0-4-1.08-4.44-1.21L223,13.87Zm51.16-1.21-.14.94-.67,1.75-1.08,1.62-1.75,1.48-2,1.21-2.29,1.08-2.69.94-2.83.54-3,.27h-3.9l-2.16-.13-2.29-.27-2.55-.27-2.56-.41-2.69-.4-2.7-.67-2.82-.68L228.22,17,225.39,16l-2.18-.83.83.29,3,.81,3,.81,3.09.81,3.24.67.44.08,2.38.59,2.56.41,1.14.12h.07l1.35.14,2.29.27h2.29l2.15-.14,3.77-.54L258,19l2.7-.81,2.29-.94,1.75-1.07,1.34-1.49.95-1.61.67-1.89.27-2-.54-1.89-1.21-1.88L264.45,3.9l.66.28,1.35.8,1.07.95.81.94.4.94.27,1,.14,1.07Z"/></svg>