<svg xmlns="http://www.w3.org/2000/svg" viewBox="0 0 100 80.34"><defs><style>.a{fill:#fff;}</style></defs><title>lsb-letters</title><path class="a" d="M95.68,28.75q-3-2.46-10.44-4.2,6.9-1.73,9.63-4.68a9.61,9.61,0,0,0,2.74-6.73,11.82,11.82,0,0,0-2.16-6.76A13.26,13.26,0,0,0,89.56,1.6Q85.81,0,76.83,0h-25V1.43a12.54,12.54,0,0,1,4.9.65,3.83,3.83,0,0,1,1.83,1.76c.34.73.52,2.51.52,5.33V28.64a6.67,6.67,0,0,1-1,2.74,1.94,1.94,0,0,1-1.49.59,9.87,9.87,0,0,1-3.45-1.19,23,23,0,0,0-4.18-1.62,18.5,18.5,0,0,0-4.67-.59,15.18,15.18,0,0,0-10.94,4.16A13.44,13.44,0,0,0,29,42.8a12.93,12.93,0,0,0,1.59,6.35,2.12,2.12,0,0,0,.12.2H26.83A18.28,18.28,0,0,1,22.17,49a3.07,3.07,0,0,1-1.81-1.63,16.88,16.88,0,0,1-.46-5.1V9a16,16,0,0,1,.42-4.85A3.71,3.71,0,0,1,21.9,2.31a7.2,7.2,0,0,1,3.66-.8h2.27V.08H0V1.51H1.73a6.93,6.93,0,0,1,3.49.75A3.86,3.86,0,0,1,6.93,4a17.22,17.22,0,0,1,.42,5V43.34a15.94,15.94,0,0,1-.42,4.85A3.48,3.48,0,0,1,5.39,50a7.19,7.19,0,0,1-3.66.81H0v1.42H32.83a18.85,18.85,0,0,0,2.25,2.09A57.39,57.39,0,0,0,44.78,60a42,42,0,0,1,6.71,3.85A10.69,10.69,0,0,1,54.32,67a6.72,6.72,0,0,1-1.5,8.58,9.25,9.25,0,0,1-6.51,2.22,14.47,14.47,0,0,1-9.86-4.14q-4.59-4.14-6.19-12H28.91V80.3h1.35A5.11,5.11,0,0,1,32,78.07a3.6,3.6,0,0,1,2-.73,8,8,0,0,1,2.89.73,32.42,32.42,0,0,0,5.21,1.79,19.63,19.63,0,0,0,4.42.48,17.36,17.36,0,0,0,12.27-4.47A14.05,14.05,0,0,0,63.6,65.2a13.65,13.65,0,0,0-3-8.68,21.64,21.64,0,0,0-5-4.25H78.34q11.1,0,16.92-4.67A12,12,0,0,0,100,37.85,11.19,11.19,0,0,0,95.68,28.75ZM71.21,2.93c3.75,0,6.47.35,8.17,1.12a8.68,8.68,0,0,1,3.91,3.37,10.7,10.7,0,0,1,1.37,5.69,10.6,10.6,0,0,1-1.39,5.7,9.12,9.12,0,0,1-4,3.47q-2.59,1.23-8.07,1.23ZM56.7,50.17a9,9,0,0,1-3.4.63C52,50,50.52,49.25,48.9,48.45l-2-1L48.3,34H46.73a37.92,37.92,0,0,1-3.83,9.32,16.6,16.6,0,0,1-1.06,1.46c-.33-.2-.63-.39-.85-.54a12.4,12.4,0,0,1-3.4-3.4,5.54,5.54,0,0,1-.76-2.91A6,6,0,0,1,39,33.3a8.37,8.37,0,0,1,5.89-2,13.07,13.07,0,0,1,9,3.78A16.79,16.79,0,0,1,59,44.85a10.68,10.68,0,0,1-.49,3.56A4,4,0,0,1,56.7,50.17Zm28.35-6.09a9.49,9.49,0,0,1-4,4,12.07,12.07,0,0,1-5.69,1.36,3.73,3.73,0,0,1-4.2-4.2l0-1.92V26.52a25.2,25.2,0,0,1,8.86,1.12,9.17,9.17,0,0,1,4.67,4.06,12.82,12.82,0,0,1,1.69,6.58A12.2,12.2,0,0,1,85.05,44.08Z"/></svg>