<?xml version="1.0" encoding="UTF-8"?>
<svg width="120px" height="62px" viewBox="0 0 120 62" version="1.1" xmlns="http://www.w3.org/2000/svg" xmlns:xlink="http://www.w3.org/1999/xlink">
    <!-- Generator: Sketch 54.1 (76490) - https://sketchapp.com -->
    <title>Yelp Logo</title>
    <desc>Created with Sketch.</desc>
    <defs>
        <polygon id="path-1" points="0 0.56025 119.999749 0.56025 119.999749 61.499625 0 61.499625"></polygon>
    </defs>
    <g id="About" stroke="none" stroke-width="1" fill="none" fill-rule="evenodd">
        <g id="Desktop-HD-V2" transform="translate(-238.000000, -1911.000000)">
            <g id="BUYER-FEEDBACK" transform="translate(168.000000, 1684.000000)">
                <g id="Feedback-Buttons" transform="translate(4.000000, 200.000000)">
                    <g id="Yelp">
                        <g id="Yelp-Logo" transform="translate(66.000000, 27.000000)">
                            <path d="M118.83255,42.013725 C119.6328,40.336725 119.67105,38.395725 118.9383,36.687225 C118.20405,34.978725 116.76855,33.669225 115.0008,33.093975 L114.79005,33.026475 C114.79005,33.026475 117.7413,32.403225 119.0598,29.518725 C119.8323,27.826725 119.8848,25.892475 119.1453,24.184725 C117.88605,21.279225 116.0418,18.741975 113.66355,16.644225 C112.4853,15.604725 110.9718,15.039225 109.40055,15.032475 L109.3698,15.032475 C105.5688,15.032475 103.9203,18.063225 103.9203,18.063225 L103.91955,7.538475 C103.91955,3.977475 101.07855,1.101225 97.4718,1.080975 L97.4343,1.080975 C95.90355,1.080975 93.0813,1.590975 91.2108,2.091975 C89.3253,2.596725 87.48255,3.276225 85.73355,4.110225 C84.11655,4.881225 82.8843,6.305475 82.35255,8.017725 C81.82005,9.732225 82.03005,11.607975 82.92705,13.163475 L88.1898,22.278975 C88.1898,22.278975 86.9253,21.526725 85.16055,21.526725 C82.38405,21.526725 79.9248,23.292975 79.04205,25.920975 C78.9768,26.114475 78.91455,26.308725 78.8553,26.502975 C78.01605,25.695225 77.0013,24.969225 75.76455,24.381975 C74.0808,23.582475 72.1968,23.160225 70.31505,23.160225 C68.87805,23.160225 67.4733,23.403975 66.1653,23.872725 C65.19255,23.360475 64.0878,23.075475 62.92455,23.075475 C61.2768,23.075475 59.76105,23.653725 58.56855,24.616725 L58.56855,23.345475 C58.56855,19.515975 55.4538,16.401225 51.62505,16.401225 C47.79555,16.401225 44.6808,19.515975 44.6808,23.345475 L44.6808,27.177975 C42.0648,24.437475 38.57655,23.312475 35.42805,23.312475 C33.06705,23.312475 29.92755,24.080475 27.2868,26.253225 C26.4018,25.016475 25.1448,24.105225 23.66655,23.647725 C22.9938,23.439225 22.29555,23.333475 21.5928,23.333475 C18.50205,23.333475 15.81105,25.317975 14.8968,28.272225 L14.6013,29.226225 L13.64655,27.270975 C12.69105,25.182225 10.2468,23.316975 7.3608,23.316225 C6.3693,23.316225 5.3253,23.536725 4.2708,24.044475 C2.58405,24.857475 1.32555,26.293725 0.71655,28.064475 C0.1068,29.835225 0.2238,31.737225 1.04505,33.420225 L7.6923,47.039475 C5.72355,47.808225 4.2603,49.391475 3.6483,51.538725 C3.0603,53.604225 3.43305,55.753725 4.6713,57.435975 C5.64405,58.757475 7.56105,60.351225 11.16705,60.438225 C11.2983,60.441225 11.4273,60.442725 11.5563,60.442725 C16.6158,60.442725 20.31705,57.941475 21.7128,53.579475 C22.28655,51.784725 22.9518,49.672725 23.63355,47.490225 C23.75805,47.768475 23.8893,48.041475 24.02955,48.306975 C26.22105,52.460475 30.2223,54.747975 35.2968,54.747975 C40.0803,54.747975 43.4373,53.133225 45.5118,51.032475 C46.68705,53.205225 48.98655,54.684975 51.62505,54.684975 C53.27355,54.684975 54.78855,54.106725 55.9803,53.142975 L55.9803,54.414975 C55.9803,58.243725 59.0958,61.358475 62.92455,61.358475 C66.69255,61.358475 69.7698,58.341975 69.86655,54.596475 C69.8718,54.596475 69.98055,54.602475 70.1748,54.602475 C71.3748,54.602475 75.82305,54.373725 78.8988,51.094725 C79.26705,50.701725 79.92255,50.024475 80.5923,48.893475 C81.4428,49.362225 82.42005,49.629225 83.4603,49.629225 C84.3018,49.629225 85.10205,49.453725 85.82805,49.138725 C86.2278,49.648725 86.7048,50.101725 87.2508,50.475975 C89.82255,52.242975 92.80455,53.449725 95.8743,53.964975 C96.22755,54.024975 96.58905,54.054975 96.94605,54.054975 C100.4418,54.054975 103.2753,51.317475 103.3968,47.823225 L103.40505,47.600475 L103.5228,47.789475 C104.71005,49.689975 106.75755,50.824725 109.0008,50.824725 C110.49555,50.824725 111.95505,50.299725 113.1093,49.346475 C115.50855,47.366475 117.4878,44.830725 118.83255,42.013725" id="Fill-1" fill="#FEFEFE"></path>
                            <g id="Group-5" transform="translate(0.000000, 0.190050)">
                                <mask id="mask-2" fill="white">
                                    <use xlink:href="#path-1"></use>
                                </mask>
                                <g id="Clip-4"></g>
                                <path d="M109.0005,50.634375 C106.758,50.634375 104.70975,49.499625 103.5225,47.599125 L103.40475,47.410125 L103.3965,47.633625 C103.275,51.127125 100.4415,53.864625 96.9465,53.864625 C96.58875,53.864625 96.228,53.834625 95.874,53.774625 C92.80425,53.259375 89.823,52.053375 87.2505,50.286375 C86.7045,49.911375 86.22825,49.458375 85.8285,48.948375 C85.1025,49.263375 84.3015,49.438875 83.46,49.438875 C82.4205,49.438875 81.44325,49.171875 80.592,48.703875 C79.92225,49.834125 79.26675,50.512125 78.8985,50.905125 C75.8235,54.184125 71.3745,54.412125 70.1745,54.412125 C69.981,54.412125 69.8715,54.406125 69.86625,54.406125 C69.7695,58.151625 66.693,61.168875 62.92425,61.168875 C59.0955,61.168875 55.98075,58.054125 55.98075,54.224625 L55.98075,52.953375 C54.789,53.916375 53.27325,54.494625 51.62475,54.494625 C48.98625,54.494625 46.68675,53.014875 45.51225,50.842125 C43.437,52.942875 40.08,54.557625 35.29725,54.557625 C30.222,54.557625 26.22075,52.270125 24.02925,48.116625 C23.88975,47.851125 23.7585,47.578875 23.634,47.300625 C22.95225,49.482375 22.287,51.594375 21.7125,53.389125 C20.3175,57.751125 16.6155,60.253125 11.556,60.253125 C11.427,60.253125 11.298,60.251625 11.1675,60.247875 C7.56075,60.161625 5.64375,58.567875 4.67175,57.246375 C3.43275,55.563375 3.06,53.413875 3.648,51.348375 C4.26075,49.201125 5.72325,47.618625 7.692,46.849125 L1.0455,33.229875 C0.22425,31.547625 0.10725,29.645625 0.71625,27.874125 C1.326,26.103375 2.58375,24.667125 4.2705,23.854125 C5.32575,23.347125 6.369,23.126625 7.3605,23.126625 C10.2465,23.126625 12.69075,24.992625 13.64625,27.080625 L14.60175,29.036625 L14.8965,28.082625 C15.81075,25.128375 18.50175,23.143125 21.5925,23.143125 C22.296,23.143125 22.9935,23.248875 23.667,23.458125 C25.1445,23.914875 26.4015,24.826125 27.28725,26.063625 C29.92725,23.890875 33.06675,23.122125 35.42775,23.122125 C38.577,23.122125 42.0645,24.247125 44.6805,26.987625 L44.6805,23.155125 C44.6805,19.326375 47.796,16.210875 51.62475,16.210875 C55.4535,16.210875 58.569,19.326375 58.569,23.155125 L58.569,24.426375 C59.7615,23.463375 61.2765,22.885125 62.92425,22.885125 C64.0875,22.885125 65.193,23.170875 66.16575,23.683125 C67.473,23.213625 68.87775,22.969875 70.31475,22.969875 C72.19725,22.969875 74.0805,23.392875 75.765,24.192375 C77.001,24.779625 78.01575,25.504875 78.85575,26.312625 C78.915,26.118375 78.97725,25.924125 79.0425,25.730625 C79.9245,23.102625 82.3845,21.337125 85.161,21.337125 C86.925,21.337125 88.1895,22.088625 88.1895,22.088625 L82.92675,12.973125 C82.02975,11.417625 81.8205,9.542625 82.353,7.827375 C82.88475,6.115875 84.11625,4.691625 85.734,3.919875 C87.483,3.085875 89.32575,2.407125 91.2105,1.901625 C93.081,1.400625 95.90325,0.891375 97.434,0.891375 L97.4715,0.891375 C101.07825,0.911625 103.92,3.787875 103.92,7.348125 L103.92075,17.873625 C103.92075,17.873625 105.56925,14.842125 109.3695,14.842125 L109.40025,14.842125 C110.9715,14.849625 112.485,15.415125 113.664,16.454625 C116.04225,18.552375 117.8865,21.088875 119.145,23.994375 C119.88525,25.702875 119.832,27.636375 119.0595,29.328375 C117.741,32.212875 114.7905,32.836125 114.7905,32.836125 L115.0005,32.904375 C116.76825,33.478875 118.20375,34.788375 118.938,36.497625 C119.6715,38.205375 119.63325,40.147125 118.83225,41.823375 C117.4875,44.641125 115.509,47.176875 113.10975,49.156875 C111.95475,50.109375 110.49525,50.634375 109.0005,50.634375 M115.78725,32.853375 C116.817,32.424375 118.449,31.461375 119.36025,29.465625 C120.18075,27.669375 120.213,25.627125 119.4495,23.863125 C118.17075,20.912625 116.29725,18.337125 113.883,16.206375 C112.65225,15.120375 111.06075,14.518875 109.40175,14.511375 L109.3695,14.511375 C106.71375,14.511375 105.0675,15.899625 104.2515,16.849875 L104.25075,7.348125 C104.25075,5.534625 103.55175,3.833625 102.28275,2.558625 C101.01075,1.279875 99.30225,0.570375 97.47375,0.559875 L97.434,0.559875 C95.8725,0.559875 93,1.079625 91.125,1.582125 C89.22075,2.092125 87.35925,2.778375 85.59075,3.621375 C83.89125,4.432125 82.59525,5.929875 82.0365,7.729125 C81.477,9.532125 81.69675,11.503875 82.641,13.138875 L87.4005,21.383625 C86.83875,21.191625 86.06325,21.005625 85.161,21.005625 C82.24125,21.005625 79.65675,22.862625 78.72825,25.625625 C78.71775,25.656375 78.70725,25.687125 78.6975,25.717875 C77.87325,24.994875 76.9365,24.382125 75.90675,23.893125 C74.17875,23.072625 72.24525,22.639125 70.31475,22.639125 C68.8905,22.639125 67.503,22.869375 66.1905,23.323125 C65.184,22.819875 64.05825,22.554375 62.92425,22.554375 C61.494,22.554375 60.08775,22.983375 58.89975,23.773875 L58.89975,23.155125 C58.89975,19.143375 55.6365,15.880125 51.62475,15.880125 C47.613,15.880125 44.34975,19.143375 44.34975,23.155125 L44.34975,26.199375 C41.98275,24.024375 38.77575,22.791375 35.42775,22.791375 C34.05675,22.791375 30.5805,23.069625 27.3465,25.591875 C26.4285,24.428625 25.19775,23.584875 23.76525,23.141625 C23.0595,22.923375 22.32825,22.812375 21.5925,22.812375 C18.3555,22.812375 15.53775,24.890625 14.58,27.984375 L14.532,28.139625 L13.94475,26.935125 C13.03275,24.945375 10.58175,22.795875 7.3605,22.795125 C6.264,22.795125 5.17575,23.051625 4.12725,23.556375 C2.3685,24.403875 1.04625,25.899375 0.40275,27.766875 C-0.23475,29.620875 -0.1125,31.613625 0.74775,33.375375 L7.2405,46.679625 C5.3115,47.542125 3.92925,49.155375 3.33,51.258375 C2.71275,53.422125 3.105,55.676625 4.40475,57.442875 C5.42175,58.823625 7.419,60.489375 11.15925,60.579375 C11.2935,60.582375 11.424,60.583875 11.556,60.583875 C16.76925,60.583875 20.586,57.997875 22.0275,53.490375 C22.49475,52.028625 23.0565,50.251875 23.69925,48.199875 L23.736,48.271125 C25.9875,52.538625 30.093,54.889125 35.29725,54.889125 C40.50525,54.889125 43.65525,53.044875 45.43875,51.375375 C46.764,53.514375 49.09575,54.826125 51.62475,54.826125 C53.05575,54.826125 54.46125,54.397125 55.64925,53.606625 L55.64925,54.224625 C55.64925,58.236375 58.91325,61.499625 62.92425,61.499625 C64.8315,61.499625 66.636,60.764625 68.004,59.428875 C69.291,58.173375 70.056,56.519625 70.182,54.743625 C71.49975,54.742875 76.00275,54.476625 79.14075,51.131625 L79.1895,51.079125 C79.54275,50.703375 80.11275,50.096625 80.71425,49.139625 C81.5655,49.552875 82.50825,49.770375 83.46,49.770375 C84.24225,49.770375 85.0035,49.627875 85.7265,49.348125 C86.118,49.811625 86.56725,50.218125 87.063,50.559375 C89.6745,52.353375 92.703,53.578125 95.81925,54.101625 C96.1905,54.164625 96.57075,54.196125 96.9465,54.196125 C100.37325,54.196125 103.1955,51.693375 103.6635,48.376125 C104.94375,50.009625 106.89075,50.965125 109.0005,50.965125 C110.5725,50.965125 112.10625,50.413875 113.31975,49.411875 C115.7565,47.401125 117.7665,44.826375 119.1315,41.966625 C119.973,40.203375 120.0135,38.162625 119.24175,36.367125 C118.5675,34.796625 117.32925,33.546375 115.78725,32.853375" id="Fill-3" fill="#CBCBCB" mask="url(#mask-2)"></path>
                            </g>
                            <path d="M54.0762,47.740875 C54.0762,49.094625 52.97895,50.191875 51.62445,50.191875 C50.27145,50.191875 49.17345,49.094625 49.17345,47.740875 L49.17345,23.345625 C49.17345,21.991125 50.27145,20.893875 51.62445,20.893875 C52.97895,20.893875 54.0762,21.991125 54.0762,23.345625 L54.0762,47.740875 Z" id="Fill-6" fill="#000000"></path>
                            <path d="M31.7886,36.53445 C31.9521,33.14745 34.5171,32.59095 35.6706,32.59095 C36.8301,32.59095 39.4041,33.15495 39.5421,36.5922 C39.5421,36.7737 39.4446,36.88095 39.3366,36.88095 L32.0016,36.88095 C31.8831,36.88095 31.77585,36.7617 31.7886,36.53445 M32.85435,40.91595 L41.66085,40.92495 C41.7216,40.92495 41.78235,40.92045 41.8431,40.91595 C43.06485,40.8237 44.2236,39.8097 44.2281,38.1867 C44.2281,38.18295 44.22885,38.17995 44.22885,38.17695 C44.2266,38.1342 44.2221,38.0952 44.21985,38.05245 C43.78335,29.1012 38.0346,27.8052 35.4276,27.8052 C32.71635,27.8052 26.5776,29.4057 26.5776,39.35895 C26.6241,43.10145 27.4266,50.25495 35.2971,50.25495 C42.09585,50.25495 43.61835,46.32795 43.61835,45.3267 C43.61835,43.84845 42.3876,42.59595 40.99785,43.06695 C39.8691,43.4502 38.3226,45.69645 35.83035,45.69645 C32.26335,45.69645 31.8021,42.43545 31.8021,41.7402 C31.8021,41.1672 32.1006,40.94445 32.85435,40.91595" id="Fill-8" fill="#000000"></path>
                            <path d="M12.741975,47.14365 L5.082975,31.4499 C4.473225,30.2004 4.991475,28.69215 6.241725,28.0824 C7.491225,27.4719 8.999475,27.9909 9.609225,29.24115 L15.538725,41.3919 L19.188225,29.6004 C19.599975,28.27215 21.009225,27.52815 22.338975,27.9399 C23.667225,28.3509 24.411225,29.7609 24.000225,31.0899 C24.000225,31.0899 19.898475,44.50365 17.433225,52.21065 C16.617975,54.76065 14.480475,56.02515 11.277225,55.94715 C8.109225,55.87065 7.617975,54.0024 7.968975,52.77015 C8.355225,51.4149 9.486225,51.0054 10.593225,51.0114 C13.455225,51.0264 13.819725,49.2924 12.741975,47.14365" id="Fill-10" fill="#000000"></path>
                            <path d="M83.1702,43.832325 L83.44095,43.832325 C83.6607,43.832325 83.86695,43.821075 83.86695,43.572075 C83.86695,43.353075 83.6802,43.326825 83.50995,43.326825 L83.1702,43.326825 L83.1702,43.832325 Z M82.94895,43.128825 L83.52945,43.128825 C83.9067,43.128825 84.08595,43.268325 84.08595,43.583325 C84.08595,43.865325 83.90445,43.986075 83.66745,44.011575 L84.12345,44.709825 L83.8842,44.709825 L83.45295,44.029575 L83.1702,44.029575 L83.1702,44.709825 L82.94895,44.709825 L82.94895,43.128825 Z M83.4597,45.075075 C84.10095,45.075075 84.6147,44.571075 84.6147,43.902825 C84.6147,43.248075 84.10095,42.744075 83.4597,42.744075 C82.81695,42.744075 82.30395,43.248075 82.30395,43.916325 C82.30395,44.571075 82.81695,45.075075 83.4597,45.075075 L83.4597,45.075075 Z M83.4597,42.546075 C84.20745,42.546075 84.8352,43.132575 84.8352,43.902825 C84.8352,44.687325 84.20745,45.273825 83.4597,45.273825 C82.7112,45.273825 82.08495,44.687325 82.08495,43.916325 C82.08495,43.132575 82.7112,42.546075 83.4597,42.546075 L83.4597,42.546075 Z" id="Fill-12" fill="#221E1F"></path>
                            <path d="M73.43925,39.857475 C73.43925,41.794725 73.4392501,45.273975 69.9165,45.273975 C66.38325,45.273975 66.393,41.794725 66.393,39.857475 L66.393,38.087475 C66.393,36.149475 66.3929999,32.670975 69.9165,32.670975 C73.449,32.670975 73.43925,36.149475 73.43925,38.087475 L73.43925,39.857475 Z M78.2955,37.995975 C78.2955,34.779225 77.89875,30.369975 73.83675,28.440225 C71.54625,27.351975 68.7225,27.371475 66.55275,28.625475 C66.117,28.877475 65.6865,29.155725 65.30475,29.440725 C65.0445,28.366725 64.07925,27.567975 62.92425,27.567975 C61.57125,27.567975 60.47325,28.665225 60.47325,30.018975 L60.47325,54.414975 C60.47325,55.768725 61.57125,56.865975 62.92425,56.865975 C64.27875,56.865975 65.376,55.768725 65.376,54.414975 L65.376,48.012975 C65.376,48.012975 67.023,50.031225 69.64425,50.099475 C78.9555,50.341725 78.34575,40.215975 78.2955,37.995975 L78.2955,37.995975 Z" id="Fill-14" fill="#000000"></path>
                            <path d="M86.0208,26.219025 L94.5813,30.393525 C96.22755,31.196775 95.97405,33.618525 94.1958,34.061775 L84.95505,36.365775 C83.80305,36.653025 82.6638,35.858025 82.5288,34.677525 C82.2378,32.153775 82.52505,29.660775 83.30055,27.353025 C83.67705,26.231775 84.95805,25.700775 86.0208,26.219025" id="Fill-16" fill="#D8272D"></path>
                            <path d="M89.448525,43.841475 L95.819775,36.764475 C97.046025,35.403225 99.303525,36.314475 99.239775,38.145975 L98.906775,47.666475 C98.865525,48.852975 97.788525,49.731225 96.617775,49.534725 C94.155525,49.120725 91.826775,48.169725 89.794275,46.773225 C88.817025,46.101975 88.655025,44.722725 89.448525,43.841475" id="Fill-18" fill="#D8272D"></path>
                            <path d="M104.5554,34.42365 L113.61165,37.36665 C114.7389,37.7334 115.28865,39.00915 114.7779,40.07865 C113.7159,42.3039 112.17465,44.2929 110.2494,45.8814 C109.33365,46.6374 107.9619,46.4154 107.33265,45.40815 L102.28515,37.3299 C101.3139,35.7759 102.81315,33.8574 104.5554,34.42365" id="Fill-20" fill="#D8272D"></path>
                            <path d="M113.764875,28.646325 L104.610375,31.271325 C102.848625,31.776075 101.417625,29.806575 102.442125,28.287075 L107.768625,20.391825 C108.430125,19.411575 109.804875,19.230825 110.691375,20.013075 C112.517625,21.624075 114.012375,23.639325 115.022625,25.971075 C115.495125,27.060825 114.906375,28.318575 113.764875,28.646325" id="Fill-22" fill="#D8272D"></path>
                            <path d="M92.373825,6.43155 C90.726075,6.8733 89.154075,7.4568 87.668325,8.16555 C86.636325,8.6568 86.246325,9.9273 86.817825,10.91655 L95.765325,26.4153 C96.769575,28.1538 99.427575,27.4413 99.427575,25.43355 L99.427575,7.53855 C99.427575,6.39555 98.454825,5.4903 97.315575,5.5803 C95.673825,5.7093 94.020825,5.99055 92.373825,6.43155" id="Fill-24" fill="#D8272D"></path>
                        </g>
                    </g>
                </g>
            </g>
        </g>
    </g>
</svg>