<?xml version="1.0" encoding="UTF-8"?>
<svg width="1070px" height="204px" viewBox="0 0 1070 204" version="1.1" xmlns="http://www.w3.org/2000/svg" xmlns:xlink="http://www.w3.org/1999/xlink">
    <!-- Generator: Sketch 54.1 (76490) - https://sketchapp.com -->
    <title>FLOURISHES</title>
    <desc>Created with Sketch.</desc>
    <defs>
        <polygon id="path-1" points="0.000398433177 0.70105235 337.403717 0.70105235 337.403717 180 0.000398433177 180"></polygon>
        <polygon id="path-3" points="0.000398433177 0.70105235 337.403717 0.70105235 337.403717 180 0.000398433177 180"></polygon>
    </defs>
    <g id="Home-V2" stroke="none" stroke-width="1" fill="none" fill-rule="evenodd">
        <g id="Desktop-HD-V2.A" transform="translate(-185.000000, -1849.000000)">
            <g id="BANNER-RECTANGLE" transform="translate(31.000000, 1836.000000)">
                <g id="FLOURISHES" transform="translate(154.000000, 13.000000)">
                    <g id="FLOURISH-VECTOR" transform="translate(732.000000, 0.000000)">
                        <path d="M224.50346,162.523557 C224.49446,162.378557 224.48246,162.240557 224.50746,162.624557 L224.50746,162.613557 C224.50746,162.583557 224.50346,162.553557 224.50346,162.523557" id="Fill-1" fill="#3E2605"></path>
                        <path d="M43.6931818,60.8043973 C39.3333613,58.1613127 34.7691742,56.0314195 29.5497165,55.1785724 C28.7192745,55.0569489 27.8596372,54.9471912 27,54.8656145 C27.2205862,54.9338423 27.4427943,55.0020701 27.6666243,55.0702978 C30.9429775,56.0862984 33.9371102,57.7667782 36.3392286,60.0583415 C36.4138386,60.1265692 36.2938138,60.2348437 36.2208257,60.1814481 C33.5964992,58.2562383 30.4239513,56.9955077 27.2205862,56.1278284 C27.1621957,56.1278284 27.0875857,56.0996473 27.0129757,56.0862984 C30.320146,58.6492896 32.6476544,63.1226585 35.2265661,65.590724 C38.2077231,68.4370088 41.305661,68.2486408 45.383261,68.410311 C47.7853793,68.5185855 51.1801354,68.2886876 51.7429545,71 C52.4841889,65.0211704 51.9667846,54.4859121 45.5016638,50.9884971 C41.305661,48.7384637 32.6168372,50.771948 27.7250148,52.6971579 C28.6300668,52.8454791 29.5043017,53.0368135 30.3655608,53.2385304 C35.3903837,54.4058186 40.6828295,56.8056565 43.8261822,60.6827739 C43.8861946,60.7643506 43.796987,60.8592762 43.6931818,60.8043973" id="Fill-3" fill="#3E2605"></path>
                        <path d="M58.6997792,12.6331045 C58.7270012,12.5217391 58.8797472,12.5354691 58.8797472,12.6468345 C58.8389141,18.4622426 55.0217774,23.2723112 50.8749513,26.9534706 C50.4605711,27.3028223 50.046191,27.6659039 49.6318108,28 C50.1974246,27.7208238 50.8205072,27.4553776 51.4844228,27.2051869 C51.6220454,27.0938215 51.773279,26.9824561 51.912414,26.8710908 C54.4833856,24.9183829 56.738279,22.576659 58.6997792,20.0228833 C58.8389141,19.842868 59.1141593,20.0228833 58.9901478,20.2181541 C57.4566388,22.4225782 55.7280384,24.5278413 53.7650259,26.3691838 C58.2990101,24.7643021 63.4832988,23.0770404 65.2391213,19.395881 C67.8932714,13.8596491 62.9721292,4.61479786 60.151622,0 C60.2484115,3.51334859 59.7372419,5.99542334 57.0407463,8.60259344 C53.6682364,11.8520214 52.2163936,13.1624714 51.2636217,17.8062548 C50.8613402,19.7025172 50.1974246,22.4500381 49.1327399,24.9183829 C50.3637816,23.7467582 51.4284663,22.4363082 52.299572,20.9016018 C52.4235836,20.706331 52.7562976,20.8878719 52.6458971,21.0968726 C51.5388669,23.3562166 49.9494015,25.3089245 48.0831785,26.9961861 C48.0559564,27.051106 48.0272221,27.0800915 48,27.1212815 C48.5671261,26.7307399 49.1055178,26.3264683 49.6454219,25.8947368 C53.792248,22.5476735 57.6487055,18.0427155 58.6997792,12.6331045" id="Fill-5" fill="#3E2605"></path>
                        <path d="M104.02183,26.2728263 C102.686402,26.5962759 101.349419,26.8949638 100,27.1626996 C101.293453,27.0791289 102.571359,26.9646061 103.864812,26.8237739 C108.029667,26.3718731 112.164985,25.6212844 116.270765,24.7298635 C116.455766,24.6880782 116.497741,24.97129 116.314294,25.0270038 C112.248935,26.1583035 108.129164,27.1921041 103.951871,27.8993598 C106.807728,28.1965001 109.663584,28.5493542 112.519441,28.9176843 C116.455766,29.4268466 121.074573,31.0827846 124.640896,28.9037559 C130.794124,25.183312 132.400058,15.3235166 129.813152,9 C128.306715,15.8899402 116.356269,10.8942693 111.396997,14.5311425 C108.640637,16.5399346 105.898269,20.8685875 102.67241,23.754872 C105.301291,22.8061897 107.858658,21.6315571 110.204596,20.0901419 C110.302537,20.018952 110.402034,20.1613317 110.316529,20.2170455 C107.759162,22.2691706 104.917297,23.8817757 101.904423,25.0981937 C102.62888,24.97129 103.353338,24.8289103 104.065359,24.6602213 C109.337112,23.4995171 114.467393,21.9859588 119.397127,19.8069301 C119.46864,19.7790732 119.510615,19.8781199 119.454648,19.9059768 C114.594873,22.6220247 109.40707,24.9140286 104.02183,26.2728263" id="Fill-7" fill="#3E2605"></path>
                        <path d="M146.724711,44.8211931 C145.088575,44.5630618 143.536504,44.0482828 142,43.4519105 L142.597789,44.020096 C144.518808,45.0511376 150.168223,47.6947579 152.60141,46.8283863 C155.219849,45.8922895 157.553405,40.4552141 156.884006,38 C156.955616,41.3631241 150.267854,40.0071932 148.047941,40.6169171 C146.01328,41.1732345 144.518808,41.7429035 142.627367,42.1909244 C145.188207,42.4742754 147.777068,42.5558686 150.339464,43.0854828 C150.453106,43.112186 150.481128,43.3154273 150.339464,43.3154273 C148.075962,43.4103722 145.784439,43.5320202 143.522493,43.4786138 C144.56084,43.9251512 145.642775,44.3464689 146.78231,44.6046002 C146.909963,44.6313034 146.866374,44.8478963 146.724711,44.8211931" id="Fill-9" fill="#3E2605"></path>
                        <path d="M135.505764,112.089639 C137.927708,106.566503 136.933501,102.085326 135.813677,97.27582 C135.770784,97.9054935 135.701848,98.535167 135.602274,99.1663398 C134.664748,105.565022 131.991571,111.636874 127.075683,116.062579 C126.950067,116.160029 126.824451,115.981621 126.907174,115.885671 C131.44468,111.170616 133.615392,104.867884 133.880411,98.481195 C133.909518,97.8920005 133.909518,97.316299 133.909518,96.7271045 C133.054714,101.373196 131.360425,105.881358 127.677722,109.088195 C127.622574,109.128674 127.565893,109.074702 127.607255,109.019231 C130.534728,105.346136 131.976252,100.440679 132.36842,95.8500592 C132.397526,95.5757015 132.4251,95.2878508 132.438888,95 C129.987837,98.7000815 126.305134,101.893426 123.967445,105.250185 C120.943462,109.608426 118.745176,113.665322 119.023983,118.927594 C119.178706,121.996502 118.674709,124.080422 116,125.970942 C124.695101,126.519657 132.36842,119.201951 135.505764,112.089639" id="Fill-11" fill="#3E2605"></path>
                        <path d="M189.024536,127.546146 C189.039281,127.93306 189.054026,128.29277 189.068771,128.650968 C189.173624,131.88533 188.949173,135.17259 187.990748,138.29511 C187.063451,141.251377 185.356308,143.847935 182.988917,146.05909 C182.944682,146.086295 182.854573,146.003169 182.898808,145.948759 C187.092941,140.754132 187.707316,134.122178 186.89798,127.877139 C186.852106,127.546146 186.807871,127.160743 186.763636,126.828239 C186.178751,131.388084 184.756678,135.780167 182.09111,139.70372 C182.015747,139.814051 181.820785,139.70372 181.881404,139.593389 C183.962087,135.366047 184.800913,130.585539 185.0696,126 C183.288732,130.364877 180.233241,133.957437 177.253113,138.322315 C174.88736,141.831749 173.838827,145.533129 174.22875,149.650139 C174.51382,152.46887 175.098705,154.651309 173,157 C176.460159,155.867973 179.994044,153.656818 183.06428,151.750963 C186.388458,149.650139 191.434524,147.192628 193.143305,143.627273 C195.867853,137.935401 191.434524,132.713568 189.024536,127.546146" id="Fill-13" fill="#3E2605"></path>
                        <path d="M226.864127,83.6037699 C224.631911,82.5971628 220.676002,83.8023708 219.198314,82 C218.050836,87.9185775 222.034813,88.9877575 227.227357,89 C225.416158,88.1416634 223.846012,87.0221531 222.488851,85.6931597 C222.396393,85.6061018 222.548289,85.456471 222.639097,85.543529 C224.66163,87.060241 227.10518,88.1661485 229.672558,88.9510299 C230.124945,88.9374271 230.547613,88.9129421 231,88.8884571 C229.611469,87.5703459 229.036905,84.610377 226.864127,83.6037699" id="Fill-15" fill="#3E2605"></path>
                        <path d="M262.792512,71.8650384 C264.733229,71.5753336 267.469579,71.009504 270.035881,70.1811294 C267.585023,70.0030817 265.188768,69.4221633 262.907956,68.3885812 C262.792512,68.3327527 262.850234,68.1818648 262.964119,68.2226045 C266.157566,69.2984352 269.466459,69.5066605 272.74571,69.1611272 C273.174727,68.9679907 273.602184,68.7612743 274,68.5545579 C272.889236,68.5273981 271.804992,68.4444097 270.720749,68.3055929 C265.017161,67.5602066 259.599064,65.5202022 254.179407,63.8785419 C254.095164,63.8498732 254.151326,63.7548138 254.237129,63.7683937 C259.485179,64.9951124 264.76131,66.470796 270.207488,66.7061811 C267.812793,66.0437833 265.530421,64.9407927 263.705148,63.2719725 C263.619345,63.1889842 263.762871,63.0380963 263.876755,63.1059959 C266.157566,64.6918277 269.01092,65.5066223 271.804992,65.8913865 C270.606864,64.8864731 269.638066,63.478689 268.669267,62.4858466 C265.586583,59.2025259 262.907956,57.6438539 258.230889,57.106693 C249.045242,56.0580221 246.109204,62.9264393 243,69.5066605 C244.683307,66.9958859 250.187207,69.0373992 252.354134,69.9472532 C255.605304,71.3127887 259.199688,72.3886194 262.792512,71.8650384 Z" id="Fill-17" fill="#3E2605"></path>
                        <path d="M297.486802,72 C299.643954,69.9049454 303.026066,67.7259687 302.999848,64.4245344 C302.999848,61.9308499 301.482122,59.6439735 299.458972,58.4795547 C300.656257,60.9732391 300.736368,63.7396703 299.964395,66.465639 C299.910503,66.6574609 299.617736,66.5885249 299.643954,66.3982017 C299.936721,63.5898095 299.298751,60.6030829 297.67324,58.3012203 C297.594586,58.2053094 297.540694,58.0959109 297.460584,58 L297.406691,58.0404624 C297.967463,59.4521516 298.153902,60.9732391 297.75335,62.5617641 C297.727132,62.657675 297.566912,62.615714 297.594586,62.519803 C297.647022,61.2055234 297.328037,59.9586812 296.79494,58.7942625 C296.423519,60.9582531 295.676308,63.4519375 296.155514,65.6444016 C296.688611,68.027189 298.765654,69.4388782 297.486802,72" id="Fill-19" fill="#3E2605"></path>
                        <g id="Group-23" transform="translate(0.000000, 24.000000)">
                            <mask id="mask-2" fill="white">
                                <use xlink:href="#path-1"></use>
                            </mask>
                            <g id="Clip-22"></g>
                            <path d="M319.466758,93.0176471 C323.403183,90.2737815 326.955372,87.0670588 329.924032,83.4110924 C327.969372,88.1228571 324.924183,92.5078992 321.341702,96.2561345 C320.759768,95.154958 320.134787,94.074958 319.466758,93.0176471 M322.339758,104.245714 C324.554296,112.126387 322.8069,120.643866 318.784381,127.722857 C311.41056,140.831092 296.371155,149.153445 280.835909,149.430252 C265.153985,149.705546 249.385966,143.815462 236.240636,136.019496 C233.976674,134.676303 231.784457,133.239328 229.620938,131.764538 C229.080457,128.20084 228.243428,124.682521 227.030136,121.197479 C225.456523,116.606723 223.474758,112.071933 220.966862,107.841176 C218.46056,103.554454 215.590749,99.4628571 212.500919,95.5633613 C209.002938,91.137479 205.165362,86.9657143 201.136466,82.9618487 C201.664192,82.6063866 202.190325,82.2509244 202.719645,81.9 C202.9014,82.0331092 203.079966,82.1707563 203.260126,82.3038655 C215.880919,91.5957983 229.50774,100.264538 244.110296,106.485882 C255.739409,111.462353 268.243815,114.781008 281.038391,115.168235 C293.252626,115.501008 305.2309,112.79042 315.315098,106.042689 C317.445136,104.623866 319.471542,103.003866 321.368806,101.23563 C321.729126,102.229412 322.062343,103.230756 322.339758,104.245714 M199.530966,105.186555 C195.543523,100.913445 191.715513,96.529916 187.946494,92.102521 C188.829758,91.4853782 189.714617,90.8727731 190.596287,90.2541176 C193.273183,88.3784874 195.953268,86.4983193 198.654079,84.6484034 C202.588909,89.1 206.262268,93.7542857 209.541825,98.6884034 C212.237853,102.724034 214.642117,106.95479 216.713164,111.324706 C217.760645,113.537647 218.840013,115.721849 219.772702,117.989244 C220.705391,120.256639 221.521692,122.496807 222.162617,124.543361 C222.403362,125.289076 222.613815,126.042353 222.80673,126.803193 C214.3934,120.282353 206.707089,112.902353 199.530966,105.186555 M163.176834,102.539496 C162.912174,95.9959664 162.086306,89.4630252 160.488777,83.1055462 C156.160145,65.7952941 147.706957,49.1763025 135.102108,35.9152941 C128.120494,28.5746218 119.785287,22.4077311 110.4584,17.9697479 C110.297372,17.9001681 110.166636,18.1361345 110.32607,18.2193277 C126.50224,27.0544538 138.686183,41.1836975 146.570192,57.0842017 C149.87207,63.7411765 152.399098,70.7309244 154.216645,77.882521 C150.112815,67.1384874 142.217645,57.910084 132.437966,51.2440336 C132.036192,50.6722689 131.640796,50.0959664 131.226268,49.5347899 C125.687532,42.0413445 118.634174,35.5840336 110.968589,30.067563 C102.413362,23.8734454 92.722966,19.0210084 82.4044,16.1168067 C72.0714849,13.2141176 61.1263434,12.4805042 50.5032585,14.0853782 C41.8762868,15.3710924 33.2477208,17.3344538 25.5534377,21.3443697 C18.8045981,24.8551261 13.0059849,30.109916 10.4550415,37.1329412 C10.4119943,37.2584874 10.6001264,37.3265546 10.6447679,37.202521 C13.7632962,29.1282353 21.0781264,23.7630252 29.1247585,20.3763025 C33.1903245,18.6761345 37.4153245,17.4312605 41.7296075,16.5040336 C46.3930509,15.4951261 51.2015792,14.7342857 55.9686547,14.4030252 C77.9880792,12.8541176 99.2071453,22.2836975 115.252579,36.0695798 C119.216108,39.4729412 122.776268,43.2620168 125.923494,47.3369748 C119.576428,43.992605 112.658589,41.6102521 105.525513,40.3184874 C101.008749,33.8596639 94.6058811,28.7213445 87.563683,24.8278992 C80.1308717,20.7226891 71.8817585,18.0529412 63.3568245,16.9608403 C46.7868528,14.8310924 29.2108528,19.0769748 17.1592396,30.4139496 C15.7163623,31.7828571 14.3611736,33.2485714 13.0793245,34.7823529 C13.034683,34.8231933 13.1223717,34.8791597 13.1654189,34.8383193 C18.9959189,28.7546218 26.4271358,24.1230252 34.6029094,21.3852101 C42.4438717,18.7578151 50.9098151,18.0393277 59.1445792,18.965042 C67.3793434,19.8786555 75.4530792,22.450084 82.6228245,26.3904202 C86.3392302,28.4369748 89.7782208,30.8556303 92.9700887,33.5389916 C94.9677962,35.2346218 96.9957962,37.2766387 98.7511642,39.4290756 C96.5270604,39.2460504 94.2949849,39.1689076 92.0613151,39.2052101 C89.6315415,36.2042017 86.8462302,33.4603361 83.6288528,31.0915966 C76.7779755,26.0727731 68.471466,23.334958 59.9895792,22.0628571 C53.1402962,21.0252101 46.0438906,20.9979832 39.2233057,22.2141176 C32.8252208,23.334958 26.5435226,25.7263866 21.7206453,29.9163025 C21.6329566,30.0131092 21.7636925,30.1643697 21.8513811,30.0811765 C28.3228057,24.5934454 37.1379094,22.4364706 45.6213906,21.9660504 C54.3360509,21.4820168 63.3424755,22.7541176 71.5039,25.7551261 C79.0594755,28.5368067 85.5436547,33.242521 90.5148057,39.2505882 C76.2661925,39.8042017 61.6253717,44.6006723 52.143834,55.0255462 C51.1170792,55.6063866 50.1222113,56.2265546 49.205466,56.9329412 C40.6629943,63.5173109 38.8645792,74.9541176 41.9257113,84.8631933 C41.9480321,85.0189916 41.9544094,85.1763025 41.9783245,85.3321008 C42.2397962,87.1154622 42.7356358,88.8443697 43.3478623,90.5445378 C43.3574283,90.5702521 43.3638057,90.5884034 43.374966,90.6110924 C41.257683,91.0936134 38.976183,91.2494118 37.023117,91.2902521 C30.4066075,91.4430252 23.4839849,89.4373109 17.8878528,86.1186555 C12.6568245,83.0223529 7.99178679,78.169916 5.63216415,72.7230252 C3.03657925,66.7346218 2.29361698,60.1668908 2.86279623,53.7519328 C4.0729,39.9131092 12.0159,27.7457143 23.5413811,19.4218487 C34.8803245,11.2507563 49.1193717,6.96403361 63.2101453,5.85831933 C78.8043811,4.62705882 94.3109283,7.76722689 108.125881,14.6783193 C122.567409,21.9115966 134.547277,32.8205042 145.041221,44.5447059 C155.386891,56.102521 164.364617,68.6571429 173.648457,80.9894118 C176.421013,84.6710924 179.2414,88.322521 182.115994,91.9346218 C175.960249,95.7373109 169.707249,99.3645378 163.176834,102.539496 M157.005145,118.293277 C156.743674,120.090252 156.435966,121.86 156.072457,123.629748 C155.90824,124.463193 155.716919,125.269412 155.538353,126.07563 C155.509655,126.193613 155.472985,126.349412 155.46023,126.396303 C155.40124,126.588403 155.358192,126.783529 155.300796,127.00437 C155.17006,127.502017 155.03773,127.999664 154.906994,128.52605 C153.915315,132.092773 152.749853,135.603529 151.278277,139.032605 C150.564013,140.71916 149.776409,142.38 148.902711,144.010588 C148.705013,144.384202 148.507315,144.759328 148.296862,145.132941 C148.250626,145.210084 148.205985,145.285714 148.188447,145.309916 C148.086409,145.476303 147.970023,145.697143 147.853636,145.863529 C147.386494,146.692437 146.8779,147.49563 146.351768,148.270084 C145.376032,149.791765 144.296664,151.228739 143.1599,152.611261 C142.621013,153.272269 142.053428,153.910588 141.4699,154.545882 C141.324815,154.712269 141.178136,154.849916 141.033051,154.989076 C140.959711,155.101008 140.463872,155.598655 140.931013,155.101008 C140.581853,155.48521 140.231098,155.819496 139.867589,156.150756 C138.598494,157.366891 137.228957,158.472605 135.800428,159.523866 C135.116457,160.023025 134.416542,160.493445 133.702277,160.962353 C133.5269,161.072773 133.337174,161.184706 133.163391,161.293613 C133.730975,160.962353 133.120343,161.32084 133.03106,161.376807 C132.595806,161.627899 132.157362,161.845714 131.720513,162.096807 C130.132551,162.954454 128.484004,163.671429 126.765306,164.253782 C126.374692,164.383866 125.968136,164.516975 125.563174,164.651597 C125.457947,164.678824 125.339966,164.713613 125.308079,164.724202 C125.104004,164.777143 124.87123,164.833109 124.667155,164.889076 C123.704174,165.167395 122.728438,165.359496 121.767051,165.52437 C120.848711,165.719496 119.916023,165.828403 118.983334,165.940336 C118.516192,165.99479 118.036296,165.99479 117.554806,166.050756 C117.307683,166.050756 117.074909,166.076471 116.826192,166.106723 L116.768796,166.106723 L116.57907,166.106723 L116.272957,166.106723 C113.940438,166.159664 111.638211,165.99479 109.350334,165.607563 C102.980947,164.492773 96.9399943,161.14084 92.8632679,156.249076 C95.8526547,155.808908 98.8085604,155.147899 101.684749,154.297815 C108.181683,152.391933 114.353372,149.58 119.954287,145.937647 C123.246598,145.381008 126.456004,144.402353 129.432636,143.071261 C136.922843,139.723866 142.955825,133.945714 147.372145,127.391597 C150.597494,122.632941 153.000164,117.390252 154.674221,111.944874 C155.686626,111.491092 156.707004,111.047899 157.701872,110.569916 C157.566353,113.15042 157.365466,115.723361 157.005145,118.293277 M84.2841264,151.836807 C84.9537491,151.811092 84.1677396,151.836807 84.0800509,151.836807 C83.8472774,151.836807 83.6288528,151.836807 83.3801358,151.864034 C82.3900509,151.864034 81.3840226,151.836807 80.3923434,151.811092 C78.4839189,151.727899 76.5739,151.56 74.7085226,151.228739 C72.7267585,150.95042 71.6186925,150.676639 69.550834,150.065546 C62.0893245,147.879832 55.6465981,143.706555 50.6052962,137.898151 C45.1988906,131.676807 41.1317302,123.658487 42.5172113,115.417815 C43.4626547,109.757647 47.1758717,105.216807 52.0816547,102.250588 C56.4501453,105.722017 61.8358245,108.031765 67.5403717,108.697311 C72.0045226,109.217647 76.3746075,108.555126 80.4194472,107.034958 C81.8431925,109.083025 83.5730509,110.922353 85.535683,112.551429 C85.1307208,114.558655 84.8963528,116.597647 84.8963528,118.707731 C84.8963528,122.551261 85.6393151,126.396303 87.0965415,129.990252 C87.4887491,130.96437 87.9638623,131.903697 88.4884,132.815798 C85.5149566,135.379664 84.5599472,139.496975 84.5169,143.180168 C84.4866075,146.061681 84.9473717,148.994622 85.859334,151.767227 C85.8003434,151.770252 85.7413528,151.777815 85.6839566,151.78084 C85.4495887,151.78084 85.2168151,151.811092 84.9840415,151.811092 C85.9741264,151.78084 83.7595887,151.864034 84.2841264,151.836807 M44.5149189,67.1430252 C45.0522113,65.3218487 45.8334377,63.5687395 46.8888906,61.9502521 C47.1471736,61.5615126 47.4580698,61.2090756 47.7450509,60.84 C46.4919,62.8532773 45.4013717,64.9588235 44.5149189,67.1430252 M92.4885981,41.8068908 C97.7212208,49.1203361 100.460296,57.707395 100.984834,66.5001681 C101.217608,70.674958 100.956136,75.0176471 99.8767679,79.0820168 C98.8229094,82.9648739 97.0356547,86.6329412 94.7254566,89.9667227 C94.9135887,87.487563 94.7031358,84.910084 92.0374,83.6591597 C89.8372113,82.6078992 87.2432208,83.0223529 84.9680981,83.7136134 C81.9085604,84.6408403 79.0515038,86.7705882 77.6102208,89.5341176 C76.1370509,92.3566387 76.0940038,95.6042017 76.7205792,98.632437 C76.7747868,98.8880672 76.8624755,99.1285714 76.9262491,99.3826891 C75.6762868,99.6670588 74.4119755,99.9105882 73.1205604,100.070924 C69.0518057,100.567059 64.7646264,100.158655 60.8026925,98.8941176 C62.6298057,98.5053782 64.4935887,98.2542857 66.3302679,98.1907563 C66.593334,98.1620168 66.6363811,97.7747899 66.358966,97.8035294 C64.0742774,97.8761345 61.8294472,98.0757983 59.6260698,98.4796639 C56.5362396,97.3346218 53.6775887,95.6662185 51.3626075,93.4063866 C51.3610132,93.4048739 51.3610132,93.4033613 51.3594189,93.4033613 C52.0019377,92.9919328 52.6253245,92.5563025 53.1992868,92.0647059 C56.7546642,89.0228571 57.2935509,84.6680672 55.777334,80.3541176 C55.2830887,78.9579832 52.7034472,79.3860504 52.7337396,80.8653782 C52.7751925,82.7636975 52.3941453,84.4578151 51.219117,85.9840336 C50.3804943,86.6737815 49.8240698,87.5556303 48.9583434,88.207563 C48.6012113,88.4858824 48.2090038,88.7248739 47.8024472,88.9502521 C47.4628528,88.4057143 47.1710887,87.8294118 46.8729472,87.2606723 C45.8780792,84.665042 45.2674472,81.5188235 45.2275887,78.6947899 C45.1255509,71.6581513 47.6318528,64.9089076 51.7117679,59.089916 C52.7879472,57.5576471 53.9677585,56.1312605 55.2400415,54.8016807 C59.9098623,52.4314286 65.7945698,51.1880672 70.9634189,52.3966387 C76.6615887,53.7247059 80.6554094,57.7210084 81.9819,63.1134454 C82.0536453,63.417479 82.5494849,63.3342857 82.4904943,63.0302521 C81.718834,59.9052101 79.9985415,57.0842017 77.3758528,55.0391597 C74.8839,53.1166387 71.7797208,52.2166387 68.6468434,51.7613445 C64.9049283,51.2198319 60.9908245,51.6373109 57.3350038,52.7823529 C60.692683,49.7707563 64.5749,47.3294118 68.8509189,45.3872269 C75.4961264,42.3741176 82.8125509,40.5892437 90.1863717,40.2443697 C90.5450981,40.2262185 90.9022302,40.2262185 91.2609566,40.2156303 C91.6738906,40.7420168 92.0979849,41.2608403 92.4885981,41.8068908 M101.509372,43.2998319 C102.690777,45.2359664 103.666513,47.267395 104.482815,49.3563025 C105.154032,51.0988235 105.735966,53.1998319 106.158466,55.3704202 C106.348192,56.4216807 106.509221,57.4714286 106.624013,58.5363025 C106.654306,58.7994958 106.654306,59.0763025 106.683004,59.3243697 C106.683004,59.3939496 106.741994,60.2788235 106.711702,59.6284034 C106.741994,60.0715966 106.756343,60.4996639 106.786636,60.9277311 C106.793013,60.9927731 106.816928,61.3754622 106.828089,61.5690756 C106.910994,63.7835294 106.783447,65.9843697 106.493277,68.1731092 C106.348192,69.2531092 106.158466,70.3164706 105.911343,71.3813445 C105.911343,71.4085714 105.692919,72.2934454 105.852353,71.712605 C105.779013,71.9757983 105.721617,72.237479 105.633928,72.5021849 C105.4729,73.1238655 105.299117,73.7319328 105.095042,74.34 C104.53224,76.0658824 103.83073,77.7584874 103.035155,79.4011765 C103.172268,78.7023529 103.322136,78.005042 103.419391,77.2986555 C104.584853,68.7267227 102.9379,59.6556303 99.5419566,51.7053782 C97.7849943,47.5956303 95.5640792,43.7097479 92.8489189,40.1717647 C95.0985321,40.1596639 97.3497396,40.2791597 99.5913811,40.5 C100.294485,41.4272269 100.944975,42.365042 101.509372,43.2998319 M80.465683,95.687395 C79.5473434,91.332605 81.7921736,87.667563 86.0921075,85.9946218 C87.5780321,85.4001681 89.2233906,85.1521008 90.8129472,85.4152941 C92.9557396,85.7737815 93.5233245,88.2347899 93.3925887,89.9636975 C93.3527302,90.4114286 93.7258057,90.6413445 94.0861264,90.6368067 C90.2549283,93.9010084 85.9199189,96.4633613 81.1958906,98.1347899 C80.8897774,97.3391597 80.6410604,96.5223529 80.465683,95.687395 M140.959711,81.2117647 C141.339164,83.3536134 141.616579,85.5105882 141.804711,87.6826891 C141.994438,89.8805042 142.008787,91.4989916 142.023136,93.7936134 C142.053428,98.0788235 141.630928,102.392773 140.784334,106.623529 C140.565909,107.757983 140.406475,108.422017 140.2024,109.223697 C140.012674,109.957311 139.787872,110.690924 139.567853,111.423025 C137.249683,112.074958 134.921947,112.692101 132.579862,113.233613 C125.614192,114.836975 118.428504,115.805042 111.273108,115.445042 C104.672542,115.141008 98.2298151,113.841681 92.5475887,110.468571 C90.8113528,109.435462 89.1054094,108.21479 87.5413623,106.829244 C87.5238245,106.741513 87.4568623,106.684034 87.3691736,106.671933 C86.6612868,106.035126 85.9868811,105.365042 85.3491453,104.663193 C87.5764377,103.350252 89.6554566,101.783193 91.5272113,100.014958 C92.7293434,98.8880672 93.8294377,97.6658824 94.8753245,96.4028571 C96.3995132,95.3440336 97.8694943,94.2231933 99.2358434,93.0191597 C102.456409,90.1709244 105.299117,86.8794958 107.411617,83.217479 C109.844579,79.0411765 111.360796,74.4640336 112.205796,69.7628571 C113.8384,60.6373109 112.032013,51.1668908 107.309579,43.1062185 C106.987523,42.5510924 106.622419,42.0247059 106.271664,41.4862185 C108.141825,41.8568067 109.996042,42.3 111.827938,42.8157983 C117.307683,44.3677311 122.580164,46.5988235 127.474787,49.4168067 C134.316098,58.909916 138.947655,69.8354622 140.959711,81.2117647 M154.884674,106.216639 C154.262881,106.467731 153.655438,106.741513 153.027268,106.983529 C150.573579,107.92437 148.080032,108.783529 145.570542,109.601849 C146.329447,106.237815 146.818909,102.82084 147.037334,99.4068908 C148.062494,83.527563 142.9909,67.3880672 134.199711,53.8502521 C138.842428,57.3413445 142.987711,61.4208403 146.410758,66.0297479 C150.564013,71.6173109 153.507164,77.9626891 155.023381,84.6408403 C156.635258,91.7818487 156.392919,99.1104202 154.884674,106.216639 M123.793457,143.263361 C130.524758,138.174958 136.018853,131.815966 139.998325,124.570588 C141.445985,121.917479 142.643334,119.149412 143.638202,116.316303 C146.584542,115.30437 149.479862,114.19563 152.29706,113.011261 C152.590419,112.888739 152.871023,112.748067 153.162787,112.622521 C148.805457,125.907731 139.561475,138.56521 125.424466,143.263361 C124.544391,143.555294 123.643589,143.804874 122.731626,144.027227 C123.08557,143.771597 123.445891,143.526555 123.793457,143.263361 M86.1399377,113.052101 C92.4854094,118.060336 100.984834,120.963025 108.972475,121.584706 C118.359947,122.301681 127.851051,120.931261 136.961108,118.397647 C136.948353,118.427899 136.937192,118.458151 136.922843,118.486891 C136.500343,119.427731 136.034796,120.368571 135.567655,121.307899 C134.941079,122.496807 134.765702,122.80084 134.08173,123.906555 C133.002362,125.676303 131.806608,127.391597 130.510409,129.049412 C129.94123,129.769412 129.330598,130.460672 128.732721,131.151933 C128.426608,131.511933 128.106145,131.843193 127.785683,132.203193 C127.640598,132.36958 127.47957,132.534454 127.318542,132.70084 C127.251579,132.76437 126.835457,133.183361 126.849806,133.174286 C125.523315,134.503866 124.120296,135.785042 122.669447,136.98605 C121.154825,138.230924 119.566862,139.448571 117.948608,140.554286 C117.161004,141.07916 116.346296,141.605546 115.544343,142.101681 C115.163296,142.369412 114.7679,142.587227 114.374098,142.85042 C114.281626,142.907899 114.184372,142.968403 114.158862,142.988067 C113.868692,143.154454 113.591277,143.319328 113.329806,143.458487 C112.473645,143.945546 111.606325,144.414454 110.726249,144.86521 C106.934909,144.461345 103.242419,143.404034 99.9357585,141.605546 C96.2624,139.613445 93.2905509,136.73042 91.0313717,133.38605 C91.9226075,132.737143 92.9908151,132.23042 94.3109283,131.953613 C95.9722302,131.593613 97.7642679,131.64958 99.309183,132.36958 C101.013532,133.142521 101.437626,134.939496 101.204853,136.571597 C101.058174,137.59563 102.703532,137.733277 102.850211,136.737983 C103.084579,135.133109 102.86456,133.585714 101.831428,132.257647 C100.927438,131.097479 99.4702113,130.516639 98.027334,130.211092 C95.3663811,129.654454 92.3451075,130.336639 89.9918623,131.734286 C88.4644849,129.10084 87.3404755,126.246555 86.6740415,123.327227 C85.9231075,120.013109 85.7365698,116.487227 86.1399377,113.052101 M99.5579,149.401513 C99.3235321,149.457479 99.1051075,149.513445 98.872334,149.596639 C98.3477962,149.732773 97.8089094,149.873445 97.2540792,150.00958 C95.3743528,150.510252 93.4356358,150.897479 91.4969189,151.172773 C90.9181736,151.263529 90.3330509,151.327059 89.7495226,151.399664 C89.5837113,151.050252 89.4147113,150.70084 89.2680321,150.34084 C87.4154094,145.862017 86.3551736,138.662017 89.6650226,134.64605 C93.0928528,139.525714 98.3446075,143.275462 104.176702,145.061849 C105.533485,145.485378 106.922155,145.8 108.323579,146.029916 C106.418343,146.913277 104.47006,147.719496 102.486702,148.434958 C101.59706,148.738992 100.678721,149.041513 99.7763245,149.348571 C100.4029,149.123193 99.6296453,149.348571 99.5579,149.401513 M157.866089,104.983866 C157.339957,105.213782 156.80107,105.421008 156.271749,105.643361 C156.319579,105.407395 156.37857,105.172941 156.421617,104.936975 C157.009928,101.81042 157.312853,98.6521008 157.341551,95.4952941 C157.441994,96.4134454 157.5249,97.3467227 157.603023,98.2739496 C157.64607,98.7988235 157.674768,99.2964706 157.70506,99.8485714 C157.719409,100.098151 157.733758,100.347731 157.748108,100.623025 C157.762457,100.706218 157.807098,101.674286 157.776806,101.232605 C157.837391,102.477479 157.859711,103.731429 157.866089,104.983866 M67.7587962,2.16605042 C85.7413528,0.839495798 103.578825,5.69344538 119.085372,14.1806723 C126.911985,18.4537815 133.906353,23.6662185 140.55156,29.4322689 C147.415192,35.3904202 154.178381,41.4605042 160.954325,47.5154622 C173.685126,58.9068908 186.784221,69.9836975 200.54656,80.2739496 C200.106523,80.5462185 199.668079,80.82 199.229636,81.0937815 C196.908277,78.8505882 194.537494,76.6542857 192.126853,74.5048739 C184.753032,67.9386555 176.883372,61.9381513 168.882975,56.0616807 C168.721947,55.9361345 168.562513,56.1721008 168.707598,56.2961345 C178.434664,64.6442017 188.196806,73.1828571 196.818994,82.612437 C195.398438,83.512437 193.984258,84.4154622 192.579645,85.3184874 C190.333221,86.76 188.083608,88.192437 185.829211,89.6142857 C180.280909,83.0011765 174.900013,76.262521 169.611589,69.4315966 C160.021636,57.0569748 149.996428,44.82 138.496457,33.9670588 C127.187806,23.3077311 114.39323,13.9189916 99.3681736,8.47058824 C85.3029094,3.38369748 69.987683,2.40201681 55.2097491,4.72386555 C47.1455792,5.99596639 39.1914189,8.39647059 31.8734,11.9329412 C42.4087962,5.6102521 55.6099283,3.06605042 67.7587962,2.16605042 M149.33956,27.8289076 C162.121381,36.482521 173.691504,46.6880672 185.554985,56.4065546 C193.356089,62.8063866 201.28474,69.0761345 209.543419,74.9314286 C208.373174,75.5909244 207.2109,76.2610084 206.053409,76.9431933 C191.572023,66.6529412 178.001004,55.2993277 164.18924,44.2119328 C157.121532,38.5154622 150.039475,32.832605 142.884079,27.2344538 C135.959862,21.8147899 128.74707,16.7944538 120.877409,12.6605042 C112.880202,8.46151261 104.33773,5.24571429 95.5019,3.25966387 C99.6248623,4.08252101 103.693617,5.15344538 107.674683,6.43915966 C122.714089,11.2779832 136.485994,19.1178151 149.33956,27.8289076 M317.985617,94.0431933 C318.679155,95.2351261 319.318485,96.4542857 319.900419,97.6961345 C318.674372,98.877479 317.406872,99.9892437 316.102702,101.010252 C296.57523,116.27395 268.360202,110.412605 247.316513,101.563866 C233.287919,95.6662185 220.490155,87.0942857 208.126051,78.414958 C209.259626,77.7070588 210.402768,77.0142857 211.553881,76.3336134 C215.520598,79.0941176 219.557466,81.7668908 223.707532,84.2944538 C236.969249,92.3838655 251.222645,99.2677311 266.670202,102.724034 C273.052343,104.108067 279.377089,104.936975 285.936202,104.632941 C291.793806,104.384874 297.507919,103.056807 303.04506,101.232605 C308.274494,99.474958 313.357249,97.0623529 317.985617,94.0431933 M231.809966,66.707395 C245.551579,61.9623529 260.267334,61.5327731 274.417098,64.7289076 C274.796551,67.0341176 274.948013,69.2712605 274.948013,71.892605 C274.976711,82.9951261 299.11023,78.847563 290.977504,91.5534454 C295.395419,86.6571429 297.522268,78.8006723 295.366721,72.6337815 C301.753645,76.197479 307.541098,80.7005042 312.343249,86.1882353 C313.677711,87.717479 314.916513,89.3359664 316.067626,91.014958 C309.10674,95.0853782 301.158957,97.7188235 293.163343,98.9364706 C287.713891,99.7941176 282.350532,100.098151 276.842089,99.4628571 C269.468268,98.5764706 262.239532,96.5994958 255.30256,94.1384874 C241.171928,89.1317647 228.136608,82.007395 215.718296,73.9512605 C220.850475,71.1378151 226.17557,68.652605 231.809966,66.707395 M289.695655,69.9715966 C289.871032,70.0956303 289.695655,70.3028571 289.520277,70.2196639 C288.447287,69.5601681 287.344004,68.9384874 286.235938,68.3183193 C287.198919,68.694958 288.131608,69.1305882 289.075457,69.5435294 C289.279532,69.6872269 289.493174,69.8233613 289.695655,69.9715966 M281.068683,66.5077311 C282.556202,68.1216807 284.109089,69.6736134 285.644438,71.2421849 C287.189353,72.8334454 288.762966,74.4640336 289.89973,76.3593277 C289.987419,76.4697479 289.783343,76.5786555 289.695655,76.4833613 C286.534079,72.2163025 281.508721,69.5692437 277.959721,65.6379832 C278.99923,65.9193277 280.043523,66.1855462 281.068683,66.5077311 M273.811249,58.7994958 C273.519485,57.5410084 273.3744,56.0072269 273.72356,54.6095798 C273.72356,54.4447059 273.694862,54.2783193 273.694862,54.1119328 C273.607174,49.369916 276.113475,44.7791597 279.49507,41.4060504 C283.342211,37.6033613 288.646579,35.8063866 294.009938,34.8110924 C299.779853,33.732605 305.784136,33.8294118 311.555645,35.0031933 C317.239466,36.1936134 322.688919,38.7922689 326.886815,42.6630252 C331.260089,46.742521 333.680296,52.1198319 334.699079,57.8314286 C335.311306,61.1652101 335.244343,64.4642017 334.616174,67.6421849 C333.370994,61.7808403 329.943164,56.5336134 324.00106,53.5719328 C320.270306,51.7205042 314.353711,50.6284034 310.56556,52.7021849 C308.612494,53.7383193 307.504428,55.742521 307.708504,57.8314286 C307.882287,59.9052101 309.982032,61.0941176 311.876108,61.5509244 C312.25556,61.6341176 312.488334,61.134958 312.080183,60.9973109 C310.331192,60.3060504 308.700183,59.0203361 309.341108,57.0297479 C309.865645,55.3840336 311.496655,54.2783193 313.188249,53.9183193 C316.219089,53.2678992 319.71707,54.3055462 322.515136,55.44 C328.344042,57.7890756 331.433872,64.0391597 332.074796,69.6811765 C332.278872,71.4463866 332.262928,73.2055462 332.092334,74.9495798 C330.123325,78.889916 327.2854,82.4838655 323.827277,85.5105882 C321.864645,87.2198319 319.742579,88.7566387 317.518475,90.1512605 C316.12024,88.2408403 314.596051,86.4105882 312.955475,84.6816807 C307.851994,79.3043697 301.600589,74.8860504 294.832617,71.3510924 C293.66556,68.8719328 291.741192,66.7391597 288.850655,65.3248739 C286.605825,64.2327731 283.079145,63.8591597 279.989315,63.0438655 C280.077004,63.1406723 280.193391,63.2238655 280.309777,63.3206723 C281.967891,64.7515966 283.777466,65.9843697 285.598202,67.1929412 C284.421579,66.7421849 283.243362,66.289916 282.053985,65.8890756 C280.850258,65.1342857 279.680013,64.332605 278.591079,63.417479 C278.387004,63.2510924 278.213221,63.0998319 278.037843,62.9334454 C278.638909,63.7094118 279.265485,64.4626891 279.893655,65.2235294 C278.983287,64.9421849 278.076108,64.6381513 277.162551,64.3855462 C277.04457,64.3522689 276.924994,64.325042 276.808608,64.2932773 C275.472551,62.6415126 274.327815,60.8233613 273.811249,58.7994958 M211.962032,173.046555 C211.920579,173.069244 211.879126,173.088908 211.837674,173.113109 C211.901447,173.076807 212.366994,172.804538 211.962032,173.046555 M335.456391,52.8806723 C333.619711,47.6137815 330.268409,43.1062185 325.604966,39.7467227 C321.145598,36.5384874 315.753542,34.6583193 310.302494,33.6766387 C304.648966,32.6541176 298.76107,32.7781513 293.134645,33.8702521 C288.005655,34.8791597 283.021749,36.6912605 279.203306,40.189916 C275.238183,43.8110924 272.499108,48.9826891 272.556504,54.2783193 C272.586796,55.5912605 272.81957,56.9042017 273.227721,58.1490756 C273.286711,59.1171429 273.3744,60.0428571 273.607174,60.9413445 C273.862268,61.8776471 274.069532,62.7655462 274.241721,63.6368067 C261.172919,60.5147899 247.452032,60.5359664 234.434249,64.1631933 C233.034419,64.554958 231.652126,64.9951261 230.2794,65.454958 L229.946183,65.2008403 L229.8569,65.2008403 C229.958938,65.3127731 230.068947,65.4005042 230.180551,65.4882353 C224.493542,67.4031933 219.024957,69.8717647 213.722183,72.6594958 C213.640872,72.6065546 213.557966,72.5551261 213.476655,72.5021849 C200.565692,63.9559664 188.192023,54.7759664 175.907636,45.4416807 C163.533966,36.0408403 150.766494,26.8472269 137.228957,18.965042 C124.171315,11.347563 110.0359,5.20789916 94.9375038,2.34605042 C89.2983245,1.28268908 83.5555132,0.727563025 77.7840038,0.701848739 C74.8360698,0.686722689 71.9184283,0.88789916 69.0151358,1.23428571 C55.1523528,2.15394958 40.1767208,5.12319328 29.080117,13.3578151 C24.9475887,15.5798319 21.0398623,18.1648739 17.5084,21.1915966 C6.85502264,30.3171429 0.428239623,43.1062185 0.0216830189,56.7393277 C-0.372118868,69.1411765 4.69947547,81.972605 15.1631264,89.7413445 C22.3615698,95.0657143 32.5494,98.0515966 41.6419189,96.7946218 C43.1262491,96.5798319 44.628117,96.2515966 46.0917208,95.8008403 C47.4931453,97.8761345 49.1735792,99.7684034 51.0851925,101.426218 C48.6681736,102.764874 46.5062491,104.499832 44.7317491,106.540336 C39.6314566,112.45916 38.9458906,120.533445 41.248117,127.668403 C43.8277585,135.659496 49.4972302,142.932101 56.4039094,148.074958 C62.6425604,152.720168 70.2635038,155.432269 78.090117,156.482017 C81.4127208,156.899496 84.7719943,156.958487 88.1153245,156.73916 C92.7771736,164.459496 101.834617,169.189412 110.923947,170.502353 C118.924343,171.664034 127.522617,170.142353 134.606268,166.49395 C148.363825,159.414958 156.217542,144.949916 160.138023,131.097479 C162.121381,124.045714 163.154513,116.717143 163.256551,109.417311 C163.266117,108.856134 163.261334,108.293445 163.262928,107.732269 C170.560221,103.811597 177.463711,99.3191597 184.277919,94.6376471 C190.634551,102.480504 197.318023,110.079832 204.586617,117.187563 C210.649891,123.107899 217.111749,128.689412 224.027994,133.691597 C224.190617,135.063529 224.300626,136.452101 224.377155,137.843697 C224.399475,137.979832 224.396287,138.114454 224.399475,138.250588 C224.40107,138.300504 224.404258,138.345882 224.405853,138.388235 C224.405853,138.398824 224.407447,138.412437 224.407447,138.424538 C224.405853,138.415462 224.405853,138.412437 224.405853,138.403361 C224.405853,138.421513 224.407447,138.439664 224.407447,138.451765 C224.407447,138.838992 224.436145,139.253445 224.436145,139.640672 C224.466438,140.498319 224.466438,141.384706 224.436145,142.268067 C224.377155,145.697143 224.058287,149.123193 223.474758,152.502353 C223.328079,153.329748 223.154296,154.132941 222.978919,154.936134 C222.950221,155.155462 222.89123,155.320336 222.833834,155.541176 C223.037909,154.712269 222.89123,155.403529 222.833834,155.568403 C222.715853,156.041849 222.60106,156.482017 222.483079,156.92521 C222.017532,158.528571 221.521692,160.133445 220.909466,161.68084 C220.617702,162.402353 220.325938,163.119328 219.976777,163.837815 C219.8014,164.172101 219.626023,164.529076 219.45224,164.860336 C219.364551,165.055462 219.276862,165.220336 219.219466,165.38521 C219.044089,165.663529 219.072787,165.607563 219.276862,165.220336 C219.219466,165.332269 219.160475,165.441176 219.072787,165.551597 C218.286777,166.881176 217.411485,168.180504 216.376758,169.367899 C216.159928,169.611429 215.938315,169.85042 215.710325,170.075798 C215.555674,170.227059 215.281447,170.497815 215.196947,170.585546 C214.627768,171.11042 214.001192,171.608067 213.360268,172.076975 C213.068504,172.302353 212.748042,172.520168 212.456277,172.715294 C212.296843,172.798487 212.150164,172.907395 211.99073,173.019328 C211.859994,173.097983 211.823325,173.120672 211.832891,173.116134 C211.156891,173.500336 210.45857,173.83916 209.7459,174.153782 C209.207013,174.373109 208.668126,174.568235 208.098947,174.733109 C208.030391,174.761849 207.984155,174.783025 207.955457,174.798151 C207.902843,174.811765 207.85023,174.831429 207.794428,174.845042 C207.458023,174.95395 207.123211,175.011429 206.802749,175.093109 C206.235164,175.232269 205.665985,175.341176 205.068108,175.397143 L204.986796,175.397143 L204.704598,175.397143 L204.60256,175.397143 C204.267749,175.397143 203.931343,175.397143 203.596532,175.368403 C202.984306,175.341176 202.372079,175.232269 201.745504,175.120336 C201.662598,175.103697 201.571721,175.085546 201.482438,175.068908 C201.456928,175.059832 201.402721,175.043193 201.292711,175.011429 C200.929202,174.95395 200.594391,174.845042 200.24523,174.733109 C198.8454,174.320168 198.014749,173.932941 196.892334,173.128235 C195.143343,171.912101 193.977881,169.702185 194.692145,167.403025 C195.567438,164.557815 199.355589,161.984874 201.890589,164.749916 C202.021325,164.889076 202.241343,164.724202 202.124957,164.557815 C199.633004,161.154454 195.071598,162.980168 192.884164,165.689244 C190.306117,168.871765 191.442881,173.155462 194.283994,175.78437 C197.02307,178.328571 200.900504,179.875966 204.718947,179.989412 C208.215334,180.124034 211.903042,179.019832 214.935475,177.386218 C221.14224,174.067563 225.07707,167.929412 227.379296,161.68084 C229.828202,155.101008 230.528117,147.910084 230.383032,140.941513 C230.365494,139.93563 230.320853,138.934286 230.263457,137.935966 C234.496428,140.657143 238.879268,143.171092 243.469372,145.365882 C257.431004,152.003193 274.072721,155.819496 289.607966,152.584034 C304.88174,149.430252 318.435221,138.259664 323.621608,124.239328 C326.362277,116.827563 326.478664,108.809244 323.682192,101.397479 C323.462174,100.816639 323.21824,100.243361 322.972711,99.6715966 C329.40906,93.0947899 334.007136,84.672605 334.990843,75.902521 C335.027513,75.5757983 335.045051,75.247563 335.07056,74.9223529 C335.890051,72.9468908 336.521409,70.9003361 336.912023,68.7947899 C337.962692,63.4719328 337.262777,57.9978151 335.456391,52.8806723" id="Fill-21" fill="#3E2605" mask="url(#mask-2)"></path>
                        </g>
                    </g>
                    <g id="FLOURISH-VECTOR-Copy" transform="translate(169.000000, 102.000000) scale(-1, 1) translate(-169.000000, -102.000000) ">
                        <path d="M224.50346,162.523557 C224.49446,162.378557 224.48246,162.240557 224.50746,162.624557 L224.50746,162.613557 C224.50746,162.583557 224.50346,162.553557 224.50346,162.523557" id="Fill-1" fill="#3E2605"></path>
                        <path d="M43.6931818,60.8043973 C39.3333613,58.1613127 34.7691742,56.0314195 29.5497165,55.1785724 C28.7192745,55.0569489 27.8596372,54.9471912 27,54.8656145 C27.2205862,54.9338423 27.4427943,55.0020701 27.6666243,55.0702978 C30.9429775,56.0862984 33.9371102,57.7667782 36.3392286,60.0583415 C36.4138386,60.1265692 36.2938138,60.2348437 36.2208257,60.1814481 C33.5964992,58.2562383 30.4239513,56.9955077 27.2205862,56.1278284 C27.1621957,56.1278284 27.0875857,56.0996473 27.0129757,56.0862984 C30.320146,58.6492896 32.6476544,63.1226585 35.2265661,65.590724 C38.2077231,68.4370088 41.305661,68.2486408 45.383261,68.410311 C47.7853793,68.5185855 51.1801354,68.2886876 51.7429545,71 C52.4841889,65.0211704 51.9667846,54.4859121 45.5016638,50.9884971 C41.305661,48.7384637 32.6168372,50.771948 27.7250148,52.6971579 C28.6300668,52.8454791 29.5043017,53.0368135 30.3655608,53.2385304 C35.3903837,54.4058186 40.6828295,56.8056565 43.8261822,60.6827739 C43.8861946,60.7643506 43.796987,60.8592762 43.6931818,60.8043973" id="Fill-3" fill="#3E2605"></path>
                        <path d="M58.6997792,12.6331045 C58.7270012,12.5217391 58.8797472,12.5354691 58.8797472,12.6468345 C58.8389141,18.4622426 55.0217774,23.2723112 50.8749513,26.9534706 C50.4605711,27.3028223 50.046191,27.6659039 49.6318108,28 C50.1974246,27.7208238 50.8205072,27.4553776 51.4844228,27.2051869 C51.6220454,27.0938215 51.773279,26.9824561 51.912414,26.8710908 C54.4833856,24.9183829 56.738279,22.576659 58.6997792,20.0228833 C58.8389141,19.842868 59.1141593,20.0228833 58.9901478,20.2181541 C57.4566388,22.4225782 55.7280384,24.5278413 53.7650259,26.3691838 C58.2990101,24.7643021 63.4832988,23.0770404 65.2391213,19.395881 C67.8932714,13.8596491 62.9721292,4.61479786 60.151622,0 C60.2484115,3.51334859 59.7372419,5.99542334 57.0407463,8.60259344 C53.6682364,11.8520214 52.2163936,13.1624714 51.2636217,17.8062548 C50.8613402,19.7025172 50.1974246,22.4500381 49.1327399,24.9183829 C50.3637816,23.7467582 51.4284663,22.4363082 52.299572,20.9016018 C52.4235836,20.706331 52.7562976,20.8878719 52.6458971,21.0968726 C51.5388669,23.3562166 49.9494015,25.3089245 48.0831785,26.9961861 C48.0559564,27.051106 48.0272221,27.0800915 48,27.1212815 C48.5671261,26.7307399 49.1055178,26.3264683 49.6454219,25.8947368 C53.792248,22.5476735 57.6487055,18.0427155 58.6997792,12.6331045" id="Fill-5" fill="#3E2605"></path>
                        <path d="M104.02183,26.2728263 C102.686402,26.5962759 101.349419,26.8949638 100,27.1626996 C101.293453,27.0791289 102.571359,26.9646061 103.864812,26.8237739 C108.029667,26.3718731 112.164985,25.6212844 116.270765,24.7298635 C116.455766,24.6880782 116.497741,24.97129 116.314294,25.0270038 C112.248935,26.1583035 108.129164,27.1921041 103.951871,27.8993598 C106.807728,28.1965001 109.663584,28.5493542 112.519441,28.9176843 C116.455766,29.4268466 121.074573,31.0827846 124.640896,28.9037559 C130.794124,25.183312 132.400058,15.3235166 129.813152,9 C128.306715,15.8899402 116.356269,10.8942693 111.396997,14.5311425 C108.640637,16.5399346 105.898269,20.8685875 102.67241,23.754872 C105.301291,22.8061897 107.858658,21.6315571 110.204596,20.0901419 C110.302537,20.018952 110.402034,20.1613317 110.316529,20.2170455 C107.759162,22.2691706 104.917297,23.8817757 101.904423,25.0981937 C102.62888,24.97129 103.353338,24.8289103 104.065359,24.6602213 C109.337112,23.4995171 114.467393,21.9859588 119.397127,19.8069301 C119.46864,19.7790732 119.510615,19.8781199 119.454648,19.9059768 C114.594873,22.6220247 109.40707,24.9140286 104.02183,26.2728263" id="Fill-7" fill="#3E2605"></path>
                        <path d="M146.724711,44.8211931 C145.088575,44.5630618 143.536504,44.0482828 142,43.4519105 L142.597789,44.020096 C144.518808,45.0511376 150.168223,47.6947579 152.60141,46.8283863 C155.219849,45.8922895 157.553405,40.4552141 156.884006,38 C156.955616,41.3631241 150.267854,40.0071932 148.047941,40.6169171 C146.01328,41.1732345 144.518808,41.7429035 142.627367,42.1909244 C145.188207,42.4742754 147.777068,42.5558686 150.339464,43.0854828 C150.453106,43.112186 150.481128,43.3154273 150.339464,43.3154273 C148.075962,43.4103722 145.784439,43.5320202 143.522493,43.4786138 C144.56084,43.9251512 145.642775,44.3464689 146.78231,44.6046002 C146.909963,44.6313034 146.866374,44.8478963 146.724711,44.8211931" id="Fill-9" fill="#3E2605"></path>
                        <path d="M135.505764,112.089639 C137.927708,106.566503 136.933501,102.085326 135.813677,97.27582 C135.770784,97.9054935 135.701848,98.535167 135.602274,99.1663398 C134.664748,105.565022 131.991571,111.636874 127.075683,116.062579 C126.950067,116.160029 126.824451,115.981621 126.907174,115.885671 C131.44468,111.170616 133.615392,104.867884 133.880411,98.481195 C133.909518,97.8920005 133.909518,97.316299 133.909518,96.7271045 C133.054714,101.373196 131.360425,105.881358 127.677722,109.088195 C127.622574,109.128674 127.565893,109.074702 127.607255,109.019231 C130.534728,105.346136 131.976252,100.440679 132.36842,95.8500592 C132.397526,95.5757015 132.4251,95.2878508 132.438888,95 C129.987837,98.7000815 126.305134,101.893426 123.967445,105.250185 C120.943462,109.608426 118.745176,113.665322 119.023983,118.927594 C119.178706,121.996502 118.674709,124.080422 116,125.970942 C124.695101,126.519657 132.36842,119.201951 135.505764,112.089639" id="Fill-11" fill="#3E2605"></path>
                        <path d="M189.024536,127.546146 C189.039281,127.93306 189.054026,128.29277 189.068771,128.650968 C189.173624,131.88533 188.949173,135.17259 187.990748,138.29511 C187.063451,141.251377 185.356308,143.847935 182.988917,146.05909 C182.944682,146.086295 182.854573,146.003169 182.898808,145.948759 C187.092941,140.754132 187.707316,134.122178 186.89798,127.877139 C186.852106,127.546146 186.807871,127.160743 186.763636,126.828239 C186.178751,131.388084 184.756678,135.780167 182.09111,139.70372 C182.015747,139.814051 181.820785,139.70372 181.881404,139.593389 C183.962087,135.366047 184.800913,130.585539 185.0696,126 C183.288732,130.364877 180.233241,133.957437 177.253113,138.322315 C174.88736,141.831749 173.838827,145.533129 174.22875,149.650139 C174.51382,152.46887 175.098705,154.651309 173,157 C176.460159,155.867973 179.994044,153.656818 183.06428,151.750963 C186.388458,149.650139 191.434524,147.192628 193.143305,143.627273 C195.867853,137.935401 191.434524,132.713568 189.024536,127.546146" id="Fill-13" fill="#3E2605"></path>
                        <path d="M226.864127,83.6037699 C224.631911,82.5971628 220.676002,83.8023708 219.198314,82 C218.050836,87.9185775 222.034813,88.9877575 227.227357,89 C225.416158,88.1416634 223.846012,87.0221531 222.488851,85.6931597 C222.396393,85.6061018 222.548289,85.456471 222.639097,85.543529 C224.66163,87.060241 227.10518,88.1661485 229.672558,88.9510299 C230.124945,88.9374271 230.547613,88.9129421 231,88.8884571 C229.611469,87.5703459 229.036905,84.610377 226.864127,83.6037699" id="Fill-15" fill="#3E2605"></path>
                        <path d="M252.354134,69.9472532 C255.605304,71.3127887 259.199688,72.3886194 262.792512,71.8650384 C264.733229,71.5753336 267.469579,71.009504 270.035881,70.1811294 C267.585023,70.0030817 265.188768,69.4221633 262.907956,68.3885812 C262.792512,68.3327527 262.850234,68.1818648 262.964119,68.2226045 C266.157566,69.2984352 269.466459,69.5066605 272.74571,69.1611272 C273.174727,68.9679907 273.602184,68.7612743 274,68.5545579 C272.889236,68.5273981 271.804992,68.4444097 270.720749,68.3055929 C265.017161,67.5602066 259.599064,65.5202022 254.179407,63.8785419 C254.095164,63.8498732 254.151326,63.7548138 254.237129,63.7683937 C259.485179,64.9951124 264.76131,66.470796 270.207488,66.7061811 C267.812793,66.0437833 265.530421,64.9407927 263.705148,63.2719725 C263.619345,63.1889842 263.762871,63.0380963 263.876755,63.1059959 C266.157566,64.6918277 269.01092,65.5066223 271.804992,65.8913865 C270.606864,64.8864731 269.638066,63.478689 268.669267,62.4858466 C265.586583,59.2025259 262.907956,57.6438539 258.230889,57.106693 C249.045242,56.0580221 246.109204,62.9264393 243,69.5066605 C244.683307,66.9958859 250.187207,69.0373992 252.354134,69.9472532" id="Fill-17" fill="#3E2605"></path>
                        <path d="M297.486802,72 C299.643954,69.9049454 303.026066,67.7259687 302.999848,64.4245344 C302.999848,61.9308499 301.482122,59.6439735 299.458972,58.4795547 C300.656257,60.9732391 300.736368,63.7396703 299.964395,66.465639 C299.910503,66.6574609 299.617736,66.5885249 299.643954,66.3982017 C299.936721,63.5898095 299.298751,60.6030829 297.67324,58.3012203 C297.594586,58.2053094 297.540694,58.0959109 297.460584,58 L297.406691,58.0404624 C297.967463,59.4521516 298.153902,60.9732391 297.75335,62.5617641 C297.727132,62.657675 297.566912,62.615714 297.594586,62.519803 C297.647022,61.2055234 297.328037,59.9586812 296.79494,58.7942625 C296.423519,60.9582531 295.676308,63.4519375 296.155514,65.6444016 C296.688611,68.027189 298.765654,69.4388782 297.486802,72" id="Fill-19" fill="#3E2605"></path>
                        <g id="Group-23" transform="translate(0.000000, 24.000000)">
                            <mask id="mask-4" fill="white">
                                <use xlink:href="#path-3"></use>
                            </mask>
                            <g id="Clip-22"></g>
                            <path d="M319.466758,93.0176471 C323.403183,90.2737815 326.955372,87.0670588 329.924032,83.4110924 C327.969372,88.1228571 324.924183,92.5078992 321.341702,96.2561345 C320.759768,95.154958 320.134787,94.074958 319.466758,93.0176471 M322.339758,104.245714 C324.554296,112.126387 322.8069,120.643866 318.784381,127.722857 C311.41056,140.831092 296.371155,149.153445 280.835909,149.430252 C265.153985,149.705546 249.385966,143.815462 236.240636,136.019496 C233.976674,134.676303 231.784457,133.239328 229.620938,131.764538 C229.080457,128.20084 228.243428,124.682521 227.030136,121.197479 C225.456523,116.606723 223.474758,112.071933 220.966862,107.841176 C218.46056,103.554454 215.590749,99.4628571 212.500919,95.5633613 C209.002938,91.137479 205.165362,86.9657143 201.136466,82.9618487 C201.664192,82.6063866 202.190325,82.2509244 202.719645,81.9 C202.9014,82.0331092 203.079966,82.1707563 203.260126,82.3038655 C215.880919,91.5957983 229.50774,100.264538 244.110296,106.485882 C255.739409,111.462353 268.243815,114.781008 281.038391,115.168235 C293.252626,115.501008 305.2309,112.79042 315.315098,106.042689 C317.445136,104.623866 319.471542,103.003866 321.368806,101.23563 C321.729126,102.229412 322.062343,103.230756 322.339758,104.245714 M199.530966,105.186555 C195.543523,100.913445 191.715513,96.529916 187.946494,92.102521 C188.829758,91.4853782 189.714617,90.8727731 190.596287,90.2541176 C193.273183,88.3784874 195.953268,86.4983193 198.654079,84.6484034 C202.588909,89.1 206.262268,93.7542857 209.541825,98.6884034 C212.237853,102.724034 214.642117,106.95479 216.713164,111.324706 C217.760645,113.537647 218.840013,115.721849 219.772702,117.989244 C220.705391,120.256639 221.521692,122.496807 222.162617,124.543361 C222.403362,125.289076 222.613815,126.042353 222.80673,126.803193 C214.3934,120.282353 206.707089,112.902353 199.530966,105.186555 M163.176834,102.539496 C162.912174,95.9959664 162.086306,89.4630252 160.488777,83.1055462 C156.160145,65.7952941 147.706957,49.1763025 135.102108,35.9152941 C128.120494,28.5746218 119.785287,22.4077311 110.4584,17.9697479 C110.297372,17.9001681 110.166636,18.1361345 110.32607,18.2193277 C126.50224,27.0544538 138.686183,41.1836975 146.570192,57.0842017 C149.87207,63.7411765 152.399098,70.7309244 154.216645,77.882521 C150.112815,67.1384874 142.217645,57.910084 132.437966,51.2440336 C132.036192,50.6722689 131.640796,50.0959664 131.226268,49.5347899 C125.687532,42.0413445 118.634174,35.5840336 110.968589,30.067563 C102.413362,23.8734454 92.722966,19.0210084 82.4044,16.1168067 C72.0714849,13.2141176 61.1263434,12.4805042 50.5032585,14.0853782 C41.8762868,15.3710924 33.2477208,17.3344538 25.5534377,21.3443697 C18.8045981,24.8551261 13.0059849,30.109916 10.4550415,37.1329412 C10.4119943,37.2584874 10.6001264,37.3265546 10.6447679,37.202521 C13.7632962,29.1282353 21.0781264,23.7630252 29.1247585,20.3763025 C33.1903245,18.6761345 37.4153245,17.4312605 41.7296075,16.5040336 C46.3930509,15.4951261 51.2015792,14.7342857 55.9686547,14.4030252 C77.9880792,12.8541176 99.2071453,22.2836975 115.252579,36.0695798 C119.216108,39.4729412 122.776268,43.2620168 125.923494,47.3369748 C119.576428,43.992605 112.658589,41.6102521 105.525513,40.3184874 C101.008749,33.8596639 94.6058811,28.7213445 87.563683,24.8278992 C80.1308717,20.7226891 71.8817585,18.0529412 63.3568245,16.9608403 C46.7868528,14.8310924 29.2108528,19.0769748 17.1592396,30.4139496 C15.7163623,31.7828571 14.3611736,33.2485714 13.0793245,34.7823529 C13.034683,34.8231933 13.1223717,34.8791597 13.1654189,34.8383193 C18.9959189,28.7546218 26.4271358,24.1230252 34.6029094,21.3852101 C42.4438717,18.7578151 50.9098151,18.0393277 59.1445792,18.965042 C67.3793434,19.8786555 75.4530792,22.450084 82.6228245,26.3904202 C86.3392302,28.4369748 89.7782208,30.8556303 92.9700887,33.5389916 C94.9677962,35.2346218 96.9957962,37.2766387 98.7511642,39.4290756 C96.5270604,39.2460504 94.2949849,39.1689076 92.0613151,39.2052101 C89.6315415,36.2042017 86.8462302,33.4603361 83.6288528,31.0915966 C76.7779755,26.0727731 68.471466,23.334958 59.9895792,22.0628571 C53.1402962,21.0252101 46.0438906,20.9979832 39.2233057,22.2141176 C32.8252208,23.334958 26.5435226,25.7263866 21.7206453,29.9163025 C21.6329566,30.0131092 21.7636925,30.1643697 21.8513811,30.0811765 C28.3228057,24.5934454 37.1379094,22.4364706 45.6213906,21.9660504 C54.3360509,21.4820168 63.3424755,22.7541176 71.5039,25.7551261 C79.0594755,28.5368067 85.5436547,33.242521 90.5148057,39.2505882 C76.2661925,39.8042017 61.6253717,44.6006723 52.143834,55.0255462 C51.1170792,55.6063866 50.1222113,56.2265546 49.205466,56.9329412 C40.6629943,63.5173109 38.8645792,74.9541176 41.9257113,84.8631933 C41.9480321,85.0189916 41.9544094,85.1763025 41.9783245,85.3321008 C42.2397962,87.1154622 42.7356358,88.8443697 43.3478623,90.5445378 C43.3574283,90.5702521 43.3638057,90.5884034 43.374966,90.6110924 C41.257683,91.0936134 38.976183,91.2494118 37.023117,91.2902521 C30.4066075,91.4430252 23.4839849,89.4373109 17.8878528,86.1186555 C12.6568245,83.0223529 7.99178679,78.169916 5.63216415,72.7230252 C3.03657925,66.7346218 2.29361698,60.1668908 2.86279623,53.7519328 C4.0729,39.9131092 12.0159,27.7457143 23.5413811,19.4218487 C34.8803245,11.2507563 49.1193717,6.96403361 63.2101453,5.85831933 C78.8043811,4.62705882 94.3109283,7.76722689 108.125881,14.6783193 C122.567409,21.9115966 134.547277,32.8205042 145.041221,44.5447059 C155.386891,56.102521 164.364617,68.6571429 173.648457,80.9894118 C176.421013,84.6710924 179.2414,88.322521 182.115994,91.9346218 C175.960249,95.7373109 169.707249,99.3645378 163.176834,102.539496 M157.005145,118.293277 C156.743674,120.090252 156.435966,121.86 156.072457,123.629748 C155.90824,124.463193 155.716919,125.269412 155.538353,126.07563 C155.509655,126.193613 155.472985,126.349412 155.46023,126.396303 C155.40124,126.588403 155.358192,126.783529 155.300796,127.00437 C155.17006,127.502017 155.03773,127.999664 154.906994,128.52605 C153.915315,132.092773 152.749853,135.603529 151.278277,139.032605 C150.564013,140.71916 149.776409,142.38 148.902711,144.010588 C148.705013,144.384202 148.507315,144.759328 148.296862,145.132941 C148.250626,145.210084 148.205985,145.285714 148.188447,145.309916 C148.086409,145.476303 147.970023,145.697143 147.853636,145.863529 C147.386494,146.692437 146.8779,147.49563 146.351768,148.270084 C145.376032,149.791765 144.296664,151.228739 143.1599,152.611261 C142.621013,153.272269 142.053428,153.910588 141.4699,154.545882 C141.324815,154.712269 141.178136,154.849916 141.033051,154.989076 C140.959711,155.101008 140.463872,155.598655 140.931013,155.101008 C140.581853,155.48521 140.231098,155.819496 139.867589,156.150756 C138.598494,157.366891 137.228957,158.472605 135.800428,159.523866 C135.116457,160.023025 134.416542,160.493445 133.702277,160.962353 C133.5269,161.072773 133.337174,161.184706 133.163391,161.293613 C133.730975,160.962353 133.120343,161.32084 133.03106,161.376807 C132.595806,161.627899 132.157362,161.845714 131.720513,162.096807 C130.132551,162.954454 128.484004,163.671429 126.765306,164.253782 C126.374692,164.383866 125.968136,164.516975 125.563174,164.651597 C125.457947,164.678824 125.339966,164.713613 125.308079,164.724202 C125.104004,164.777143 124.87123,164.833109 124.667155,164.889076 C123.704174,165.167395 122.728438,165.359496 121.767051,165.52437 C120.848711,165.719496 119.916023,165.828403 118.983334,165.940336 C118.516192,165.99479 118.036296,165.99479 117.554806,166.050756 C117.307683,166.050756 117.074909,166.076471 116.826192,166.106723 L116.768796,166.106723 L116.57907,166.106723 L116.272957,166.106723 C113.940438,166.159664 111.638211,165.99479 109.350334,165.607563 C102.980947,164.492773 96.9399943,161.14084 92.8632679,156.249076 C95.8526547,155.808908 98.8085604,155.147899 101.684749,154.297815 C108.181683,152.391933 114.353372,149.58 119.954287,145.937647 C123.246598,145.381008 126.456004,144.402353 129.432636,143.071261 C136.922843,139.723866 142.955825,133.945714 147.372145,127.391597 C150.597494,122.632941 153.000164,117.390252 154.674221,111.944874 C155.686626,111.491092 156.707004,111.047899 157.701872,110.569916 C157.566353,113.15042 157.365466,115.723361 157.005145,118.293277 M84.2841264,151.836807 C84.9537491,151.811092 84.1677396,151.836807 84.0800509,151.836807 C83.8472774,151.836807 83.6288528,151.836807 83.3801358,151.864034 C82.3900509,151.864034 81.3840226,151.836807 80.3923434,151.811092 C78.4839189,151.727899 76.5739,151.56 74.7085226,151.228739 C72.7267585,150.95042 71.6186925,150.676639 69.550834,150.065546 C62.0893245,147.879832 55.6465981,143.706555 50.6052962,137.898151 C45.1988906,131.676807 41.1317302,123.658487 42.5172113,115.417815 C43.4626547,109.757647 47.1758717,105.216807 52.0816547,102.250588 C56.4501453,105.722017 61.8358245,108.031765 67.5403717,108.697311 C72.0045226,109.217647 76.3746075,108.555126 80.4194472,107.034958 C81.8431925,109.083025 83.5730509,110.922353 85.535683,112.551429 C85.1307208,114.558655 84.8963528,116.597647 84.8963528,118.707731 C84.8963528,122.551261 85.6393151,126.396303 87.0965415,129.990252 C87.4887491,130.96437 87.9638623,131.903697 88.4884,132.815798 C85.5149566,135.379664 84.5599472,139.496975 84.5169,143.180168 C84.4866075,146.061681 84.9473717,148.994622 85.859334,151.767227 C85.8003434,151.770252 85.7413528,151.777815 85.6839566,151.78084 C85.4495887,151.78084 85.2168151,151.811092 84.9840415,151.811092 C85.9741264,151.78084 83.7595887,151.864034 84.2841264,151.836807 M44.5149189,67.1430252 C45.0522113,65.3218487 45.8334377,63.5687395 46.8888906,61.9502521 C47.1471736,61.5615126 47.4580698,61.2090756 47.7450509,60.84 C46.4919,62.8532773 45.4013717,64.9588235 44.5149189,67.1430252 M92.4885981,41.8068908 C97.7212208,49.1203361 100.460296,57.707395 100.984834,66.5001681 C101.217608,70.674958 100.956136,75.0176471 99.8767679,79.0820168 C98.8229094,82.9648739 97.0356547,86.6329412 94.7254566,89.9667227 C94.9135887,87.487563 94.7031358,84.910084 92.0374,83.6591597 C89.8372113,82.6078992 87.2432208,83.0223529 84.9680981,83.7136134 C81.9085604,84.6408403 79.0515038,86.7705882 77.6102208,89.5341176 C76.1370509,92.3566387 76.0940038,95.6042017 76.7205792,98.632437 C76.7747868,98.8880672 76.8624755,99.1285714 76.9262491,99.3826891 C75.6762868,99.6670588 74.4119755,99.9105882 73.1205604,100.070924 C69.0518057,100.567059 64.7646264,100.158655 60.8026925,98.8941176 C62.6298057,98.5053782 64.4935887,98.2542857 66.3302679,98.1907563 C66.593334,98.1620168 66.6363811,97.7747899 66.358966,97.8035294 C64.0742774,97.8761345 61.8294472,98.0757983 59.6260698,98.4796639 C56.5362396,97.3346218 53.6775887,95.6662185 51.3626075,93.4063866 C51.3610132,93.4048739 51.3610132,93.4033613 51.3594189,93.4033613 C52.0019377,92.9919328 52.6253245,92.5563025 53.1992868,92.0647059 C56.7546642,89.0228571 57.2935509,84.6680672 55.777334,80.3541176 C55.2830887,78.9579832 52.7034472,79.3860504 52.7337396,80.8653782 C52.7751925,82.7636975 52.3941453,84.4578151 51.219117,85.9840336 C50.3804943,86.6737815 49.8240698,87.5556303 48.9583434,88.207563 C48.6012113,88.4858824 48.2090038,88.7248739 47.8024472,88.9502521 C47.4628528,88.4057143 47.1710887,87.8294118 46.8729472,87.2606723 C45.8780792,84.665042 45.2674472,81.5188235 45.2275887,78.6947899 C45.1255509,71.6581513 47.6318528,64.9089076 51.7117679,59.089916 C52.7879472,57.5576471 53.9677585,56.1312605 55.2400415,54.8016807 C59.9098623,52.4314286 65.7945698,51.1880672 70.9634189,52.3966387 C76.6615887,53.7247059 80.6554094,57.7210084 81.9819,63.1134454 C82.0536453,63.417479 82.5494849,63.3342857 82.4904943,63.0302521 C81.718834,59.9052101 79.9985415,57.0842017 77.3758528,55.0391597 C74.8839,53.1166387 71.7797208,52.2166387 68.6468434,51.7613445 C64.9049283,51.2198319 60.9908245,51.6373109 57.3350038,52.7823529 C60.692683,49.7707563 64.5749,47.3294118 68.8509189,45.3872269 C75.4961264,42.3741176 82.8125509,40.5892437 90.1863717,40.2443697 C90.5450981,40.2262185 90.9022302,40.2262185 91.2609566,40.2156303 C91.6738906,40.7420168 92.0979849,41.2608403 92.4885981,41.8068908 M101.509372,43.2998319 C102.690777,45.2359664 103.666513,47.267395 104.482815,49.3563025 C105.154032,51.0988235 105.735966,53.1998319 106.158466,55.3704202 C106.348192,56.4216807 106.509221,57.4714286 106.624013,58.5363025 C106.654306,58.7994958 106.654306,59.0763025 106.683004,59.3243697 C106.683004,59.3939496 106.741994,60.2788235 106.711702,59.6284034 C106.741994,60.0715966 106.756343,60.4996639 106.786636,60.9277311 C106.793013,60.9927731 106.816928,61.3754622 106.828089,61.5690756 C106.910994,63.7835294 106.783447,65.9843697 106.493277,68.1731092 C106.348192,69.2531092 106.158466,70.3164706 105.911343,71.3813445 C105.911343,71.4085714 105.692919,72.2934454 105.852353,71.712605 C105.779013,71.9757983 105.721617,72.237479 105.633928,72.5021849 C105.4729,73.1238655 105.299117,73.7319328 105.095042,74.34 C104.53224,76.0658824 103.83073,77.7584874 103.035155,79.4011765 C103.172268,78.7023529 103.322136,78.005042 103.419391,77.2986555 C104.584853,68.7267227 102.9379,59.6556303 99.5419566,51.7053782 C97.7849943,47.5956303 95.5640792,43.7097479 92.8489189,40.1717647 C95.0985321,40.1596639 97.3497396,40.2791597 99.5913811,40.5 C100.294485,41.4272269 100.944975,42.365042 101.509372,43.2998319 M80.465683,95.687395 C79.5473434,91.332605 81.7921736,87.667563 86.0921075,85.9946218 C87.5780321,85.4001681 89.2233906,85.1521008 90.8129472,85.4152941 C92.9557396,85.7737815 93.5233245,88.2347899 93.3925887,89.9636975 C93.3527302,90.4114286 93.7258057,90.6413445 94.0861264,90.6368067 C90.2549283,93.9010084 85.9199189,96.4633613 81.1958906,98.1347899 C80.8897774,97.3391597 80.6410604,96.5223529 80.465683,95.687395 M140.959711,81.2117647 C141.339164,83.3536134 141.616579,85.5105882 141.804711,87.6826891 C141.994438,89.8805042 142.008787,91.4989916 142.023136,93.7936134 C142.053428,98.0788235 141.630928,102.392773 140.784334,106.623529 C140.565909,107.757983 140.406475,108.422017 140.2024,109.223697 C140.012674,109.957311 139.787872,110.690924 139.567853,111.423025 C137.249683,112.074958 134.921947,112.692101 132.579862,113.233613 C125.614192,114.836975 118.428504,115.805042 111.273108,115.445042 C104.672542,115.141008 98.2298151,113.841681 92.5475887,110.468571 C90.8113528,109.435462 89.1054094,108.21479 87.5413623,106.829244 C87.5238245,106.741513 87.4568623,106.684034 87.3691736,106.671933 C86.6612868,106.035126 85.9868811,105.365042 85.3491453,104.663193 C87.5764377,103.350252 89.6554566,101.783193 91.5272113,100.014958 C92.7293434,98.8880672 93.8294377,97.6658824 94.8753245,96.4028571 C96.3995132,95.3440336 97.8694943,94.2231933 99.2358434,93.0191597 C102.456409,90.1709244 105.299117,86.8794958 107.411617,83.217479 C109.844579,79.0411765 111.360796,74.4640336 112.205796,69.7628571 C113.8384,60.6373109 112.032013,51.1668908 107.309579,43.1062185 C106.987523,42.5510924 106.622419,42.0247059 106.271664,41.4862185 C108.141825,41.8568067 109.996042,42.3 111.827938,42.8157983 C117.307683,44.3677311 122.580164,46.5988235 127.474787,49.4168067 C134.316098,58.909916 138.947655,69.8354622 140.959711,81.2117647 M154.884674,106.216639 C154.262881,106.467731 153.655438,106.741513 153.027268,106.983529 C150.573579,107.92437 148.080032,108.783529 145.570542,109.601849 C146.329447,106.237815 146.818909,102.82084 147.037334,99.4068908 C148.062494,83.527563 142.9909,67.3880672 134.199711,53.8502521 C138.842428,57.3413445 142.987711,61.4208403 146.410758,66.0297479 C150.564013,71.6173109 153.507164,77.9626891 155.023381,84.6408403 C156.635258,91.7818487 156.392919,99.1104202 154.884674,106.216639 M123.793457,143.263361 C130.524758,138.174958 136.018853,131.815966 139.998325,124.570588 C141.445985,121.917479 142.643334,119.149412 143.638202,116.316303 C146.584542,115.30437 149.479862,114.19563 152.29706,113.011261 C152.590419,112.888739 152.871023,112.748067 153.162787,112.622521 C148.805457,125.907731 139.561475,138.56521 125.424466,143.263361 C124.544391,143.555294 123.643589,143.804874 122.731626,144.027227 C123.08557,143.771597 123.445891,143.526555 123.793457,143.263361 M86.1399377,113.052101 C92.4854094,118.060336 100.984834,120.963025 108.972475,121.584706 C118.359947,122.301681 127.851051,120.931261 136.961108,118.397647 C136.948353,118.427899 136.937192,118.458151 136.922843,118.486891 C136.500343,119.427731 136.034796,120.368571 135.567655,121.307899 C134.941079,122.496807 134.765702,122.80084 134.08173,123.906555 C133.002362,125.676303 131.806608,127.391597 130.510409,129.049412 C129.94123,129.769412 129.330598,130.460672 128.732721,131.151933 C128.426608,131.511933 128.106145,131.843193 127.785683,132.203193 C127.640598,132.36958 127.47957,132.534454 127.318542,132.70084 C127.251579,132.76437 126.835457,133.183361 126.849806,133.174286 C125.523315,134.503866 124.120296,135.785042 122.669447,136.98605 C121.154825,138.230924 119.566862,139.448571 117.948608,140.554286 C117.161004,141.07916 116.346296,141.605546 115.544343,142.101681 C115.163296,142.369412 114.7679,142.587227 114.374098,142.85042 C114.281626,142.907899 114.184372,142.968403 114.158862,142.988067 C113.868692,143.154454 113.591277,143.319328 113.329806,143.458487 C112.473645,143.945546 111.606325,144.414454 110.726249,144.86521 C106.934909,144.461345 103.242419,143.404034 99.9357585,141.605546 C96.2624,139.613445 93.2905509,136.73042 91.0313717,133.38605 C91.9226075,132.737143 92.9908151,132.23042 94.3109283,131.953613 C95.9722302,131.593613 97.7642679,131.64958 99.309183,132.36958 C101.013532,133.142521 101.437626,134.939496 101.204853,136.571597 C101.058174,137.59563 102.703532,137.733277 102.850211,136.737983 C103.084579,135.133109 102.86456,133.585714 101.831428,132.257647 C100.927438,131.097479 99.4702113,130.516639 98.027334,130.211092 C95.3663811,129.654454 92.3451075,130.336639 89.9918623,131.734286 C88.4644849,129.10084 87.3404755,126.246555 86.6740415,123.327227 C85.9231075,120.013109 85.7365698,116.487227 86.1399377,113.052101 M99.5579,149.401513 C99.3235321,149.457479 99.1051075,149.513445 98.872334,149.596639 C98.3477962,149.732773 97.8089094,149.873445 97.2540792,150.00958 C95.3743528,150.510252 93.4356358,150.897479 91.4969189,151.172773 C90.9181736,151.263529 90.3330509,151.327059 89.7495226,151.399664 C89.5837113,151.050252 89.4147113,150.70084 89.2680321,150.34084 C87.4154094,145.862017 86.3551736,138.662017 89.6650226,134.64605 C93.0928528,139.525714 98.3446075,143.275462 104.176702,145.061849 C105.533485,145.485378 106.922155,145.8 108.323579,146.029916 C106.418343,146.913277 104.47006,147.719496 102.486702,148.434958 C101.59706,148.738992 100.678721,149.041513 99.7763245,149.348571 C100.4029,149.123193 99.6296453,149.348571 99.5579,149.401513 M157.866089,104.983866 C157.339957,105.213782 156.80107,105.421008 156.271749,105.643361 C156.319579,105.407395 156.37857,105.172941 156.421617,104.936975 C157.009928,101.81042 157.312853,98.6521008 157.341551,95.4952941 C157.441994,96.4134454 157.5249,97.3467227 157.603023,98.2739496 C157.64607,98.7988235 157.674768,99.2964706 157.70506,99.8485714 C157.719409,100.098151 157.733758,100.347731 157.748108,100.623025 C157.762457,100.706218 157.807098,101.674286 157.776806,101.232605 C157.837391,102.477479 157.859711,103.731429 157.866089,104.983866 M67.7587962,2.16605042 C85.7413528,0.839495798 103.578825,5.69344538 119.085372,14.1806723 C126.911985,18.4537815 133.906353,23.6662185 140.55156,29.4322689 C147.415192,35.3904202 154.178381,41.4605042 160.954325,47.5154622 C173.685126,58.9068908 186.784221,69.9836975 200.54656,80.2739496 C200.106523,80.5462185 199.668079,80.82 199.229636,81.0937815 C196.908277,78.8505882 194.537494,76.6542857 192.126853,74.5048739 C184.753032,67.9386555 176.883372,61.9381513 168.882975,56.0616807 C168.721947,55.9361345 168.562513,56.1721008 168.707598,56.2961345 C178.434664,64.6442017 188.196806,73.1828571 196.818994,82.612437 C195.398438,83.512437 193.984258,84.4154622 192.579645,85.3184874 C190.333221,86.76 188.083608,88.192437 185.829211,89.6142857 C180.280909,83.0011765 174.900013,76.262521 169.611589,69.4315966 C160.021636,57.0569748 149.996428,44.82 138.496457,33.9670588 C127.187806,23.3077311 114.39323,13.9189916 99.3681736,8.47058824 C85.3029094,3.38369748 69.987683,2.40201681 55.2097491,4.72386555 C47.1455792,5.99596639 39.1914189,8.39647059 31.8734,11.9329412 C42.4087962,5.6102521 55.6099283,3.06605042 67.7587962,2.16605042 M149.33956,27.8289076 C162.121381,36.482521 173.691504,46.6880672 185.554985,56.4065546 C193.356089,62.8063866 201.28474,69.0761345 209.543419,74.9314286 C208.373174,75.5909244 207.2109,76.2610084 206.053409,76.9431933 C191.572023,66.6529412 178.001004,55.2993277 164.18924,44.2119328 C157.121532,38.5154622 150.039475,32.832605 142.884079,27.2344538 C135.959862,21.8147899 128.74707,16.7944538 120.877409,12.6605042 C112.880202,8.46151261 104.33773,5.24571429 95.5019,3.25966387 C99.6248623,4.08252101 103.693617,5.15344538 107.674683,6.43915966 C122.714089,11.2779832 136.485994,19.1178151 149.33956,27.8289076 M317.985617,94.0431933 C318.679155,95.2351261 319.318485,96.4542857 319.900419,97.6961345 C318.674372,98.877479 317.406872,99.9892437 316.102702,101.010252 C296.57523,116.27395 268.360202,110.412605 247.316513,101.563866 C233.287919,95.6662185 220.490155,87.0942857 208.126051,78.414958 C209.259626,77.7070588 210.402768,77.0142857 211.553881,76.3336134 C215.520598,79.0941176 219.557466,81.7668908 223.707532,84.2944538 C236.969249,92.3838655 251.222645,99.2677311 266.670202,102.724034 C273.052343,104.108067 279.377089,104.936975 285.936202,104.632941 C291.793806,104.384874 297.507919,103.056807 303.04506,101.232605 C308.274494,99.474958 313.357249,97.0623529 317.985617,94.0431933 M231.809966,66.707395 C245.551579,61.9623529 260.267334,61.5327731 274.417098,64.7289076 C274.796551,67.0341176 274.948013,69.2712605 274.948013,71.892605 C274.976711,82.9951261 299.11023,78.847563 290.977504,91.5534454 C295.395419,86.6571429 297.522268,78.8006723 295.366721,72.6337815 C301.753645,76.197479 307.541098,80.7005042 312.343249,86.1882353 C313.677711,87.717479 314.916513,89.3359664 316.067626,91.014958 C309.10674,95.0853782 301.158957,97.7188235 293.163343,98.9364706 C287.713891,99.7941176 282.350532,100.098151 276.842089,99.4628571 C269.468268,98.5764706 262.239532,96.5994958 255.30256,94.1384874 C241.171928,89.1317647 228.136608,82.007395 215.718296,73.9512605 C220.850475,71.1378151 226.17557,68.652605 231.809966,66.707395 M289.695655,69.9715966 C289.871032,70.0956303 289.695655,70.3028571 289.520277,70.2196639 C288.447287,69.5601681 287.344004,68.9384874 286.235938,68.3183193 C287.198919,68.694958 288.131608,69.1305882 289.075457,69.5435294 C289.279532,69.6872269 289.493174,69.8233613 289.695655,69.9715966 M281.068683,66.5077311 C282.556202,68.1216807 284.109089,69.6736134 285.644438,71.2421849 C287.189353,72.8334454 288.762966,74.4640336 289.89973,76.3593277 C289.987419,76.4697479 289.783343,76.5786555 289.695655,76.4833613 C286.534079,72.2163025 281.508721,69.5692437 277.959721,65.6379832 C278.99923,65.9193277 280.043523,66.1855462 281.068683,66.5077311 M273.811249,58.7994958 C273.519485,57.5410084 273.3744,56.0072269 273.72356,54.6095798 C273.72356,54.4447059 273.694862,54.2783193 273.694862,54.1119328 C273.607174,49.369916 276.113475,44.7791597 279.49507,41.4060504 C283.342211,37.6033613 288.646579,35.8063866 294.009938,34.8110924 C299.779853,33.732605 305.784136,33.8294118 311.555645,35.0031933 C317.239466,36.1936134 322.688919,38.7922689 326.886815,42.6630252 C331.260089,46.742521 333.680296,52.1198319 334.699079,57.8314286 C335.311306,61.1652101 335.244343,64.4642017 334.616174,67.6421849 C333.370994,61.7808403 329.943164,56.5336134 324.00106,53.5719328 C320.270306,51.7205042 314.353711,50.6284034 310.56556,52.7021849 C308.612494,53.7383193 307.504428,55.742521 307.708504,57.8314286 C307.882287,59.9052101 309.982032,61.0941176 311.876108,61.5509244 C312.25556,61.6341176 312.488334,61.134958 312.080183,60.9973109 C310.331192,60.3060504 308.700183,59.0203361 309.341108,57.0297479 C309.865645,55.3840336 311.496655,54.2783193 313.188249,53.9183193 C316.219089,53.2678992 319.71707,54.3055462 322.515136,55.44 C328.344042,57.7890756 331.433872,64.0391597 332.074796,69.6811765 C332.278872,71.4463866 332.262928,73.2055462 332.092334,74.9495798 C330.123325,78.889916 327.2854,82.4838655 323.827277,85.5105882 C321.864645,87.2198319 319.742579,88.7566387 317.518475,90.1512605 C316.12024,88.2408403 314.596051,86.4105882 312.955475,84.6816807 C307.851994,79.3043697 301.600589,74.8860504 294.832617,71.3510924 C293.66556,68.8719328 291.741192,66.7391597 288.850655,65.3248739 C286.605825,64.2327731 283.079145,63.8591597 279.989315,63.0438655 C280.077004,63.1406723 280.193391,63.2238655 280.309777,63.3206723 C281.967891,64.7515966 283.777466,65.9843697 285.598202,67.1929412 C284.421579,66.7421849 283.243362,66.289916 282.053985,65.8890756 C280.850258,65.1342857 279.680013,64.332605 278.591079,63.417479 C278.387004,63.2510924 278.213221,63.0998319 278.037843,62.9334454 C278.638909,63.7094118 279.265485,64.4626891 279.893655,65.2235294 C278.983287,64.9421849 278.076108,64.6381513 277.162551,64.3855462 C277.04457,64.3522689 276.924994,64.325042 276.808608,64.2932773 C275.472551,62.6415126 274.327815,60.8233613 273.811249,58.7994958 M211.962032,173.046555 C211.920579,173.069244 211.879126,173.088908 211.837674,173.113109 C211.901447,173.076807 212.366994,172.804538 211.962032,173.046555 M335.456391,52.8806723 C333.619711,47.6137815 330.268409,43.1062185 325.604966,39.7467227 C321.145598,36.5384874 315.753542,34.6583193 310.302494,33.6766387 C304.648966,32.6541176 298.76107,32.7781513 293.134645,33.8702521 C288.005655,34.8791597 283.021749,36.6912605 279.203306,40.189916 C275.238183,43.8110924 272.499108,48.9826891 272.556504,54.2783193 C272.586796,55.5912605 272.81957,56.9042017 273.227721,58.1490756 C273.286711,59.1171429 273.3744,60.0428571 273.607174,60.9413445 C273.862268,61.8776471 274.069532,62.7655462 274.241721,63.6368067 C261.172919,60.5147899 247.452032,60.5359664 234.434249,64.1631933 C233.034419,64.554958 231.652126,64.9951261 230.2794,65.454958 L229.946183,65.2008403 L229.8569,65.2008403 C229.958938,65.3127731 230.068947,65.4005042 230.180551,65.4882353 C224.493542,67.4031933 219.024957,69.8717647 213.722183,72.6594958 C213.640872,72.6065546 213.557966,72.5551261 213.476655,72.5021849 C200.565692,63.9559664 188.192023,54.7759664 175.907636,45.4416807 C163.533966,36.0408403 150.766494,26.8472269 137.228957,18.965042 C124.171315,11.347563 110.0359,5.20789916 94.9375038,2.34605042 C89.2983245,1.28268908 83.5555132,0.727563025 77.7840038,0.701848739 C74.8360698,0.686722689 71.9184283,0.88789916 69.0151358,1.23428571 C55.1523528,2.15394958 40.1767208,5.12319328 29.080117,13.3578151 C24.9475887,15.5798319 21.0398623,18.1648739 17.5084,21.1915966 C6.85502264,30.3171429 0.428239623,43.1062185 0.0216830189,56.7393277 C-0.372118868,69.1411765 4.69947547,81.972605 15.1631264,89.7413445 C22.3615698,95.0657143 32.5494,98.0515966 41.6419189,96.7946218 C43.1262491,96.5798319 44.628117,96.2515966 46.0917208,95.8008403 C47.4931453,97.8761345 49.1735792,99.7684034 51.0851925,101.426218 C48.6681736,102.764874 46.5062491,104.499832 44.7317491,106.540336 C39.6314566,112.45916 38.9458906,120.533445 41.248117,127.668403 C43.8277585,135.659496 49.4972302,142.932101 56.4039094,148.074958 C62.6425604,152.720168 70.2635038,155.432269 78.090117,156.482017 C81.4127208,156.899496 84.7719943,156.958487 88.1153245,156.73916 C92.7771736,164.459496 101.834617,169.189412 110.923947,170.502353 C118.924343,171.664034 127.522617,170.142353 134.606268,166.49395 C148.363825,159.414958 156.217542,144.949916 160.138023,131.097479 C162.121381,124.045714 163.154513,116.717143 163.256551,109.417311 C163.266117,108.856134 163.261334,108.293445 163.262928,107.732269 C170.560221,103.811597 177.463711,99.3191597 184.277919,94.6376471 C190.634551,102.480504 197.318023,110.079832 204.586617,117.187563 C210.649891,123.107899 217.111749,128.689412 224.027994,133.691597 C224.190617,135.063529 224.300626,136.452101 224.377155,137.843697 C224.399475,137.979832 224.396287,138.114454 224.399475,138.250588 C224.40107,138.300504 224.404258,138.345882 224.405853,138.388235 C224.405853,138.398824 224.407447,138.412437 224.407447,138.424538 C224.405853,138.415462 224.405853,138.412437 224.405853,138.403361 C224.405853,138.421513 224.407447,138.439664 224.407447,138.451765 C224.407447,138.838992 224.436145,139.253445 224.436145,139.640672 C224.466438,140.498319 224.466438,141.384706 224.436145,142.268067 C224.377155,145.697143 224.058287,149.123193 223.474758,152.502353 C223.328079,153.329748 223.154296,154.132941 222.978919,154.936134 C222.950221,155.155462 222.89123,155.320336 222.833834,155.541176 C223.037909,154.712269 222.89123,155.403529 222.833834,155.568403 C222.715853,156.041849 222.60106,156.482017 222.483079,156.92521 C222.017532,158.528571 221.521692,160.133445 220.909466,161.68084 C220.617702,162.402353 220.325938,163.119328 219.976777,163.837815 C219.8014,164.172101 219.626023,164.529076 219.45224,164.860336 C219.364551,165.055462 219.276862,165.220336 219.219466,165.38521 C219.044089,165.663529 219.072787,165.607563 219.276862,165.220336 C219.219466,165.332269 219.160475,165.441176 219.072787,165.551597 C218.286777,166.881176 217.411485,168.180504 216.376758,169.367899 C216.159928,169.611429 215.938315,169.85042 215.710325,170.075798 C215.555674,170.227059 215.281447,170.497815 215.196947,170.585546 C214.627768,171.11042 214.001192,171.608067 213.360268,172.076975 C213.068504,172.302353 212.748042,172.520168 212.456277,172.715294 C212.296843,172.798487 212.150164,172.907395 211.99073,173.019328 C211.859994,173.097983 211.823325,173.120672 211.832891,173.116134 C211.156891,173.500336 210.45857,173.83916 209.7459,174.153782 C209.207013,174.373109 208.668126,174.568235 208.098947,174.733109 C208.030391,174.761849 207.984155,174.783025 207.955457,174.798151 C207.902843,174.811765 207.85023,174.831429 207.794428,174.845042 C207.458023,174.95395 207.123211,175.011429 206.802749,175.093109 C206.235164,175.232269 205.665985,175.341176 205.068108,175.397143 L204.986796,175.397143 L204.704598,175.397143 L204.60256,175.397143 C204.267749,175.397143 203.931343,175.397143 203.596532,175.368403 C202.984306,175.341176 202.372079,175.232269 201.745504,175.120336 C201.662598,175.103697 201.571721,175.085546 201.482438,175.068908 C201.456928,175.059832 201.402721,175.043193 201.292711,175.011429 C200.929202,174.95395 200.594391,174.845042 200.24523,174.733109 C198.8454,174.320168 198.014749,173.932941 196.892334,173.128235 C195.143343,171.912101 193.977881,169.702185 194.692145,167.403025 C195.567438,164.557815 199.355589,161.984874 201.890589,164.749916 C202.021325,164.889076 202.241343,164.724202 202.124957,164.557815 C199.633004,161.154454 195.071598,162.980168 192.884164,165.689244 C190.306117,168.871765 191.442881,173.155462 194.283994,175.78437 C197.02307,178.328571 200.900504,179.875966 204.718947,179.989412 C208.215334,180.124034 211.903042,179.019832 214.935475,177.386218 C221.14224,174.067563 225.07707,167.929412 227.379296,161.68084 C229.828202,155.101008 230.528117,147.910084 230.383032,140.941513 C230.365494,139.93563 230.320853,138.934286 230.263457,137.935966 C234.496428,140.657143 238.879268,143.171092 243.469372,145.365882 C257.431004,152.003193 274.072721,155.819496 289.607966,152.584034 C304.88174,149.430252 318.435221,138.259664 323.621608,124.239328 C326.362277,116.827563 326.478664,108.809244 323.682192,101.397479 C323.462174,100.816639 323.21824,100.243361 322.972711,99.6715966 C329.40906,93.0947899 334.007136,84.672605 334.990843,75.902521 C335.027513,75.5757983 335.045051,75.247563 335.07056,74.9223529 C335.890051,72.9468908 336.521409,70.9003361 336.912023,68.7947899 C337.962692,63.4719328 337.262777,57.9978151 335.456391,52.8806723" id="Fill-21" fill="#3E2605" mask="url(#mask-4)"></path>
                        </g>
                    </g>
                </g>
            </g>
        </g>
    </g>
</svg>