<svg xmlns="http://www.w3.org/2000/svg" viewBox="0 0 28 20"><defs><style>.a{fill:#fff;}</style></defs><title>icon-youtube-white</title><path class="a" d="M11.3,13.23V5.39l7.86,3.93Zm16.42-9a6,6,0,0,0-1.11-2.77A4.05,4.05,0,0,0,23.8.28C19.88,0,14,0,14,0h0S8.12,0,4.2.28A4.05,4.05,0,0,0,1.39,1.46,6,6,0,0,0,.28,4.23,41.82,41.82,0,0,0,0,8.74v2.11a41.82,41.82,0,0,0,.28,4.51,6,6,0,0,0,1.11,2.77,4.8,4.8,0,0,0,3.09,1.19c2.24.21,9.52.28,9.52.28s5.88,0,9.8-.29a4.05,4.05,0,0,0,2.81-1.18,6,6,0,0,0,1.11-2.77A41.82,41.82,0,0,0,28,10.85V8.74A41.82,41.82,0,0,0,27.72,4.23Z"/></svg>